G75*
%MOIN*%
%OFA0B0*%
%FSLAX25Y25*%
%IPPOS*%
%LPD*%
%AMOC8*
5,1,8,0,0,1.08239X$1,22.5*
%
%ADD10OC8,0.07400*%
%ADD11C,0.02900*%
%ADD12C,0.00900*%
%ADD13C,0.13500*%
D10*
X0104833Y0112901D03*
X0115833Y0112901D03*
X0115833Y0122901D03*
X0104833Y0122901D03*
X0104833Y0132901D03*
X0115833Y0132901D03*
X0115833Y0142901D03*
X0104833Y0142901D03*
X0104833Y0152901D03*
X0115833Y0152901D03*
D11*
X0097203Y0157193D03*
X0152553Y0148901D03*
X0154053Y0154101D03*
X0176183Y0160873D03*
X0183183Y0142873D03*
X0188183Y0128873D03*
X0174183Y0122873D03*
X0137183Y0138873D03*
D12*
X0157183Y0118873D01*
X0184183Y0118873D01*
X0188183Y0122873D01*
X0188183Y0128873D01*
X0174183Y0122873D02*
X0174183Y0135873D01*
X0172323Y0137733D01*
X0172243Y0137733D01*
X0158523Y0151453D01*
X0128423Y0151453D01*
X0119871Y0142901D01*
X0115833Y0142901D01*
X0109833Y0147901D02*
X0104833Y0142901D01*
X0109833Y0137901D02*
X0104833Y0132901D01*
X0109833Y0137901D02*
X0119333Y0137901D01*
X0130333Y0148901D01*
X0152553Y0148901D01*
X0154053Y0154101D02*
X0125933Y0154101D01*
X0119833Y0147901D01*
X0109833Y0147901D01*
X0115833Y0152901D02*
X0119985Y0157053D01*
X0159363Y0157053D01*
X0173543Y0142873D01*
X0183183Y0142873D01*
X0175443Y0160133D02*
X0166183Y0160133D01*
X0169863Y0160133D01*
X0166183Y0160133D02*
X0104063Y0160133D01*
X0099303Y0155373D01*
X0099303Y0120933D01*
X0102243Y0117993D01*
X0110363Y0117993D01*
X0115455Y0112901D01*
X0115833Y0112901D01*
X0104833Y0112901D02*
X0097203Y0120531D01*
X0097203Y0157193D01*
X0175443Y0160133D02*
X0176183Y0160873D01*
X0115981Y0122753D02*
X0115833Y0122901D01*
D13*
X0191183Y0098903D03*
X0191183Y0168903D03*
M02*
