%
M48
M72
T01C0.01500
T02C0.04000
T03C0.09500
%
T01
X174183Y122873
X188183Y128873
X183183Y142873
X152553Y148901
X154053Y154101
X176183Y160873
X137183Y138873
X97203Y157193
T02
X104833Y152901
X115833Y152901
X115833Y142901
X104833Y142901
X104833Y132901
X115833Y132901
X115833Y122901
X104833Y122901
X104833Y112901
X115833Y112901
T03
X191183Y98903
X191183Y168903
M30
