G75*
%MOIN*%
%OFA0B0*%
%FSLAX25Y25*%
%IPPOS*%
%LPD*%
%AMOC8*
5,1,8,0,0,1.08239X$1,22.5*
%
%ADD10OC8,0.07400*%
%ADD11R,0.06657X0.02252*%
%ADD12R,0.05512X0.05512*%
%ADD13R,0.04331X0.03937*%
%ADD14R,0.03937X0.04331*%
%ADD15R,0.04724X0.07874*%
%ADD16R,0.03937X0.03937*%
%ADD17C,0.07400*%
%ADD18C,0.03937*%
%ADD19C,0.01000*%
%ADD20C,0.00900*%
%ADD21C,0.02900*%
%ADD22C,0.13500*%
D10*
X0090178Y0133901D03*
X0101178Y0133901D03*
X0101178Y0143901D03*
X0090178Y0143901D03*
X0090178Y0153901D03*
X0101178Y0153901D03*
X0101178Y0163901D03*
X0090178Y0163901D03*
X0090178Y0173901D03*
X0101178Y0173901D03*
D11*
X0114157Y0174901D03*
X0114157Y0169901D03*
X0114157Y0164901D03*
X0114157Y0159901D03*
X0114157Y0154901D03*
X0114157Y0149901D03*
X0114157Y0144901D03*
X0114157Y0139901D03*
X0151720Y0139901D03*
X0151720Y0144901D03*
X0151720Y0149901D03*
X0151720Y0154901D03*
X0151720Y0159901D03*
X0151720Y0164901D03*
X0151720Y0169901D03*
X0151917Y0174901D03*
D12*
X0128659Y0130346D03*
X0113698Y0130346D03*
D13*
X0144869Y0130317D03*
X0151562Y0130317D03*
X0161314Y0172803D03*
X0168007Y0172803D03*
X0122625Y0182525D03*
X0115932Y0182525D03*
D14*
X0134222Y0182533D03*
X0140915Y0182533D03*
X0091945Y0182665D03*
X0085252Y0182665D03*
X0085916Y0124950D03*
X0085916Y0118257D03*
D15*
X0093219Y0121701D03*
X0105818Y0121701D03*
D16*
X0105271Y0182665D03*
X0098366Y0182665D03*
X0147416Y0182533D03*
X0154321Y0182533D03*
D17*
X0164808Y0163753D03*
X0164808Y0153753D03*
X0174888Y0153693D03*
X0164808Y0143753D03*
D18*
X0165528Y0129873D03*
X0083028Y0192873D03*
D19*
X0078678Y0197903D02*
X0078678Y0111903D01*
X0184528Y0111903D01*
X0184528Y0197903D01*
X0078678Y0197903D01*
X0078678Y0197742D02*
X0174940Y0197742D01*
X0174967Y0197753D02*
X0172082Y0196558D01*
X0169874Y0194350D01*
X0168678Y0191465D01*
X0168678Y0188342D01*
X0169874Y0185457D01*
X0172082Y0183248D01*
X0174967Y0182053D01*
X0178090Y0182053D01*
X0180975Y0183248D01*
X0183183Y0185457D01*
X0184378Y0188342D01*
X0184378Y0191465D01*
X0183183Y0194350D01*
X0180975Y0196558D01*
X0178090Y0197753D01*
X0174967Y0197753D01*
X0172530Y0196744D02*
X0078678Y0196744D01*
X0078678Y0195745D02*
X0081944Y0195745D01*
X0082418Y0195942D02*
X0081290Y0195475D01*
X0080427Y0194611D01*
X0079960Y0193484D01*
X0079960Y0192263D01*
X0080427Y0191135D01*
X0081290Y0190272D01*
X0082418Y0189805D01*
X0083639Y0189805D01*
X0084767Y0190272D01*
X0085630Y0191135D01*
X0086097Y0192263D01*
X0086097Y0193484D01*
X0085630Y0194611D01*
X0084767Y0195475D01*
X0083639Y0195942D01*
X0082418Y0195942D01*
X0084113Y0195745D02*
X0171269Y0195745D01*
X0170270Y0194747D02*
X0085495Y0194747D01*
X0085987Y0193748D02*
X0169624Y0193748D01*
X0169211Y0192750D02*
X0086097Y0192750D01*
X0085885Y0191751D02*
X0168797Y0191751D01*
X0168678Y0190753D02*
X0085247Y0190753D01*
X0086246Y0189123D02*
X0084610Y0187487D01*
X0083702Y0186579D01*
X0083702Y0185931D01*
X0082828Y0185931D01*
X0082184Y0185286D01*
X0082184Y0180743D01*
X0082041Y0180743D01*
X0081104Y0180355D01*
X0080387Y0179638D01*
X0079998Y0178701D01*
X0079998Y0177686D01*
X0080387Y0176749D01*
X0081104Y0176032D01*
X0082041Y0175643D01*
X0083056Y0175643D01*
X0083993Y0176032D01*
X0084710Y0176749D01*
X0085098Y0177686D01*
X0085098Y0178551D01*
X0085947Y0179400D01*
X0087676Y0179400D01*
X0088320Y0180044D01*
X0088320Y0185286D01*
X0087676Y0185931D01*
X0087438Y0185931D01*
X0087530Y0186023D01*
X0102709Y0186023D01*
X0102382Y0185834D01*
X0102102Y0185555D01*
X0101905Y0185213D01*
X0101803Y0184831D01*
X0101803Y0183150D01*
X0104787Y0183150D01*
X0104787Y0182181D01*
X0105755Y0182181D01*
X0105755Y0179197D01*
X0107437Y0179197D01*
X0107819Y0179299D01*
X0108161Y0179497D01*
X0108440Y0179776D01*
X0108638Y0180118D01*
X0108740Y0180499D01*
X0108740Y0182181D01*
X0105756Y0182181D01*
X0105756Y0183150D01*
X0108740Y0183150D01*
X0108740Y0184831D01*
X0108638Y0185213D01*
X0108440Y0185555D01*
X0108161Y0185834D01*
X0107833Y0186023D01*
X0131886Y0186023D01*
X0132111Y0185799D01*
X0131798Y0185799D01*
X0131154Y0185154D01*
X0131154Y0179912D01*
X0131798Y0179268D01*
X0136646Y0179268D01*
X0137291Y0179912D01*
X0137291Y0185154D01*
X0136646Y0185799D01*
X0135772Y0185799D01*
X0135772Y0186522D01*
X0134078Y0188215D01*
X0133170Y0189123D01*
X0086246Y0189123D01*
X0085879Y0188756D02*
X0078678Y0188756D01*
X0078678Y0189754D02*
X0168678Y0189754D01*
X0168678Y0188756D02*
X0133538Y0188756D01*
X0134537Y0187757D02*
X0168921Y0187757D01*
X0169334Y0186759D02*
X0135535Y0186759D01*
X0136685Y0185760D02*
X0138452Y0185760D01*
X0138491Y0185799D02*
X0137846Y0185154D01*
X0137846Y0179912D01*
X0138491Y0179268D01*
X0143339Y0179268D01*
X0143983Y0179912D01*
X0143983Y0180983D01*
X0144347Y0180983D01*
X0144347Y0180109D01*
X0144992Y0179465D01*
X0149840Y0179465D01*
X0150484Y0180109D01*
X0150484Y0184957D01*
X0149840Y0185602D01*
X0144992Y0185602D01*
X0144347Y0184957D01*
X0144347Y0184083D01*
X0143983Y0184083D01*
X0143983Y0185154D01*
X0143339Y0185799D01*
X0138491Y0185799D01*
X0137846Y0184762D02*
X0137291Y0184762D01*
X0137291Y0183763D02*
X0137846Y0183763D01*
X0137846Y0182765D02*
X0137291Y0182765D01*
X0137291Y0181766D02*
X0137846Y0181766D01*
X0137846Y0180768D02*
X0137291Y0180768D01*
X0137147Y0179769D02*
X0137990Y0179769D01*
X0136843Y0177263D02*
X0135906Y0177651D01*
X0134891Y0177651D01*
X0133954Y0177263D01*
X0133237Y0176546D01*
X0132848Y0175609D01*
X0132848Y0174594D01*
X0133237Y0173657D01*
X0133954Y0172940D01*
X0134891Y0172551D01*
X0135906Y0172551D01*
X0136843Y0172940D01*
X0137455Y0173551D01*
X0147488Y0173551D01*
X0147488Y0173320D01*
X0148132Y0172675D01*
X0155701Y0172675D01*
X0156346Y0173320D01*
X0156346Y0176476D01*
X0156407Y0176329D01*
X0157124Y0175612D01*
X0158049Y0175228D01*
X0158049Y0175227D01*
X0158049Y0170379D01*
X0158693Y0169735D01*
X0158708Y0169735D01*
X0158708Y0168065D01*
X0157094Y0166451D01*
X0156149Y0166451D01*
X0156149Y0166483D01*
X0155504Y0167127D01*
X0147936Y0167127D01*
X0147291Y0166483D01*
X0147291Y0163320D01*
X0147936Y0162675D01*
X0155504Y0162675D01*
X0156149Y0163320D01*
X0156149Y0163351D01*
X0158378Y0163351D01*
X0160202Y0165175D01*
X0160008Y0164708D01*
X0160008Y0162799D01*
X0160739Y0161034D01*
X0162089Y0159684D01*
X0163854Y0158953D01*
X0165763Y0158953D01*
X0167527Y0159684D01*
X0168878Y0161034D01*
X0169608Y0162799D01*
X0169608Y0164708D01*
X0168878Y0166472D01*
X0167527Y0167823D01*
X0165763Y0168553D01*
X0163854Y0168553D01*
X0162089Y0167823D01*
X0161808Y0167542D01*
X0161808Y0169735D01*
X0163935Y0169735D01*
X0164448Y0170248D01*
X0164641Y0169914D01*
X0164921Y0169635D01*
X0165263Y0169437D01*
X0165644Y0169335D01*
X0167523Y0169335D01*
X0167523Y0172319D01*
X0168491Y0172319D01*
X0168491Y0169335D01*
X0170370Y0169335D01*
X0170751Y0169437D01*
X0171093Y0169635D01*
X0171373Y0169914D01*
X0171570Y0170256D01*
X0171672Y0170637D01*
X0171672Y0172319D01*
X0168491Y0172319D01*
X0168491Y0173288D01*
X0167523Y0173288D01*
X0167523Y0176272D01*
X0165644Y0176272D01*
X0165263Y0176170D01*
X0164921Y0175972D01*
X0164641Y0175693D01*
X0164448Y0175359D01*
X0163935Y0175872D01*
X0160273Y0175872D01*
X0160730Y0176329D01*
X0161118Y0177266D01*
X0161118Y0178281D01*
X0160730Y0179218D01*
X0160013Y0179935D01*
X0159076Y0180323D01*
X0158210Y0180323D01*
X0157390Y0181144D01*
X0157390Y0184957D01*
X0156745Y0185602D01*
X0151897Y0185602D01*
X0151253Y0184957D01*
X0151253Y0180109D01*
X0151897Y0179465D01*
X0154685Y0179465D01*
X0156018Y0178131D01*
X0156018Y0177266D01*
X0156341Y0176487D01*
X0155701Y0177127D01*
X0148132Y0177127D01*
X0147656Y0176651D01*
X0137455Y0176651D01*
X0136843Y0177263D01*
X0137332Y0176774D02*
X0147779Y0176774D01*
X0150144Y0179769D02*
X0151593Y0179769D01*
X0151253Y0180768D02*
X0150484Y0180768D01*
X0150484Y0181766D02*
X0151253Y0181766D01*
X0151253Y0182765D02*
X0150484Y0182765D01*
X0150484Y0183763D02*
X0151253Y0183763D01*
X0151253Y0184762D02*
X0150484Y0184762D01*
X0144347Y0184762D02*
X0143983Y0184762D01*
X0143378Y0185760D02*
X0169748Y0185760D01*
X0170569Y0184762D02*
X0157390Y0184762D01*
X0157390Y0183763D02*
X0171567Y0183763D01*
X0173250Y0182765D02*
X0157390Y0182765D01*
X0157390Y0181766D02*
X0184528Y0181766D01*
X0184528Y0180768D02*
X0157766Y0180768D01*
X0160179Y0179769D02*
X0184528Y0179769D01*
X0184528Y0178771D02*
X0160915Y0178771D01*
X0161118Y0177772D02*
X0184528Y0177772D01*
X0184528Y0176774D02*
X0160914Y0176774D01*
X0164032Y0175775D02*
X0164724Y0175775D01*
X0167523Y0175775D02*
X0168491Y0175775D01*
X0168491Y0176272D02*
X0168491Y0173288D01*
X0171672Y0173288D01*
X0171672Y0174969D01*
X0171570Y0175351D01*
X0171373Y0175693D01*
X0171093Y0175972D01*
X0170751Y0176170D01*
X0170370Y0176272D01*
X0168491Y0176272D01*
X0168491Y0174777D02*
X0167523Y0174777D01*
X0167523Y0173778D02*
X0168491Y0173778D01*
X0168491Y0172780D02*
X0184528Y0172780D01*
X0184528Y0173778D02*
X0171672Y0173778D01*
X0171672Y0174777D02*
X0184528Y0174777D01*
X0184528Y0175775D02*
X0171290Y0175775D01*
X0171672Y0171781D02*
X0184528Y0171781D01*
X0184528Y0170783D02*
X0171672Y0170783D01*
X0171243Y0169784D02*
X0184528Y0169784D01*
X0184528Y0168785D02*
X0161808Y0168785D01*
X0161808Y0167787D02*
X0162054Y0167787D01*
X0163984Y0169784D02*
X0164771Y0169784D01*
X0167523Y0169784D02*
X0168491Y0169784D01*
X0168491Y0170783D02*
X0167523Y0170783D01*
X0167523Y0171781D02*
X0168491Y0171781D01*
X0167563Y0167787D02*
X0184528Y0167787D01*
X0184528Y0166788D02*
X0168562Y0166788D01*
X0169160Y0165790D02*
X0184528Y0165790D01*
X0184528Y0164791D02*
X0169574Y0164791D01*
X0169608Y0163793D02*
X0184528Y0163793D01*
X0184528Y0162794D02*
X0169607Y0162794D01*
X0169193Y0161796D02*
X0184528Y0161796D01*
X0184528Y0160797D02*
X0168641Y0160797D01*
X0167642Y0159799D02*
X0184528Y0159799D01*
X0184528Y0158800D02*
X0156549Y0158800D01*
X0156549Y0158578D02*
X0156549Y0159838D01*
X0151783Y0159838D01*
X0151783Y0157275D01*
X0151783Y0154964D01*
X0156549Y0154964D01*
X0156549Y0156225D01*
X0156446Y0156606D01*
X0156249Y0156948D01*
X0155970Y0157228D01*
X0155669Y0157401D01*
X0155970Y0157575D01*
X0156249Y0157854D01*
X0156446Y0158196D01*
X0156549Y0158578D01*
X0156197Y0157802D02*
X0162069Y0157802D01*
X0162089Y0157823D02*
X0160739Y0156472D01*
X0160008Y0154708D01*
X0160008Y0152799D01*
X0160739Y0151034D01*
X0162089Y0149684D01*
X0163854Y0148953D01*
X0165763Y0148953D01*
X0167527Y0149684D01*
X0168878Y0151034D01*
X0169608Y0152799D01*
X0169608Y0154708D01*
X0168878Y0156472D01*
X0167527Y0157823D01*
X0165763Y0158553D01*
X0163854Y0158553D01*
X0162089Y0157823D01*
X0161070Y0156803D02*
X0156333Y0156803D01*
X0156549Y0155805D02*
X0160463Y0155805D01*
X0160049Y0154806D02*
X0156549Y0154806D01*
X0156549Y0154838D02*
X0151783Y0154838D01*
X0151783Y0152275D01*
X0151783Y0149964D01*
X0156549Y0149964D01*
X0156549Y0151225D01*
X0156446Y0151606D01*
X0156249Y0151948D01*
X0155970Y0152228D01*
X0155669Y0152401D01*
X0155970Y0152575D01*
X0156249Y0152854D01*
X0156446Y0153196D01*
X0156549Y0153578D01*
X0156549Y0154838D01*
X0156549Y0153808D02*
X0160008Y0153808D01*
X0160008Y0152809D02*
X0156204Y0152809D01*
X0156328Y0151811D02*
X0160418Y0151811D01*
X0160961Y0150812D02*
X0156549Y0150812D01*
X0156549Y0149838D02*
X0151783Y0149838D01*
X0151783Y0147275D01*
X0151783Y0144964D01*
X0156549Y0144964D01*
X0156549Y0146225D01*
X0156446Y0146606D01*
X0156249Y0146948D01*
X0155970Y0147228D01*
X0155669Y0147401D01*
X0155970Y0147575D01*
X0156249Y0147854D01*
X0156446Y0148196D01*
X0156549Y0148578D01*
X0156549Y0149838D01*
X0156549Y0149814D02*
X0161960Y0149814D01*
X0162089Y0147823D02*
X0160739Y0146472D01*
X0160008Y0144708D01*
X0160008Y0142799D01*
X0160739Y0141034D01*
X0162089Y0139684D01*
X0163854Y0138953D01*
X0165763Y0138953D01*
X0167527Y0139684D01*
X0168878Y0141034D01*
X0169608Y0142799D01*
X0169608Y0144708D01*
X0168878Y0146472D01*
X0167527Y0147823D01*
X0165763Y0148553D01*
X0163854Y0148553D01*
X0162089Y0147823D01*
X0162084Y0147817D02*
X0156211Y0147817D01*
X0156324Y0146818D02*
X0161085Y0146818D01*
X0160469Y0145820D02*
X0156549Y0145820D01*
X0156549Y0144838D02*
X0151783Y0144838D01*
X0151783Y0142275D01*
X0155246Y0142275D01*
X0155628Y0142378D01*
X0155970Y0142575D01*
X0156249Y0142854D01*
X0156446Y0143196D01*
X0156549Y0143578D01*
X0156549Y0144838D01*
X0156549Y0144821D02*
X0160055Y0144821D01*
X0160008Y0143823D02*
X0156549Y0143823D01*
X0156219Y0142824D02*
X0160008Y0142824D01*
X0160411Y0141826D02*
X0155806Y0141826D01*
X0155504Y0142127D02*
X0147936Y0142127D01*
X0147291Y0141483D01*
X0147291Y0140408D01*
X0144766Y0137883D01*
X0144346Y0137463D01*
X0143319Y0136436D01*
X0143319Y0133386D01*
X0142248Y0133386D01*
X0141604Y0132741D01*
X0141604Y0131896D01*
X0132515Y0131896D01*
X0132515Y0133557D01*
X0131870Y0134201D01*
X0125447Y0134201D01*
X0124803Y0133557D01*
X0124803Y0127134D01*
X0125447Y0126490D01*
X0131870Y0126490D01*
X0132515Y0127134D01*
X0132515Y0128796D01*
X0141604Y0128796D01*
X0141604Y0127893D01*
X0142248Y0127249D01*
X0147490Y0127249D01*
X0148003Y0127762D01*
X0148196Y0127428D01*
X0148475Y0127148D01*
X0148817Y0126951D01*
X0149199Y0126849D01*
X0151078Y0126849D01*
X0151078Y0129833D01*
X0152046Y0129833D01*
X0152046Y0126849D01*
X0153925Y0126849D01*
X0154306Y0126951D01*
X0154648Y0127148D01*
X0154927Y0127428D01*
X0155125Y0127770D01*
X0155227Y0128151D01*
X0155227Y0129833D01*
X0152046Y0129833D01*
X0152046Y0130802D01*
X0151078Y0130802D01*
X0151078Y0133786D01*
X0149199Y0133786D01*
X0148817Y0133684D01*
X0148475Y0133486D01*
X0148196Y0133207D01*
X0148003Y0132872D01*
X0147490Y0133386D01*
X0146419Y0133386D01*
X0146419Y0135152D01*
X0146538Y0135271D01*
X0146958Y0135691D01*
X0148943Y0137675D01*
X0155504Y0137675D01*
X0156149Y0138320D01*
X0156149Y0141483D01*
X0155504Y0142127D01*
X0156149Y0140827D02*
X0160946Y0140827D01*
X0161945Y0139829D02*
X0156149Y0139829D01*
X0156149Y0138830D02*
X0184528Y0138830D01*
X0184528Y0137832D02*
X0155661Y0137832D01*
X0151657Y0142275D02*
X0151657Y0144838D01*
X0151783Y0144838D01*
X0151783Y0144964D01*
X0151657Y0144964D01*
X0151657Y0144838D01*
X0146891Y0144838D01*
X0146891Y0143578D01*
X0146993Y0143196D01*
X0147191Y0142854D01*
X0147470Y0142575D01*
X0147812Y0142378D01*
X0148194Y0142275D01*
X0151657Y0142275D01*
X0151657Y0142824D02*
X0151783Y0142824D01*
X0151783Y0143823D02*
X0151657Y0143823D01*
X0151657Y0144821D02*
X0151783Y0144821D01*
X0151657Y0144964D02*
X0146891Y0144964D01*
X0146891Y0146225D01*
X0146993Y0146606D01*
X0147191Y0146948D01*
X0147470Y0147228D01*
X0147771Y0147401D01*
X0147470Y0147575D01*
X0147191Y0147854D01*
X0146993Y0148196D01*
X0146891Y0148578D01*
X0146891Y0149838D01*
X0151657Y0149838D01*
X0151783Y0149838D01*
X0151783Y0149964D01*
X0151657Y0149964D01*
X0151657Y0149838D01*
X0151657Y0144964D01*
X0151657Y0145820D02*
X0151783Y0145820D01*
X0151783Y0146818D02*
X0151657Y0146818D01*
X0151657Y0147817D02*
X0151783Y0147817D01*
X0151783Y0148815D02*
X0151657Y0148815D01*
X0151657Y0149814D02*
X0151783Y0149814D01*
X0151657Y0149964D02*
X0146891Y0149964D01*
X0146891Y0151225D01*
X0146993Y0151606D01*
X0147191Y0151948D01*
X0147470Y0152228D01*
X0147771Y0152401D01*
X0147470Y0152575D01*
X0147191Y0152854D01*
X0146993Y0153196D01*
X0146891Y0153578D01*
X0146891Y0154838D01*
X0151657Y0154838D01*
X0151783Y0154838D01*
X0151783Y0154964D01*
X0151657Y0154964D01*
X0151657Y0154838D01*
X0151657Y0149964D01*
X0151657Y0150812D02*
X0151783Y0150812D01*
X0151783Y0151811D02*
X0151657Y0151811D01*
X0151657Y0152809D02*
X0151783Y0152809D01*
X0151783Y0153808D02*
X0151657Y0153808D01*
X0151657Y0154806D02*
X0151783Y0154806D01*
X0151657Y0154964D02*
X0146891Y0154964D01*
X0146891Y0156225D01*
X0146993Y0156606D01*
X0147191Y0156948D01*
X0147470Y0157228D01*
X0147771Y0157401D01*
X0147470Y0157575D01*
X0147191Y0157854D01*
X0146993Y0158196D01*
X0146891Y0158578D01*
X0146891Y0159838D01*
X0151657Y0159838D01*
X0151783Y0159838D01*
X0151783Y0159964D01*
X0156549Y0159964D01*
X0156549Y0161225D01*
X0156446Y0161606D01*
X0156249Y0161948D01*
X0155970Y0162228D01*
X0155628Y0162425D01*
X0155246Y0162527D01*
X0151783Y0162527D01*
X0151783Y0159964D01*
X0151657Y0159964D01*
X0151657Y0159838D01*
X0151657Y0154964D01*
X0151657Y0155805D02*
X0151783Y0155805D01*
X0151783Y0156803D02*
X0151657Y0156803D01*
X0151657Y0157802D02*
X0151783Y0157802D01*
X0151783Y0158800D02*
X0151657Y0158800D01*
X0151657Y0159799D02*
X0151783Y0159799D01*
X0151657Y0159964D02*
X0146891Y0159964D01*
X0146891Y0161225D01*
X0146993Y0161606D01*
X0147191Y0161948D01*
X0147470Y0162228D01*
X0147812Y0162425D01*
X0148194Y0162527D01*
X0151657Y0162527D01*
X0151657Y0159964D01*
X0151657Y0160797D02*
X0151783Y0160797D01*
X0151783Y0161796D02*
X0151657Y0161796D01*
X0147816Y0162794D02*
X0118626Y0162794D01*
X0118686Y0162854D02*
X0118883Y0163196D01*
X0118986Y0163578D01*
X0118986Y0164838D01*
X0114220Y0164838D01*
X0114220Y0162275D01*
X0117683Y0162275D01*
X0118065Y0162378D01*
X0118407Y0162575D01*
X0118686Y0162854D01*
X0118986Y0163793D02*
X0147291Y0163793D01*
X0147291Y0164791D02*
X0118986Y0164791D01*
X0118986Y0164964D02*
X0118986Y0166225D01*
X0118883Y0166606D01*
X0118686Y0166948D01*
X0118407Y0167228D01*
X0118106Y0167401D01*
X0118407Y0167575D01*
X0118686Y0167854D01*
X0118883Y0168196D01*
X0118986Y0168578D01*
X0118986Y0169838D01*
X0114220Y0169838D01*
X0114220Y0164964D01*
X0118986Y0164964D01*
X0118986Y0165790D02*
X0147291Y0165790D01*
X0147597Y0166788D02*
X0118778Y0166788D01*
X0118619Y0167787D02*
X0128407Y0167787D01*
X0128454Y0167740D02*
X0129391Y0167351D01*
X0130406Y0167351D01*
X0131343Y0167740D01*
X0131955Y0168351D01*
X0147291Y0168351D01*
X0147291Y0168320D01*
X0147936Y0167675D01*
X0155504Y0167675D01*
X0156149Y0168320D01*
X0156149Y0171483D01*
X0155504Y0172127D01*
X0147936Y0172127D01*
X0147291Y0171483D01*
X0147291Y0171451D01*
X0131955Y0171451D01*
X0131343Y0172063D01*
X0130406Y0172451D01*
X0129391Y0172451D01*
X0128454Y0172063D01*
X0127737Y0171346D01*
X0127348Y0170409D01*
X0127348Y0169394D01*
X0127737Y0168457D01*
X0128454Y0167740D01*
X0127601Y0168785D02*
X0118986Y0168785D01*
X0118986Y0169784D02*
X0127348Y0169784D01*
X0127503Y0170783D02*
X0118986Y0170783D01*
X0118986Y0171225D02*
X0118883Y0171606D01*
X0118686Y0171948D01*
X0118407Y0172228D01*
X0118065Y0172425D01*
X0117683Y0172527D01*
X0114220Y0172527D01*
X0114220Y0169964D01*
X0118986Y0169964D01*
X0118986Y0171225D01*
X0118783Y0171781D02*
X0128172Y0171781D01*
X0131625Y0171781D02*
X0147589Y0171781D01*
X0148028Y0172780D02*
X0136457Y0172780D01*
X0134340Y0172780D02*
X0118046Y0172780D01*
X0117941Y0172675D02*
X0118586Y0173320D01*
X0118586Y0176483D01*
X0117941Y0177127D01*
X0115782Y0177127D01*
X0115782Y0177535D01*
X0116574Y0178327D01*
X0117482Y0179235D01*
X0117482Y0179457D01*
X0118553Y0179457D01*
X0119066Y0179970D01*
X0119259Y0179636D01*
X0119539Y0179357D01*
X0119881Y0179159D01*
X0120262Y0179057D01*
X0122141Y0179057D01*
X0122141Y0182041D01*
X0123109Y0182041D01*
X0123109Y0179057D01*
X0124988Y0179057D01*
X0125369Y0179159D01*
X0125711Y0179357D01*
X0125991Y0179636D01*
X0126188Y0179978D01*
X0126290Y0180359D01*
X0126290Y0182041D01*
X0123109Y0182041D01*
X0123109Y0183010D01*
X0122141Y0183010D01*
X0122141Y0185994D01*
X0120262Y0185994D01*
X0119881Y0185892D01*
X0119539Y0185694D01*
X0119259Y0185415D01*
X0119066Y0185081D01*
X0118553Y0185594D01*
X0113311Y0185594D01*
X0112667Y0184949D01*
X0112667Y0180101D01*
X0113311Y0179457D01*
X0113320Y0179457D01*
X0112682Y0178819D01*
X0112682Y0177127D01*
X0110373Y0177127D01*
X0109728Y0176483D01*
X0109728Y0173320D01*
X0110373Y0172675D01*
X0117941Y0172675D01*
X0118586Y0173778D02*
X0133186Y0173778D01*
X0132848Y0174777D02*
X0118586Y0174777D01*
X0118586Y0175775D02*
X0132917Y0175775D01*
X0133465Y0176774D02*
X0118295Y0176774D01*
X0117018Y0178771D02*
X0155379Y0178771D01*
X0156018Y0177772D02*
X0116019Y0177772D01*
X0112682Y0177772D02*
X0104096Y0177772D01*
X0103167Y0178701D02*
X0099190Y0178701D01*
X0096378Y0175890D01*
X0096378Y0171913D01*
X0099190Y0169101D01*
X0103167Y0169101D01*
X0105978Y0171913D01*
X0105978Y0175890D01*
X0103167Y0178701D01*
X0103105Y0179197D02*
X0104787Y0179197D01*
X0104787Y0182181D01*
X0101803Y0182181D01*
X0101803Y0180499D01*
X0101905Y0180118D01*
X0102102Y0179776D01*
X0102382Y0179497D01*
X0102724Y0179299D01*
X0103105Y0179197D01*
X0102109Y0179769D02*
X0100962Y0179769D01*
X0100790Y0179597D02*
X0101434Y0180241D01*
X0101434Y0185089D01*
X0100790Y0185734D01*
X0095942Y0185734D01*
X0095297Y0185089D01*
X0095297Y0184215D01*
X0095013Y0184215D01*
X0095013Y0185286D01*
X0094369Y0185931D01*
X0089521Y0185931D01*
X0088876Y0185286D01*
X0088876Y0180044D01*
X0089521Y0179400D01*
X0094369Y0179400D01*
X0095013Y0180044D01*
X0095013Y0181115D01*
X0095297Y0181115D01*
X0095297Y0180241D01*
X0095942Y0179597D01*
X0100790Y0179597D01*
X0101434Y0180768D02*
X0101803Y0180768D01*
X0101803Y0181766D02*
X0101434Y0181766D01*
X0101434Y0182765D02*
X0104787Y0182765D01*
X0105756Y0182765D02*
X0112667Y0182765D01*
X0112667Y0183763D02*
X0108740Y0183763D01*
X0108740Y0184762D02*
X0112667Y0184762D01*
X0112667Y0181766D02*
X0108740Y0181766D01*
X0108740Y0180768D02*
X0112667Y0180768D01*
X0112999Y0179769D02*
X0108433Y0179769D01*
X0105755Y0179769D02*
X0104787Y0179769D01*
X0104787Y0180768D02*
X0105755Y0180768D01*
X0105755Y0181766D02*
X0104787Y0181766D01*
X0101803Y0183763D02*
X0101434Y0183763D01*
X0101434Y0184762D02*
X0101803Y0184762D01*
X0102308Y0185760D02*
X0094540Y0185760D01*
X0095013Y0184762D02*
X0095297Y0184762D01*
X0095297Y0180768D02*
X0095013Y0180768D01*
X0094738Y0179769D02*
X0095769Y0179769D01*
X0093662Y0177772D02*
X0098261Y0177772D01*
X0097263Y0176774D02*
X0094660Y0176774D01*
X0095378Y0176055D02*
X0092332Y0179101D01*
X0090678Y0179101D01*
X0090678Y0174401D01*
X0089678Y0174401D01*
X0089678Y0173401D01*
X0084978Y0173401D01*
X0084978Y0171747D01*
X0088025Y0168701D01*
X0089678Y0168701D01*
X0089678Y0173401D01*
X0090678Y0173401D01*
X0090678Y0168701D01*
X0092332Y0168701D01*
X0095378Y0171747D01*
X0095378Y0173401D01*
X0090679Y0173401D01*
X0090679Y0174401D01*
X0095378Y0174401D01*
X0095378Y0176055D01*
X0095378Y0175775D02*
X0096378Y0175775D01*
X0096378Y0174777D02*
X0095378Y0174777D01*
X0096378Y0173778D02*
X0090679Y0173778D01*
X0090678Y0172780D02*
X0089678Y0172780D01*
X0089678Y0173778D02*
X0078678Y0173778D01*
X0078678Y0172780D02*
X0084978Y0172780D01*
X0084978Y0171781D02*
X0078678Y0171781D01*
X0078678Y0170783D02*
X0085943Y0170783D01*
X0086942Y0169784D02*
X0078678Y0169784D01*
X0078678Y0168785D02*
X0087940Y0168785D01*
X0088190Y0168701D02*
X0085378Y0165890D01*
X0085378Y0161913D01*
X0088190Y0159101D01*
X0092167Y0159101D01*
X0094978Y0161913D01*
X0094978Y0165890D01*
X0092167Y0168701D01*
X0088190Y0168701D01*
X0087276Y0167787D02*
X0078678Y0167787D01*
X0078678Y0166788D02*
X0086277Y0166788D01*
X0085378Y0165790D02*
X0078678Y0165790D01*
X0078678Y0164791D02*
X0085378Y0164791D01*
X0085378Y0163793D02*
X0078678Y0163793D01*
X0078678Y0162794D02*
X0085378Y0162794D01*
X0085496Y0161796D02*
X0078678Y0161796D01*
X0078678Y0160797D02*
X0086494Y0160797D01*
X0087493Y0159799D02*
X0078678Y0159799D01*
X0078678Y0158800D02*
X0109728Y0158800D01*
X0109728Y0158320D02*
X0110373Y0157675D01*
X0117941Y0157675D01*
X0118569Y0158303D01*
X0120812Y0158303D01*
X0121424Y0157692D01*
X0122361Y0157303D01*
X0123376Y0157303D01*
X0124313Y0157692D01*
X0125030Y0158409D01*
X0125418Y0159346D01*
X0125418Y0160361D01*
X0125030Y0161298D01*
X0124313Y0162015D01*
X0123376Y0162403D01*
X0122361Y0162403D01*
X0121424Y0162015D01*
X0120812Y0161403D01*
X0118586Y0161403D01*
X0118586Y0161483D01*
X0117941Y0162127D01*
X0110373Y0162127D01*
X0109728Y0161483D01*
X0109728Y0158320D01*
X0110246Y0157802D02*
X0104066Y0157802D01*
X0103167Y0158701D02*
X0099190Y0158701D01*
X0096378Y0155890D01*
X0096378Y0151913D01*
X0097840Y0150451D01*
X0094536Y0150451D01*
X0092477Y0148391D01*
X0092167Y0148701D01*
X0088190Y0148701D01*
X0085378Y0145890D01*
X0085378Y0141913D01*
X0088190Y0139101D01*
X0092167Y0139101D01*
X0094978Y0141913D01*
X0094978Y0145890D01*
X0094669Y0146199D01*
X0095820Y0147351D01*
X0097840Y0147351D01*
X0096378Y0145890D01*
X0096378Y0141913D01*
X0099190Y0139101D01*
X0103167Y0139101D01*
X0105760Y0141694D01*
X0105770Y0136098D01*
X0103167Y0138701D01*
X0099190Y0138701D01*
X0096378Y0135890D01*
X0096378Y0131913D01*
X0098388Y0129903D01*
X0096368Y0129903D01*
X0096147Y0130124D01*
X0095239Y0131032D01*
X0094669Y0131603D01*
X0094978Y0131913D01*
X0094978Y0135890D01*
X0092167Y0138701D01*
X0088190Y0138701D01*
X0085378Y0135890D01*
X0085378Y0131913D01*
X0088190Y0129101D01*
X0092024Y0129101D01*
X0091669Y0128746D01*
X0091669Y0126738D01*
X0090401Y0126738D01*
X0089757Y0126094D01*
X0089757Y0125937D01*
X0089194Y0126500D01*
X0088985Y0126500D01*
X0088985Y0127571D01*
X0088341Y0128215D01*
X0083492Y0128215D01*
X0082848Y0127571D01*
X0082848Y0122329D01*
X0083361Y0121816D01*
X0083027Y0121623D01*
X0082748Y0121343D01*
X0082550Y0121001D01*
X0082448Y0120620D01*
X0082448Y0118741D01*
X0085432Y0118741D01*
X0085432Y0117773D01*
X0082448Y0117773D01*
X0082448Y0115894D01*
X0082550Y0115513D01*
X0082748Y0115171D01*
X0083027Y0114891D01*
X0083369Y0114694D01*
X0083750Y0114592D01*
X0085432Y0114592D01*
X0085432Y0117773D01*
X0086401Y0117773D01*
X0086401Y0118741D01*
X0089385Y0118741D01*
X0089385Y0120225D01*
X0089586Y0120023D01*
X0089757Y0120023D01*
X0089757Y0117309D01*
X0090401Y0116664D01*
X0096037Y0116664D01*
X0096681Y0117309D01*
X0096681Y0126094D01*
X0096037Y0126738D01*
X0094769Y0126738D01*
X0094769Y0127119D01*
X0095084Y0126803D01*
X0105310Y0126803D01*
X0106218Y0127711D01*
X0108878Y0130371D01*
X0108878Y0130513D01*
X0108880Y0130514D01*
X0108878Y0131153D01*
X0108878Y0131795D01*
X0108877Y0131796D01*
X0108850Y0147260D01*
X0109819Y0148229D01*
X0110373Y0147675D01*
X0117941Y0147675D01*
X0118586Y0148320D01*
X0118586Y0151483D01*
X0117941Y0152127D01*
X0110373Y0152127D01*
X0109728Y0151483D01*
X0109728Y0151451D01*
X0108656Y0151451D01*
X0107748Y0150543D01*
X0106655Y0149450D01*
X0106654Y0149450D01*
X0106202Y0148997D01*
X0105748Y0148543D01*
X0105748Y0148542D01*
X0105747Y0148541D01*
X0105748Y0147902D01*
X0105748Y0147259D01*
X0105750Y0147258D01*
X0105752Y0146116D01*
X0104299Y0147569D01*
X0104988Y0148259D01*
X0109889Y0153159D01*
X0110373Y0152675D01*
X0117941Y0152675D01*
X0118586Y0153320D01*
X0118586Y0156483D01*
X0117941Y0157127D01*
X0110373Y0157127D01*
X0109728Y0156483D01*
X0109728Y0156451D01*
X0108796Y0156451D01*
X0105978Y0153633D01*
X0105978Y0155890D01*
X0103167Y0158701D01*
X0103167Y0159101D02*
X0105978Y0161913D01*
X0105978Y0165890D01*
X0103167Y0168701D01*
X0099190Y0168701D01*
X0096378Y0165890D01*
X0096378Y0161913D01*
X0099190Y0159101D01*
X0103167Y0159101D01*
X0103864Y0159799D02*
X0109728Y0159799D01*
X0109728Y0160797D02*
X0104863Y0160797D01*
X0105861Y0161796D02*
X0110041Y0161796D01*
X0110249Y0162378D02*
X0110631Y0162275D01*
X0114094Y0162275D01*
X0114094Y0164838D01*
X0114220Y0164838D01*
X0114220Y0164964D01*
X0114094Y0164964D01*
X0114094Y0164838D01*
X0109328Y0164838D01*
X0109328Y0163578D01*
X0109430Y0163196D01*
X0109628Y0162854D01*
X0109907Y0162575D01*
X0110249Y0162378D01*
X0109688Y0162794D02*
X0105978Y0162794D01*
X0105978Y0163793D02*
X0109328Y0163793D01*
X0109328Y0164791D02*
X0105978Y0164791D01*
X0105978Y0165790D02*
X0109328Y0165790D01*
X0109328Y0166225D02*
X0109328Y0164964D01*
X0114094Y0164964D01*
X0114094Y0167527D01*
X0114094Y0169838D01*
X0114220Y0169838D01*
X0114220Y0169964D01*
X0114094Y0169964D01*
X0114094Y0169838D01*
X0109328Y0169838D01*
X0109328Y0168578D01*
X0109430Y0168196D01*
X0109628Y0167854D01*
X0109907Y0167575D01*
X0110208Y0167401D01*
X0109907Y0167228D01*
X0109628Y0166948D01*
X0109430Y0166606D01*
X0109328Y0166225D01*
X0109536Y0166788D02*
X0105080Y0166788D01*
X0104081Y0167787D02*
X0109695Y0167787D01*
X0109328Y0168785D02*
X0092417Y0168785D01*
X0093081Y0167787D02*
X0098276Y0167787D01*
X0097277Y0166788D02*
X0094080Y0166788D01*
X0094978Y0165790D02*
X0096378Y0165790D01*
X0096378Y0164791D02*
X0094978Y0164791D01*
X0094978Y0163793D02*
X0096378Y0163793D01*
X0096378Y0162794D02*
X0094978Y0162794D01*
X0094861Y0161796D02*
X0096496Y0161796D01*
X0097494Y0160797D02*
X0093863Y0160797D01*
X0092864Y0159799D02*
X0098493Y0159799D01*
X0098291Y0157802D02*
X0093066Y0157802D01*
X0092167Y0158701D02*
X0088190Y0158701D01*
X0085378Y0155890D01*
X0085378Y0151913D01*
X0088190Y0149101D01*
X0092167Y0149101D01*
X0094978Y0151913D01*
X0094978Y0155890D01*
X0092167Y0158701D01*
X0094065Y0156803D02*
X0097292Y0156803D01*
X0096378Y0155805D02*
X0094978Y0155805D01*
X0094978Y0154806D02*
X0096378Y0154806D01*
X0096378Y0153808D02*
X0094978Y0153808D01*
X0094978Y0152809D02*
X0096378Y0152809D01*
X0096481Y0151811D02*
X0094876Y0151811D01*
X0093878Y0150812D02*
X0097479Y0150812D01*
X0093899Y0149814D02*
X0092879Y0149814D01*
X0092900Y0148815D02*
X0078678Y0148815D01*
X0078678Y0147817D02*
X0087306Y0147817D01*
X0086307Y0146818D02*
X0078678Y0146818D01*
X0078678Y0145820D02*
X0085378Y0145820D01*
X0085378Y0144821D02*
X0078678Y0144821D01*
X0078678Y0143823D02*
X0085378Y0143823D01*
X0085378Y0142824D02*
X0078678Y0142824D01*
X0078678Y0141826D02*
X0085466Y0141826D01*
X0086464Y0140827D02*
X0078678Y0140827D01*
X0078678Y0139829D02*
X0087463Y0139829D01*
X0087321Y0137832D02*
X0078678Y0137832D01*
X0078678Y0138830D02*
X0105765Y0138830D01*
X0105766Y0137832D02*
X0104036Y0137832D01*
X0105035Y0136833D02*
X0105768Y0136833D01*
X0105763Y0139829D02*
X0103894Y0139829D01*
X0104893Y0140827D02*
X0105761Y0140827D01*
X0108861Y0140827D02*
X0109728Y0140827D01*
X0109728Y0141483D02*
X0109728Y0138320D01*
X0110373Y0137675D01*
X0112607Y0137675D01*
X0112607Y0134201D01*
X0110487Y0134201D01*
X0109842Y0133557D01*
X0109842Y0128682D01*
X0107899Y0126738D01*
X0103000Y0126738D01*
X0102355Y0126094D01*
X0102355Y0117309D01*
X0103000Y0116664D01*
X0108636Y0116664D01*
X0109280Y0117309D01*
X0109280Y0123735D01*
X0112034Y0126490D01*
X0116910Y0126490D01*
X0117554Y0127134D01*
X0117554Y0133557D01*
X0116910Y0134201D01*
X0115707Y0134201D01*
X0115707Y0137675D01*
X0117941Y0137675D01*
X0118586Y0138320D01*
X0118586Y0141483D01*
X0117941Y0142127D01*
X0110373Y0142127D01*
X0109728Y0141483D01*
X0110071Y0141826D02*
X0108859Y0141826D01*
X0108858Y0142824D02*
X0109658Y0142824D01*
X0109628Y0142854D02*
X0109907Y0142575D01*
X0110249Y0142378D01*
X0110631Y0142275D01*
X0114094Y0142275D01*
X0114094Y0144838D01*
X0114220Y0144838D01*
X0114220Y0142275D01*
X0117683Y0142275D01*
X0118065Y0142378D01*
X0118407Y0142575D01*
X0118686Y0142854D01*
X0118883Y0143196D01*
X0118986Y0143578D01*
X0118986Y0144838D01*
X0114220Y0144838D01*
X0114220Y0144964D01*
X0118986Y0144964D01*
X0118986Y0146225D01*
X0118883Y0146606D01*
X0118686Y0146948D01*
X0118407Y0147228D01*
X0118065Y0147425D01*
X0117683Y0147527D01*
X0114220Y0147527D01*
X0114220Y0144964D01*
X0114094Y0144964D01*
X0114094Y0144838D01*
X0109328Y0144838D01*
X0109328Y0143578D01*
X0109430Y0143196D01*
X0109628Y0142854D01*
X0109328Y0143823D02*
X0108856Y0143823D01*
X0108854Y0144821D02*
X0109328Y0144821D01*
X0109328Y0144964D02*
X0114094Y0144964D01*
X0114094Y0147527D01*
X0110631Y0147527D01*
X0110249Y0147425D01*
X0109907Y0147228D01*
X0109628Y0146948D01*
X0109430Y0146606D01*
X0109328Y0146225D01*
X0109328Y0144964D01*
X0109328Y0145820D02*
X0108852Y0145820D01*
X0108850Y0146818D02*
X0109553Y0146818D01*
X0109406Y0147817D02*
X0110231Y0147817D01*
X0107748Y0150543D02*
X0107748Y0150543D01*
X0107541Y0150812D02*
X0108017Y0150812D01*
X0108540Y0151811D02*
X0110056Y0151811D01*
X0110239Y0152809D02*
X0109538Y0152809D01*
X0107151Y0154806D02*
X0105978Y0154806D01*
X0105978Y0153808D02*
X0106153Y0153808D01*
X0105978Y0155805D02*
X0108150Y0155805D01*
X0110049Y0156803D02*
X0105065Y0156803D01*
X0118068Y0157802D02*
X0121314Y0157802D01*
X0124423Y0157802D02*
X0147243Y0157802D01*
X0147107Y0156803D02*
X0118265Y0156803D01*
X0118586Y0155805D02*
X0146891Y0155805D01*
X0146891Y0154806D02*
X0118586Y0154806D01*
X0118586Y0153808D02*
X0146891Y0153808D01*
X0147236Y0152809D02*
X0118075Y0152809D01*
X0118258Y0151811D02*
X0147112Y0151811D01*
X0146891Y0150812D02*
X0118586Y0150812D01*
X0118586Y0149814D02*
X0146891Y0149814D01*
X0146891Y0148815D02*
X0118586Y0148815D01*
X0118083Y0147817D02*
X0147228Y0147817D01*
X0147116Y0146818D02*
X0118761Y0146818D01*
X0118986Y0145820D02*
X0146891Y0145820D01*
X0146891Y0144821D02*
X0118986Y0144821D01*
X0118986Y0143823D02*
X0146891Y0143823D01*
X0147221Y0142824D02*
X0118656Y0142824D01*
X0118243Y0141826D02*
X0147634Y0141826D01*
X0147291Y0140827D02*
X0118586Y0140827D01*
X0118586Y0139829D02*
X0146712Y0139829D01*
X0145713Y0138830D02*
X0118586Y0138830D01*
X0118098Y0137832D02*
X0144715Y0137832D01*
X0143716Y0136833D02*
X0115707Y0136833D01*
X0115707Y0135835D02*
X0143319Y0135835D01*
X0143319Y0134836D02*
X0115707Y0134836D01*
X0117274Y0133838D02*
X0125083Y0133838D01*
X0124803Y0132839D02*
X0117554Y0132839D01*
X0117554Y0131841D02*
X0124803Y0131841D01*
X0124803Y0130842D02*
X0117554Y0130842D01*
X0117554Y0129844D02*
X0124803Y0129844D01*
X0124803Y0128845D02*
X0117554Y0128845D01*
X0117554Y0127847D02*
X0124803Y0127847D01*
X0125089Y0126848D02*
X0117268Y0126848D01*
X0111394Y0125850D02*
X0171373Y0125850D01*
X0172082Y0126558D02*
X0169874Y0124350D01*
X0168678Y0121465D01*
X0168678Y0118342D01*
X0169874Y0115457D01*
X0172082Y0113248D01*
X0174967Y0112053D01*
X0178090Y0112053D01*
X0180975Y0113248D01*
X0183183Y0115457D01*
X0184378Y0118342D01*
X0184378Y0121465D01*
X0183183Y0124350D01*
X0180975Y0126558D01*
X0178090Y0127753D01*
X0174967Y0127753D01*
X0172082Y0126558D01*
X0172781Y0126848D02*
X0166243Y0126848D01*
X0166139Y0126805D02*
X0167267Y0127272D01*
X0168130Y0128135D01*
X0168597Y0129263D01*
X0168597Y0130484D01*
X0168130Y0131611D01*
X0167267Y0132475D01*
X0166139Y0132942D01*
X0164918Y0132942D01*
X0163790Y0132475D01*
X0162927Y0131611D01*
X0162460Y0130484D01*
X0162460Y0129263D01*
X0162927Y0128135D01*
X0163790Y0127272D01*
X0164918Y0126805D01*
X0166139Y0126805D01*
X0164814Y0126848D02*
X0132229Y0126848D01*
X0132515Y0127847D02*
X0141650Y0127847D01*
X0151078Y0127847D02*
X0152046Y0127847D01*
X0152046Y0128845D02*
X0151078Y0128845D01*
X0152046Y0129844D02*
X0162460Y0129844D01*
X0162608Y0130842D02*
X0155227Y0130842D01*
X0155227Y0130802D02*
X0155227Y0132483D01*
X0155125Y0132865D01*
X0154927Y0133207D01*
X0154648Y0133486D01*
X0154306Y0133684D01*
X0153925Y0133786D01*
X0152046Y0133786D01*
X0152046Y0130802D01*
X0155227Y0130802D01*
X0155227Y0131841D02*
X0163156Y0131841D01*
X0164670Y0132839D02*
X0155132Y0132839D01*
X0152046Y0132839D02*
X0151078Y0132839D01*
X0151078Y0131841D02*
X0152046Y0131841D01*
X0152046Y0130842D02*
X0151078Y0130842D01*
X0155227Y0128845D02*
X0162633Y0128845D01*
X0163216Y0127847D02*
X0155145Y0127847D01*
X0167841Y0127847D02*
X0184528Y0127847D01*
X0184528Y0128845D02*
X0168424Y0128845D01*
X0168597Y0129844D02*
X0184528Y0129844D01*
X0184528Y0130842D02*
X0168449Y0130842D01*
X0167901Y0131841D02*
X0184528Y0131841D01*
X0184528Y0132839D02*
X0166387Y0132839D01*
X0167672Y0139829D02*
X0184528Y0139829D01*
X0184528Y0140827D02*
X0168671Y0140827D01*
X0169205Y0141826D02*
X0184528Y0141826D01*
X0184528Y0142824D02*
X0169608Y0142824D01*
X0169608Y0143823D02*
X0184528Y0143823D01*
X0184528Y0144821D02*
X0169562Y0144821D01*
X0169148Y0145820D02*
X0184528Y0145820D01*
X0184528Y0146818D02*
X0168532Y0146818D01*
X0167533Y0147817D02*
X0184528Y0147817D01*
X0184528Y0148815D02*
X0156549Y0148815D01*
X0167657Y0149814D02*
X0171980Y0149814D01*
X0172169Y0149624D02*
X0173934Y0148893D01*
X0175843Y0148893D01*
X0177607Y0149624D01*
X0178958Y0150974D01*
X0179688Y0152739D01*
X0179688Y0154648D01*
X0178958Y0156412D01*
X0177607Y0157763D01*
X0175843Y0158493D01*
X0173934Y0158493D01*
X0172169Y0157763D01*
X0170819Y0156412D01*
X0170088Y0154648D01*
X0170088Y0152739D01*
X0170819Y0150974D01*
X0172169Y0149624D01*
X0170981Y0150812D02*
X0168656Y0150812D01*
X0169199Y0151811D02*
X0170473Y0151811D01*
X0170088Y0152809D02*
X0169608Y0152809D01*
X0169608Y0153808D02*
X0170088Y0153808D01*
X0170154Y0154806D02*
X0169568Y0154806D01*
X0169154Y0155805D02*
X0170568Y0155805D01*
X0171210Y0156803D02*
X0168547Y0156803D01*
X0167548Y0157802D02*
X0172264Y0157802D01*
X0177513Y0157802D02*
X0184528Y0157802D01*
X0184528Y0156803D02*
X0178567Y0156803D01*
X0179209Y0155805D02*
X0184528Y0155805D01*
X0184528Y0154806D02*
X0179623Y0154806D01*
X0179688Y0153808D02*
X0184528Y0153808D01*
X0184528Y0152809D02*
X0179688Y0152809D01*
X0179304Y0151811D02*
X0184528Y0151811D01*
X0184528Y0150812D02*
X0178796Y0150812D01*
X0177797Y0149814D02*
X0184528Y0149814D01*
X0161975Y0159799D02*
X0156549Y0159799D01*
X0156549Y0160797D02*
X0160976Y0160797D01*
X0160424Y0161796D02*
X0156337Y0161796D01*
X0155623Y0162794D02*
X0160010Y0162794D01*
X0160008Y0163793D02*
X0158820Y0163793D01*
X0159819Y0164791D02*
X0160043Y0164791D01*
X0157432Y0166788D02*
X0155843Y0166788D01*
X0155616Y0167787D02*
X0158430Y0167787D01*
X0158708Y0168785D02*
X0156149Y0168785D01*
X0156149Y0169784D02*
X0158644Y0169784D01*
X0158049Y0170783D02*
X0156149Y0170783D01*
X0155851Y0171781D02*
X0158049Y0171781D01*
X0158049Y0172780D02*
X0155805Y0172780D01*
X0156346Y0173778D02*
X0158049Y0173778D01*
X0158049Y0174777D02*
X0156346Y0174777D01*
X0156346Y0175775D02*
X0156960Y0175775D01*
X0156222Y0176774D02*
X0156055Y0176774D01*
X0144687Y0179769D02*
X0143840Y0179769D01*
X0143983Y0180768D02*
X0144347Y0180768D01*
X0131297Y0179769D02*
X0126068Y0179769D01*
X0126290Y0180768D02*
X0131154Y0180768D01*
X0131154Y0181766D02*
X0126290Y0181766D01*
X0126290Y0183010D02*
X0126290Y0184691D01*
X0126188Y0185073D01*
X0125991Y0185415D01*
X0125711Y0185694D01*
X0125369Y0185892D01*
X0124988Y0185994D01*
X0123109Y0185994D01*
X0123109Y0183010D01*
X0126290Y0183010D01*
X0126290Y0183763D02*
X0131154Y0183763D01*
X0131154Y0182765D02*
X0123109Y0182765D01*
X0123109Y0183763D02*
X0122141Y0183763D01*
X0122141Y0184762D02*
X0123109Y0184762D01*
X0123109Y0185760D02*
X0122141Y0185760D01*
X0119653Y0185760D02*
X0108235Y0185760D01*
X0112682Y0178771D02*
X0092663Y0178771D01*
X0090678Y0178771D02*
X0089678Y0178771D01*
X0089678Y0179101D02*
X0088025Y0179101D01*
X0084978Y0176055D01*
X0084978Y0174401D01*
X0089678Y0174401D01*
X0089678Y0179101D01*
X0089152Y0179769D02*
X0088045Y0179769D01*
X0088320Y0180768D02*
X0088876Y0180768D01*
X0088876Y0181766D02*
X0088320Y0181766D01*
X0088320Y0182765D02*
X0088876Y0182765D01*
X0088876Y0183763D02*
X0088320Y0183763D01*
X0088320Y0184762D02*
X0088876Y0184762D01*
X0089350Y0185760D02*
X0087847Y0185760D01*
X0084880Y0187757D02*
X0078678Y0187757D01*
X0078678Y0186759D02*
X0083882Y0186759D01*
X0082657Y0185760D02*
X0078678Y0185760D01*
X0078678Y0184762D02*
X0082184Y0184762D01*
X0082184Y0183763D02*
X0078678Y0183763D01*
X0078678Y0182765D02*
X0082184Y0182765D01*
X0082184Y0181766D02*
X0078678Y0181766D01*
X0078678Y0180768D02*
X0082184Y0180768D01*
X0080518Y0179769D02*
X0078678Y0179769D01*
X0078678Y0178771D02*
X0080027Y0178771D01*
X0079998Y0177772D02*
X0078678Y0177772D01*
X0078678Y0176774D02*
X0080376Y0176774D01*
X0081723Y0175775D02*
X0078678Y0175775D01*
X0078678Y0174777D02*
X0084978Y0174777D01*
X0084978Y0175775D02*
X0083374Y0175775D01*
X0084720Y0176774D02*
X0085697Y0176774D01*
X0085098Y0177772D02*
X0086695Y0177772D01*
X0087694Y0178771D02*
X0085318Y0178771D01*
X0089678Y0177772D02*
X0090678Y0177772D01*
X0090678Y0176774D02*
X0089678Y0176774D01*
X0089678Y0175775D02*
X0090678Y0175775D01*
X0090678Y0174777D02*
X0089678Y0174777D01*
X0089678Y0171781D02*
X0090678Y0171781D01*
X0090678Y0170783D02*
X0089678Y0170783D01*
X0089678Y0169784D02*
X0090678Y0169784D01*
X0090678Y0168785D02*
X0089678Y0168785D01*
X0093415Y0169784D02*
X0098508Y0169784D01*
X0097509Y0170783D02*
X0094414Y0170783D01*
X0095378Y0171781D02*
X0096511Y0171781D01*
X0096378Y0172780D02*
X0095378Y0172780D01*
X0103849Y0169784D02*
X0109328Y0169784D01*
X0109328Y0169964D02*
X0114094Y0169964D01*
X0114094Y0172527D01*
X0110631Y0172527D01*
X0110249Y0172425D01*
X0109907Y0172228D01*
X0109628Y0171948D01*
X0109430Y0171606D01*
X0109328Y0171225D01*
X0109328Y0169964D01*
X0109328Y0170783D02*
X0104848Y0170783D01*
X0105846Y0171781D02*
X0109531Y0171781D01*
X0110268Y0172780D02*
X0105978Y0172780D01*
X0105978Y0173778D02*
X0109728Y0173778D01*
X0109728Y0174777D02*
X0105978Y0174777D01*
X0105978Y0175775D02*
X0109728Y0175775D01*
X0110019Y0176774D02*
X0105094Y0176774D01*
X0118865Y0179769D02*
X0119182Y0179769D01*
X0122141Y0179769D02*
X0123109Y0179769D01*
X0123109Y0180768D02*
X0122141Y0180768D01*
X0122141Y0181766D02*
X0123109Y0181766D01*
X0126271Y0184762D02*
X0131154Y0184762D01*
X0131759Y0185760D02*
X0125597Y0185760D01*
X0114220Y0171781D02*
X0114094Y0171781D01*
X0114094Y0170783D02*
X0114220Y0170783D01*
X0114220Y0169784D02*
X0114094Y0169784D01*
X0114094Y0168785D02*
X0114220Y0168785D01*
X0114220Y0167787D02*
X0114094Y0167787D01*
X0114094Y0166788D02*
X0114220Y0166788D01*
X0114220Y0165790D02*
X0114094Y0165790D01*
X0114094Y0164791D02*
X0114220Y0164791D01*
X0114220Y0163793D02*
X0114094Y0163793D01*
X0114094Y0162794D02*
X0114220Y0162794D01*
X0118273Y0161796D02*
X0121205Y0161796D01*
X0124532Y0161796D02*
X0147103Y0161796D01*
X0146891Y0160797D02*
X0125238Y0160797D01*
X0125418Y0159799D02*
X0146891Y0159799D01*
X0146891Y0158800D02*
X0125192Y0158800D01*
X0131390Y0167787D02*
X0147824Y0167787D01*
X0179807Y0182765D02*
X0184528Y0182765D01*
X0184528Y0183763D02*
X0181490Y0183763D01*
X0182488Y0184762D02*
X0184528Y0184762D01*
X0184528Y0185760D02*
X0183309Y0185760D01*
X0183723Y0186759D02*
X0184528Y0186759D01*
X0184528Y0187757D02*
X0184136Y0187757D01*
X0184378Y0188756D02*
X0184528Y0188756D01*
X0184528Y0189754D02*
X0184378Y0189754D01*
X0184378Y0190753D02*
X0184528Y0190753D01*
X0184528Y0191751D02*
X0184260Y0191751D01*
X0184528Y0192750D02*
X0183846Y0192750D01*
X0183433Y0193748D02*
X0184528Y0193748D01*
X0184528Y0194747D02*
X0182787Y0194747D01*
X0181788Y0195745D02*
X0184528Y0195745D01*
X0184528Y0196744D02*
X0180527Y0196744D01*
X0178116Y0197742D02*
X0184528Y0197742D01*
X0080810Y0190753D02*
X0078678Y0190753D01*
X0078678Y0191751D02*
X0080172Y0191751D01*
X0079960Y0192750D02*
X0078678Y0192750D01*
X0078678Y0193748D02*
X0080070Y0193748D01*
X0080562Y0194747D02*
X0078678Y0194747D01*
X0078678Y0157802D02*
X0087291Y0157802D01*
X0086292Y0156803D02*
X0078678Y0156803D01*
X0078678Y0155805D02*
X0085378Y0155805D01*
X0085378Y0154806D02*
X0078678Y0154806D01*
X0078678Y0153808D02*
X0085378Y0153808D01*
X0085378Y0152809D02*
X0078678Y0152809D01*
X0078678Y0151811D02*
X0085481Y0151811D01*
X0086479Y0150812D02*
X0078678Y0150812D01*
X0078678Y0149814D02*
X0087478Y0149814D01*
X0095287Y0146818D02*
X0097307Y0146818D01*
X0096378Y0145820D02*
X0094978Y0145820D01*
X0094978Y0144821D02*
X0096378Y0144821D01*
X0096378Y0143823D02*
X0094978Y0143823D01*
X0094978Y0142824D02*
X0096378Y0142824D01*
X0096466Y0141826D02*
X0094891Y0141826D01*
X0093893Y0140827D02*
X0097464Y0140827D01*
X0098463Y0139829D02*
X0092894Y0139829D01*
X0093036Y0137832D02*
X0098321Y0137832D01*
X0097322Y0136833D02*
X0094035Y0136833D01*
X0094978Y0135835D02*
X0096378Y0135835D01*
X0096378Y0134836D02*
X0094978Y0134836D01*
X0094978Y0133838D02*
X0096378Y0133838D01*
X0096378Y0132839D02*
X0094978Y0132839D01*
X0094906Y0131841D02*
X0096451Y0131841D01*
X0097449Y0130842D02*
X0095430Y0130842D01*
X0095239Y0131032D02*
X0095239Y0131032D01*
X0091768Y0128845D02*
X0078678Y0128845D01*
X0078678Y0127847D02*
X0083124Y0127847D01*
X0082848Y0126848D02*
X0078678Y0126848D01*
X0078678Y0125850D02*
X0082848Y0125850D01*
X0082848Y0124851D02*
X0078678Y0124851D01*
X0078678Y0123852D02*
X0082848Y0123852D01*
X0082848Y0122854D02*
X0078678Y0122854D01*
X0078678Y0121855D02*
X0083321Y0121855D01*
X0082512Y0120857D02*
X0078678Y0120857D01*
X0078678Y0119858D02*
X0082448Y0119858D01*
X0082448Y0118860D02*
X0078678Y0118860D01*
X0078678Y0117861D02*
X0085432Y0117861D01*
X0086401Y0117861D02*
X0089757Y0117861D01*
X0089385Y0117773D02*
X0086401Y0117773D01*
X0086401Y0114592D01*
X0088082Y0114592D01*
X0088464Y0114694D01*
X0088806Y0114891D01*
X0089085Y0115171D01*
X0089283Y0115513D01*
X0089385Y0115894D01*
X0089385Y0117773D01*
X0089385Y0116863D02*
X0090203Y0116863D01*
X0089377Y0115864D02*
X0169705Y0115864D01*
X0169291Y0116863D02*
X0108834Y0116863D01*
X0109280Y0117861D02*
X0168877Y0117861D01*
X0168678Y0118860D02*
X0109280Y0118860D01*
X0109280Y0119858D02*
X0168678Y0119858D01*
X0168678Y0120857D02*
X0109280Y0120857D01*
X0109280Y0121855D02*
X0168840Y0121855D01*
X0169254Y0122854D02*
X0109280Y0122854D01*
X0109397Y0123852D02*
X0169667Y0123852D01*
X0170375Y0124851D02*
X0110396Y0124851D01*
X0108009Y0126848D02*
X0105355Y0126848D01*
X0106354Y0127847D02*
X0109007Y0127847D01*
X0109842Y0128845D02*
X0107352Y0128845D01*
X0108351Y0129844D02*
X0109842Y0129844D01*
X0109842Y0130842D02*
X0108879Y0130842D01*
X0108877Y0131841D02*
X0109842Y0131841D01*
X0109842Y0132839D02*
X0108875Y0132839D01*
X0108874Y0133838D02*
X0110123Y0133838D01*
X0108872Y0134836D02*
X0112607Y0134836D01*
X0112607Y0135835D02*
X0108870Y0135835D01*
X0108868Y0136833D02*
X0112607Y0136833D01*
X0110216Y0137832D02*
X0108866Y0137832D01*
X0108865Y0138830D02*
X0109728Y0138830D01*
X0109728Y0139829D02*
X0108863Y0139829D01*
X0114094Y0142824D02*
X0114220Y0142824D01*
X0114220Y0143823D02*
X0114094Y0143823D01*
X0114094Y0144821D02*
X0114220Y0144821D01*
X0114220Y0145820D02*
X0114094Y0145820D01*
X0114094Y0146818D02*
X0114220Y0146818D01*
X0107019Y0149814D02*
X0106543Y0149814D01*
X0106020Y0148815D02*
X0105544Y0148815D01*
X0105748Y0147817D02*
X0104546Y0147817D01*
X0105050Y0146818D02*
X0105750Y0146818D01*
X0086322Y0136833D02*
X0078678Y0136833D01*
X0078678Y0135835D02*
X0085378Y0135835D01*
X0085378Y0134836D02*
X0078678Y0134836D01*
X0078678Y0133838D02*
X0085378Y0133838D01*
X0085378Y0132839D02*
X0078678Y0132839D01*
X0078678Y0131841D02*
X0085451Y0131841D01*
X0086449Y0130842D02*
X0078678Y0130842D01*
X0078678Y0129844D02*
X0087448Y0129844D01*
X0088709Y0127847D02*
X0091669Y0127847D01*
X0091669Y0126848D02*
X0088985Y0126848D01*
X0094769Y0126848D02*
X0095040Y0126848D01*
X0096681Y0125850D02*
X0102355Y0125850D01*
X0102355Y0124851D02*
X0096681Y0124851D01*
X0096681Y0123852D02*
X0102355Y0123852D01*
X0102355Y0122854D02*
X0096681Y0122854D01*
X0096681Y0121855D02*
X0102355Y0121855D01*
X0102355Y0120857D02*
X0096681Y0120857D01*
X0096681Y0119858D02*
X0102355Y0119858D01*
X0102355Y0118860D02*
X0096681Y0118860D01*
X0096681Y0117861D02*
X0102355Y0117861D01*
X0102801Y0116863D02*
X0096236Y0116863D01*
X0089757Y0118860D02*
X0089385Y0118860D01*
X0089385Y0119858D02*
X0089757Y0119858D01*
X0086401Y0116863D02*
X0085432Y0116863D01*
X0085432Y0115864D02*
X0086401Y0115864D01*
X0086401Y0114866D02*
X0085432Y0114866D01*
X0083071Y0114866D02*
X0078678Y0114866D01*
X0078678Y0115864D02*
X0082456Y0115864D01*
X0082448Y0116863D02*
X0078678Y0116863D01*
X0078678Y0113867D02*
X0171463Y0113867D01*
X0170464Y0114866D02*
X0088762Y0114866D01*
X0078678Y0112869D02*
X0172998Y0112869D01*
X0180059Y0112869D02*
X0184528Y0112869D01*
X0184528Y0113867D02*
X0181594Y0113867D01*
X0182593Y0114866D02*
X0184528Y0114866D01*
X0184528Y0115864D02*
X0183352Y0115864D01*
X0183766Y0116863D02*
X0184528Y0116863D01*
X0184528Y0117861D02*
X0184179Y0117861D01*
X0184378Y0118860D02*
X0184528Y0118860D01*
X0184528Y0119858D02*
X0184378Y0119858D01*
X0184378Y0120857D02*
X0184528Y0120857D01*
X0184528Y0121855D02*
X0184217Y0121855D01*
X0184528Y0122854D02*
X0183803Y0122854D01*
X0183389Y0123852D02*
X0184528Y0123852D01*
X0184528Y0124851D02*
X0182682Y0124851D01*
X0181684Y0125850D02*
X0184528Y0125850D01*
X0184528Y0126848D02*
X0180276Y0126848D01*
X0184528Y0133838D02*
X0146419Y0133838D01*
X0146419Y0134836D02*
X0184528Y0134836D01*
X0184528Y0135835D02*
X0147102Y0135835D01*
X0148100Y0136833D02*
X0184528Y0136833D01*
X0143319Y0133838D02*
X0132234Y0133838D01*
X0132515Y0132839D02*
X0141701Y0132839D01*
D20*
X0144841Y0130346D02*
X0128659Y0130346D01*
X0144841Y0130346D02*
X0144869Y0130317D01*
X0144869Y0135794D01*
X0144988Y0135913D01*
X0145408Y0136333D01*
X0148976Y0139901D01*
X0151720Y0139901D01*
X0114157Y0139901D02*
X0114157Y0130804D01*
X0113698Y0130346D01*
X0105818Y0122465D01*
X0105818Y0121701D01*
X0104668Y0128353D02*
X0095726Y0128353D01*
X0094597Y0129482D01*
X0093219Y0128104D01*
X0093219Y0121701D01*
X0093091Y0121573D01*
X0090228Y0121573D01*
X0089428Y0122373D01*
X0089428Y0124073D01*
X0088552Y0124950D01*
X0085916Y0124950D01*
X0094597Y0129482D02*
X0090178Y0133901D01*
X0104668Y0128353D02*
X0107328Y0131013D01*
X0107328Y0131153D01*
X0107298Y0147901D01*
X0109298Y0149901D01*
X0114157Y0149901D01*
X0109438Y0154901D02*
X0103438Y0148901D01*
X0095178Y0148901D01*
X0090178Y0143901D01*
X0109438Y0154901D02*
X0114157Y0154901D01*
X0114205Y0159853D02*
X0114157Y0159901D01*
X0114205Y0159853D02*
X0122868Y0159853D01*
X0151720Y0164901D02*
X0157736Y0164901D01*
X0160258Y0167423D01*
X0160258Y0171248D01*
X0161314Y0172803D01*
X0151917Y0174901D02*
X0151717Y0175101D01*
X0135398Y0175101D01*
X0134222Y0182533D02*
X0134222Y0185880D01*
X0132528Y0187573D01*
X0086888Y0187573D01*
X0085252Y0185937D01*
X0085252Y0182665D01*
X0085252Y0180897D01*
X0082548Y0178193D01*
X0091945Y0182665D02*
X0098366Y0182665D01*
X0098366Y0182665D01*
X0114232Y0178177D02*
X0114232Y0174976D01*
X0114157Y0174901D01*
X0114232Y0178177D02*
X0115932Y0179877D01*
X0115932Y0182525D01*
X0140915Y0182533D02*
X0147416Y0182533D01*
X0147416Y0182533D01*
X0154321Y0182533D02*
X0154321Y0182021D01*
X0158568Y0177773D01*
X0151720Y0169901D02*
X0129898Y0169901D01*
D21*
X0129898Y0169901D03*
X0135398Y0175101D03*
X0158568Y0177773D03*
X0122868Y0159853D03*
X0082548Y0178193D03*
D22*
X0176528Y0189903D03*
X0176528Y0119903D03*
M02*
