G75*
%MOIN*%
%OFA0B0*%
%FSLAX25Y25*%
%IPPOS*%
%LPD*%
%AMOC8*
5,1,8,0,0,1.08239X$1,22.5*
%
%ADD10C,0.00000*%
%ADD11C,0.00500*%
%ADD12C,0.00800*%
D10*
X0076678Y0109903D02*
X0076678Y0199903D01*
X0186528Y0199903D01*
X0186528Y0109903D01*
X0076678Y0109903D01*
D11*
X0081226Y0115223D02*
X0081810Y0115807D01*
X0081810Y0118142D01*
X0082394Y0117559D02*
X0081226Y0117559D01*
X0083742Y0117559D02*
X0085493Y0117559D01*
X0086077Y0116975D01*
X0085493Y0116391D01*
X0084326Y0116391D01*
X0083742Y0115807D01*
X0084326Y0115223D01*
X0086077Y0115223D01*
X0087395Y0117559D02*
X0087979Y0117559D01*
X0089146Y0116391D01*
X0089146Y0115223D02*
X0089146Y0117559D01*
X0091018Y0117559D02*
X0091018Y0115223D01*
X0091602Y0115223D02*
X0090434Y0115223D01*
X0091018Y0117559D02*
X0091602Y0117559D01*
X0091018Y0118726D02*
X0091018Y0119310D01*
X0092890Y0118726D02*
X0093473Y0118142D01*
X0093473Y0115223D01*
X0094057Y0116975D02*
X0092890Y0116975D01*
X0095405Y0118726D02*
X0097740Y0115223D01*
X0099088Y0115223D02*
X0099088Y0116975D01*
X0099672Y0117559D01*
X0100256Y0116975D01*
X0100256Y0115223D01*
X0101423Y0115223D02*
X0101423Y0117559D01*
X0100840Y0117559D01*
X0100256Y0116975D01*
X0102771Y0116975D02*
X0103355Y0117559D01*
X0104523Y0117559D01*
X0105107Y0116975D01*
X0105107Y0115807D01*
X0104523Y0115223D01*
X0103355Y0115223D01*
X0102771Y0115807D01*
X0102771Y0116975D01*
X0106454Y0117559D02*
X0108206Y0117559D01*
X0108790Y0116975D01*
X0108790Y0115807D01*
X0108206Y0115223D01*
X0106454Y0115223D01*
X0110047Y0115223D02*
X0110631Y0115223D01*
X0110631Y0115807D01*
X0110047Y0115807D01*
X0110047Y0115223D01*
X0111979Y0115223D02*
X0113731Y0115223D01*
X0114314Y0115807D01*
X0114314Y0116975D01*
X0113731Y0117559D01*
X0111979Y0117559D01*
X0111979Y0114640D01*
X0112563Y0114056D01*
X0113147Y0114056D01*
X0115662Y0115807D02*
X0115662Y0116975D01*
X0116246Y0117559D01*
X0117414Y0117559D01*
X0117998Y0116975D01*
X0117998Y0115807D01*
X0117414Y0115223D01*
X0116246Y0115223D01*
X0115662Y0115807D01*
X0119285Y0115223D02*
X0120453Y0115223D01*
X0119869Y0115223D02*
X0119869Y0118726D01*
X0120453Y0118726D01*
X0121801Y0116975D02*
X0122385Y0117559D01*
X0123552Y0117559D01*
X0123552Y0116391D02*
X0121801Y0116391D01*
X0121801Y0116975D02*
X0121801Y0115223D01*
X0123552Y0115223D01*
X0124136Y0115807D01*
X0123552Y0116391D01*
X0125484Y0116975D02*
X0125484Y0115223D01*
X0125484Y0116975D02*
X0126068Y0117559D01*
X0127819Y0117559D01*
X0127819Y0115223D01*
X0129167Y0115223D02*
X0130919Y0115223D01*
X0131502Y0115807D01*
X0130919Y0116391D01*
X0129167Y0116391D01*
X0129167Y0116975D02*
X0129167Y0115223D01*
X0129167Y0116975D02*
X0129751Y0117559D01*
X0130919Y0117559D01*
X0132760Y0115807D02*
X0132760Y0115223D01*
X0133344Y0115223D01*
X0133344Y0115807D01*
X0132760Y0115807D01*
X0134692Y0115807D02*
X0134692Y0117559D01*
X0134692Y0115807D02*
X0135276Y0115223D01*
X0135860Y0115807D01*
X0136443Y0115223D01*
X0137027Y0115807D01*
X0137027Y0117559D01*
X0138375Y0117559D02*
X0138375Y0115807D01*
X0138959Y0115223D01*
X0139543Y0115807D01*
X0140127Y0115223D01*
X0140710Y0115807D01*
X0140710Y0117559D01*
X0142058Y0117559D02*
X0142058Y0115807D01*
X0142642Y0115223D01*
X0143226Y0115807D01*
X0143810Y0115223D01*
X0144393Y0115807D01*
X0144393Y0117559D01*
X0145741Y0118726D02*
X0148077Y0115223D01*
X0151760Y0115223D02*
X0149424Y0118726D01*
X0153018Y0117559D02*
X0153018Y0116975D01*
X0153601Y0116975D01*
X0153601Y0117559D01*
X0153018Y0117559D01*
X0153018Y0115807D02*
X0153018Y0115223D01*
X0153601Y0115223D01*
X0153601Y0115807D01*
X0153018Y0115807D01*
X0154949Y0115807D02*
X0155533Y0115223D01*
X0157284Y0115223D01*
X0157284Y0114056D02*
X0157284Y0117559D01*
X0155533Y0117559D01*
X0154949Y0116975D01*
X0154949Y0115807D01*
X0158572Y0115223D02*
X0159156Y0115807D01*
X0159156Y0118142D01*
X0159740Y0117559D02*
X0158572Y0117559D01*
X0161028Y0117559D02*
X0162195Y0117559D01*
X0161612Y0118142D02*
X0161612Y0115807D01*
X0161028Y0115223D01*
X0163543Y0115223D02*
X0163543Y0116975D01*
X0164127Y0117559D01*
X0165295Y0117559D01*
X0165878Y0116975D01*
X0165878Y0118726D02*
X0165878Y0115223D01*
D12*
X0110678Y0122651D02*
X0110678Y0185151D01*
X0080678Y0185151D01*
X0080678Y0162651D01*
X0077962Y0162563D02*
X0083867Y0162563D01*
X0083867Y0145240D01*
X0077962Y0145240D01*
X0077962Y0162563D01*
X0080678Y0145151D02*
X0080678Y0122651D01*
X0110678Y0122651D01*
X0084753Y0131401D02*
X0084753Y0136401D01*
M02*
