G75*
%MOIN*%
%OFA0B0*%
%FSLAX25Y25*%
%IPPOS*%
%LPD*%
%AMOC8*
5,1,8,0,0,1.08239X$1,22.5*
%
%ADD10OC8,0.07400*%
%ADD11C,0.07400*%
%ADD12C,0.02900*%
%ADD13C,0.00900*%
%ADD14C,0.13500*%
D10*
X0090178Y0133901D03*
X0101178Y0133901D03*
X0101178Y0143901D03*
X0090178Y0143901D03*
X0090178Y0153901D03*
X0101178Y0153901D03*
X0101178Y0163901D03*
X0090178Y0163901D03*
X0090178Y0173901D03*
X0101178Y0173901D03*
D11*
X0164808Y0163753D03*
X0164808Y0153753D03*
X0174888Y0153693D03*
X0164808Y0143753D03*
D12*
X0122868Y0159853D03*
X0129898Y0169901D03*
X0135398Y0175101D03*
X0158568Y0177773D03*
X0082548Y0178193D03*
D13*
X0082548Y0141531D01*
X0090178Y0133901D01*
X0095708Y0138993D02*
X0100800Y0133901D01*
X0101178Y0133901D01*
X0095708Y0138993D02*
X0087588Y0138993D01*
X0084648Y0141933D01*
X0084648Y0176373D01*
X0089408Y0181133D01*
X0155208Y0181133D01*
X0158568Y0177773D01*
X0144708Y0178053D02*
X0105330Y0178053D01*
X0101178Y0173901D01*
X0105178Y0168901D02*
X0095178Y0168901D01*
X0090178Y0163901D01*
X0101178Y0163901D02*
X0105216Y0163901D01*
X0113768Y0172453D01*
X0143868Y0172453D01*
X0157588Y0158733D01*
X0169848Y0158733D01*
X0174888Y0153693D01*
X0164808Y0153753D02*
X0128968Y0153753D01*
X0122868Y0159853D01*
X0115678Y0169901D02*
X0104678Y0158901D01*
X0095178Y0158901D01*
X0090178Y0153901D01*
X0101178Y0143901D02*
X0101326Y0143753D01*
X0164808Y0143753D01*
X0164808Y0163753D02*
X0159008Y0163753D01*
X0144708Y0178053D01*
X0135398Y0175101D02*
X0111278Y0175101D01*
X0105178Y0168901D01*
X0115678Y0169901D02*
X0129898Y0169901D01*
D14*
X0176528Y0119903D03*
X0176528Y0189903D03*
M02*
