%
M48
M72
T01C0.01500
T02C0.04000
T03C0.09500
%
T01
X122868Y159853
X129898Y169901
X135398Y175101
X158568Y177773
X82548Y178193
T02
X90178Y173901
X101178Y173901
X101178Y163901
X90178Y163901
X90178Y153901
X101178Y153901
X101178Y143901
X90178Y143901
X90178Y133901
X101178Y133901
X164808Y143753
X164808Y153753
X174888Y153693
X164808Y163753
T03
X176528Y119903
X176528Y189903
M30
