G75*
%MOIN*%
%OFA0B0*%
%FSLAX25Y25*%
%IPPOS*%
%LPD*%
%AMOC8*
5,1,8,0,0,1.08239X$1,22.5*
%
%ADD10C,0.00000*%
%ADD11C,0.00300*%
%ADD12C,0.00200*%
%ADD13R,0.00336X0.00042*%
%ADD14R,0.13776X0.00042*%
%ADD15R,0.00924X0.00042*%
%ADD16R,0.01176X0.00042*%
%ADD17R,0.13776X0.00042*%
%ADD18R,0.01386X0.00042*%
%ADD19R,0.01638X0.00042*%
%ADD20R,0.01722X0.00042*%
%ADD21R,0.01974X0.00042*%
%ADD22R,0.02646X0.00042*%
%ADD23R,0.04662X0.00042*%
%ADD24R,0.04536X0.00042*%
%ADD25R,0.02226X0.00042*%
%ADD26R,0.03024X0.00042*%
%ADD27R,0.01218X0.00042*%
%ADD28R,0.01302X0.00042*%
%ADD29R,0.02184X0.00042*%
%ADD30R,0.02436X0.00042*%
%ADD31R,0.03234X0.00042*%
%ADD32R,0.04662X0.00042*%
%ADD33R,0.01218X0.00042*%
%ADD34R,0.01302X0.00042*%
%ADD35R,0.02394X0.00042*%
%ADD36R,0.04536X0.00042*%
%ADD37R,0.02646X0.00042*%
%ADD38R,0.03402X0.00042*%
%ADD39R,0.01260X0.00042*%
%ADD40R,0.02562X0.00042*%
%ADD41R,0.02814X0.00042*%
%ADD42R,0.03528X0.00042*%
%ADD43R,0.02730X0.00042*%
%ADD44R,0.02982X0.00042*%
%ADD45R,0.03654X0.00042*%
%ADD46R,0.02898X0.00042*%
%ADD47R,0.03150X0.00042*%
%ADD48R,0.03738X0.00042*%
%ADD49R,0.03024X0.00042*%
%ADD50R,0.03822X0.00042*%
%ADD51R,0.01386X0.00042*%
%ADD52R,0.03906X0.00042*%
%ADD53R,0.03276X0.00042*%
%ADD54R,0.03486X0.00042*%
%ADD55R,0.03990X0.00042*%
%ADD56R,0.01470X0.00042*%
%ADD57R,0.03360X0.00042*%
%ADD58R,0.03570X0.00042*%
%ADD59R,0.04032X0.00042*%
%ADD60R,0.03444X0.00042*%
%ADD61R,0.03738X0.00042*%
%ADD62R,0.04116X0.00042*%
%ADD63R,0.01470X0.00042*%
%ADD64R,0.03612X0.00042*%
%ADD65R,0.03822X0.00042*%
%ADD66R,0.04158X0.00042*%
%ADD67R,0.01554X0.00042*%
%ADD68R,0.03696X0.00042*%
%ADD69R,0.04242X0.00042*%
%ADD70R,0.03780X0.00042*%
%ADD71R,0.03990X0.00042*%
%ADD72R,0.04284X0.00042*%
%ADD73R,0.03864X0.00042*%
%ADD74R,0.04074X0.00042*%
%ADD75R,0.04326X0.00042*%
%ADD76R,0.03948X0.00042*%
%ADD77R,0.04368X0.00042*%
%ADD78R,0.01638X0.00042*%
%ADD79R,0.04410X0.00042*%
%ADD80R,0.04452X0.00042*%
%ADD81R,0.04116X0.00042*%
%ADD82R,0.04326X0.00042*%
%ADD83R,0.04494X0.00042*%
%ADD84R,0.01722X0.00042*%
%ADD85R,0.04200X0.00042*%
%ADD86R,0.01848X0.00042*%
%ADD87R,0.01974X0.00042*%
%ADD88R,0.01932X0.00042*%
%ADD89R,0.01890X0.00042*%
%ADD90R,0.01680X0.00042*%
%ADD91R,0.01764X0.00042*%
%ADD92R,0.04578X0.00042*%
%ADD93R,0.01806X0.00042*%
%ADD94R,0.01806X0.00042*%
%ADD95R,0.01596X0.00042*%
%ADD96R,0.04620X0.00042*%
%ADD97R,0.01512X0.00042*%
%ADD98R,0.02058X0.00042*%
%ADD99R,0.01806X0.00042*%
%ADD100R,0.01596X0.00042*%
%ADD101R,0.01470X0.00042*%
%ADD102R,0.01848X0.00042*%
%ADD103R,0.01470X0.00042*%
%ADD104R,0.01512X0.00042*%
%ADD105R,0.01260X0.00042*%
%ADD106R,0.01512X0.00042*%
%ADD107R,0.01428X0.00042*%
%ADD108R,0.01176X0.00042*%
%ADD109R,0.01428X0.00042*%
%ADD110R,0.01554X0.00042*%
%ADD111R,0.02016X0.00042*%
%ADD112R,0.02058X0.00042*%
%ADD113R,0.01344X0.00042*%
%ADD114R,0.01428X0.00042*%
%ADD115R,0.02100X0.00042*%
%ADD116R,0.02142X0.00042*%
%ADD117R,0.01344X0.00042*%
%ADD118R,0.02184X0.00042*%
%ADD119R,0.02226X0.00042*%
%ADD120R,0.02226X0.00042*%
%ADD121R,0.02268X0.00042*%
%ADD122R,0.10920X0.00042*%
%ADD123R,0.02310X0.00042*%
%ADD124R,0.02814X0.00042*%
%ADD125R,0.10836X0.00042*%
%ADD126R,0.02310X0.00042*%
%ADD127R,0.10752X0.00042*%
%ADD128R,0.01176X0.00042*%
%ADD129R,0.01134X0.00042*%
%ADD130R,0.10710X0.00042*%
%ADD131R,0.10626X0.00042*%
%ADD132R,0.10542X0.00042*%
%ADD133R,0.01134X0.00042*%
%ADD134R,0.10500X0.00042*%
%ADD135R,0.10416X0.00042*%
%ADD136R,0.01134X0.00042*%
%ADD137R,0.10332X0.00042*%
%ADD138R,0.10248X0.00042*%
%ADD139R,0.10206X0.00042*%
%ADD140R,0.10122X0.00042*%
%ADD141R,0.10038X0.00042*%
%ADD142R,0.09996X0.00042*%
%ADD143R,0.01428X0.00042*%
%ADD144R,0.09912X0.00042*%
%ADD145R,0.09828X0.00042*%
%ADD146R,0.09744X0.00042*%
%ADD147R,0.09702X0.00042*%
%ADD148R,0.09618X0.00042*%
%ADD149R,0.09534X0.00042*%
%ADD150R,0.09492X0.00042*%
%ADD151R,0.09408X0.00042*%
%ADD152R,0.09324X0.00042*%
%ADD153R,0.02520X0.00042*%
%ADD154R,0.09282X0.00042*%
%ADD155R,0.02688X0.00042*%
%ADD156R,0.09198X0.00042*%
%ADD157R,0.02856X0.00042*%
%ADD158R,0.09114X0.00042*%
%ADD159R,0.02940X0.00042*%
%ADD160R,0.09030X0.00042*%
%ADD161R,0.04158X0.00042*%
%ADD162R,0.04032X0.00042*%
%ADD163R,0.03108X0.00042*%
%ADD164R,0.08988X0.00042*%
%ADD165R,0.03192X0.00042*%
%ADD166R,0.08904X0.00042*%
%ADD167R,0.01218X0.00042*%
%ADD168R,0.03318X0.00042*%
%ADD169R,0.08820X0.00042*%
%ADD170R,0.08778X0.00042*%
%ADD171R,0.01176X0.00042*%
%ADD172R,0.03486X0.00042*%
%ADD173R,0.08694X0.00042*%
%ADD174R,0.08610X0.00042*%
%ADD175R,0.03612X0.00042*%
%ADD176R,0.08568X0.00042*%
%ADD177R,0.08484X0.00042*%
%ADD178R,0.03612X0.00042*%
%ADD179R,0.08400X0.00042*%
%ADD180R,0.08316X0.00042*%
%ADD181R,0.08274X0.00042*%
%ADD182R,0.08190X0.00042*%
%ADD183R,0.08106X0.00042*%
%ADD184R,0.08064X0.00042*%
%ADD185R,0.03570X0.00042*%
%ADD186R,0.07980X0.00042*%
%ADD187R,0.07896X0.00042*%
%ADD188R,0.01218X0.00042*%
%ADD189R,0.03444X0.00042*%
%ADD190R,0.07854X0.00042*%
%ADD191R,0.07770X0.00042*%
%ADD192R,0.07686X0.00042*%
%ADD193R,0.03108X0.00042*%
%ADD194R,0.07602X0.00042*%
%ADD195R,0.07560X0.00042*%
%ADD196R,0.02730X0.00042*%
%ADD197R,0.07476X0.00042*%
%ADD198R,0.02520X0.00042*%
%ADD199R,0.07392X0.00042*%
%ADD200R,0.07350X0.00042*%
%ADD201R,0.07266X0.00042*%
%ADD202R,0.01932X0.00042*%
%ADD203R,0.07182X0.00042*%
%ADD204R,0.07140X0.00042*%
%ADD205R,0.07056X0.00042*%
%ADD206R,0.06972X0.00042*%
%ADD207R,0.06888X0.00042*%
%ADD208R,0.06846X0.00042*%
%ADD209R,0.06762X0.00042*%
%ADD210R,0.06678X0.00042*%
%ADD211R,0.06636X0.00042*%
%ADD212R,0.06552X0.00042*%
%ADD213R,0.06468X0.00042*%
%ADD214R,0.06426X0.00042*%
%ADD215R,0.06342X0.00042*%
%ADD216R,0.06258X0.00042*%
%ADD217R,0.06174X0.00042*%
%ADD218R,0.06132X0.00042*%
%ADD219R,0.06048X0.00042*%
%ADD220R,0.05964X0.00042*%
%ADD221R,0.05922X0.00042*%
%ADD222R,0.05838X0.00042*%
%ADD223R,0.05754X0.00042*%
%ADD224R,0.05712X0.00042*%
%ADD225R,0.05628X0.00042*%
%ADD226R,0.05544X0.00042*%
%ADD227R,0.05460X0.00042*%
%ADD228R,0.05418X0.00042*%
%ADD229R,0.05334X0.00042*%
%ADD230R,0.05250X0.00042*%
%ADD231R,0.05208X0.00042*%
%ADD232R,0.01764X0.00042*%
%ADD233R,0.01554X0.00042*%
%ADD234R,0.05124X0.00042*%
%ADD235R,0.05040X0.00042*%
%ADD236R,0.04998X0.00042*%
%ADD237R,0.02142X0.00042*%
%ADD238R,0.04914X0.00042*%
%ADD239R,0.04578X0.00042*%
%ADD240R,0.01680X0.00042*%
%ADD241R,0.04410X0.00042*%
%ADD242R,0.04830X0.00042*%
%ADD243R,0.04494X0.00042*%
%ADD244R,0.04746X0.00042*%
%ADD245R,0.01848X0.00042*%
%ADD246R,0.04704X0.00042*%
%ADD247R,0.04620X0.00042*%
%ADD248R,0.04242X0.00042*%
%ADD249R,0.04326X0.00042*%
%ADD250R,0.03906X0.00042*%
%ADD251R,0.04200X0.00042*%
%ADD252R,0.03612X0.00042*%
%ADD253R,0.03990X0.00042*%
%ADD254R,0.03528X0.00042*%
%ADD255R,0.03696X0.00042*%
%ADD256R,0.03066X0.00042*%
%ADD257R,0.02898X0.00042*%
%ADD258R,0.02604X0.00042*%
%ADD259R,0.03402X0.00042*%
%ADD260R,0.03276X0.00042*%
%ADD261R,0.02436X0.00042*%
%ADD262R,0.03066X0.00042*%
%ADD263R,0.00672X0.00042*%
%ADD264R,0.00630X0.00042*%
%ADD265R,0.02772X0.00042*%
%ADD266R,0.02562X0.00042*%
%ADD267R,0.02478X0.00042*%
%ADD268R,0.02394X0.00042*%
%ADD269R,0.02352X0.00042*%
%ADD270R,0.02520X0.00042*%
%ADD271R,0.03234X0.00042*%
%ADD272R,0.03318X0.00042*%
%ADD273R,0.00504X0.00042*%
%ADD274R,0.00504X0.00042*%
%ADD275R,0.01050X0.00042*%
%ADD276R,0.01890X0.00042*%
%ADD277R,0.01008X0.00042*%
%ADD278R,0.04284X0.00042*%
%ADD279R,0.02856X0.00042*%
%ADD280R,0.02604X0.00042*%
%ADD281R,0.01008X0.00042*%
%ADD282R,0.02856X0.00042*%
%ADD283R,0.03234X0.00042*%
%ADD284R,0.01554X0.00042*%
%ADD285R,0.04956X0.00042*%
%ADD286R,0.04788X0.00042*%
%ADD287R,0.05292X0.00042*%
%ADD288R,0.04872X0.00042*%
%ADD289R,0.04914X0.00042*%
%ADD290R,0.05502X0.00042*%
%ADD291R,0.02352X0.00042*%
%ADD292R,0.05586X0.00042*%
%ADD293R,0.05670X0.00042*%
%ADD294R,0.05796X0.00042*%
%ADD295R,0.05880X0.00042*%
%ADD296R,0.01890X0.00042*%
%ADD297R,0.06006X0.00042*%
%ADD298R,0.06090X0.00042*%
%ADD299R,0.06174X0.00042*%
%ADD300R,0.02016X0.00042*%
%ADD301R,0.04662X0.00042*%
%ADD302R,0.06384X0.00042*%
%ADD303R,0.06468X0.00042*%
%ADD304R,0.02142X0.00042*%
%ADD305R,0.04620X0.00042*%
%ADD306R,0.06678X0.00042*%
%ADD307R,0.06762X0.00042*%
%ADD308R,0.02226X0.00042*%
%ADD309R,0.06930X0.00042*%
%ADD310R,0.07014X0.00042*%
%ADD311R,0.07056X0.00042*%
%ADD312R,0.04368X0.00042*%
%ADD313R,0.07224X0.00042*%
%ADD314R,0.07308X0.00042*%
%ADD315R,0.01092X0.00042*%
%ADD316R,0.07392X0.00042*%
%ADD317R,0.04284X0.00042*%
%ADD318R,0.01092X0.00042*%
%ADD319R,0.07434X0.00042*%
%ADD320R,0.07518X0.00042*%
%ADD321R,0.07686X0.00042*%
%ADD322R,0.07728X0.00042*%
%ADD323R,0.07812X0.00042*%
%ADD324R,0.07896X0.00042*%
%ADD325R,0.08064X0.00042*%
%ADD326R,0.08190X0.00042*%
%ADD327R,0.08358X0.00042*%
%ADD328R,0.01092X0.00042*%
%ADD329R,0.08442X0.00042*%
%ADD330R,0.01092X0.00042*%
%ADD331R,0.08484X0.00042*%
%ADD332R,0.08652X0.00042*%
%ADD333R,0.08736X0.00042*%
%ADD334R,0.08778X0.00042*%
%ADD335R,0.08862X0.00042*%
%ADD336R,0.08946X0.00042*%
%ADD337R,0.09030X0.00042*%
%ADD338R,0.09156X0.00042*%
%ADD339R,0.09240X0.00042*%
%ADD340R,0.01134X0.00042*%
%ADD341R,0.01050X0.00042*%
%ADD342R,0.09324X0.00042*%
%ADD343R,0.09450X0.00042*%
%ADD344R,0.09534X0.00042*%
%ADD345R,0.09702X0.00042*%
%ADD346R,0.09786X0.00042*%
%ADD347R,0.09912X0.00042*%
%ADD348R,0.09996X0.00042*%
%ADD349R,0.10080X0.00042*%
%ADD350R,0.10164X0.00042*%
%ADD351R,0.10206X0.00042*%
%ADD352R,0.10290X0.00042*%
%ADD353R,0.10374X0.00042*%
%ADD354R,0.10458X0.00042*%
%ADD355R,0.10500X0.00042*%
%ADD356R,0.10584X0.00042*%
%ADD357R,0.10668X0.00042*%
%ADD358R,0.10878X0.00042*%
%ADD359R,0.02268X0.00042*%
%ADD360R,0.02142X0.00042*%
%ADD361R,0.01848X0.00042*%
%ADD362R,0.01890X0.00042*%
%ADD363R,0.04326X0.00042*%
%ADD364R,0.03948X0.00042*%
%ADD365R,0.03948X0.00042*%
%ADD366R,0.03864X0.00042*%
%ADD367R,0.03276X0.00042*%
%ADD368R,0.01512X0.00042*%
%ADD369R,0.03150X0.00042*%
%ADD370R,0.02520X0.00042*%
%ADD371R,0.00588X0.00042*%
%ADD372C,0.00500*%
%ADD373R,0.01680X0.00140*%
%ADD374R,0.01960X0.00140*%
%ADD375R,0.02240X0.00140*%
%ADD376R,0.02660X0.00140*%
%ADD377R,0.02940X0.00140*%
%ADD378R,0.02240X0.00140*%
%ADD379R,0.02800X0.00140*%
%ADD380R,0.03360X0.00140*%
%ADD381R,0.03640X0.00140*%
%ADD382R,0.03500X0.00140*%
%ADD383R,0.03780X0.00140*%
%ADD384R,0.04060X0.00140*%
%ADD385R,0.03920X0.00140*%
%ADD386R,0.04200X0.00140*%
%ADD387R,0.04620X0.00140*%
%ADD388R,0.04340X0.00140*%
%ADD389R,0.01960X0.00140*%
%ADD390R,0.02240X0.00140*%
%ADD391R,0.04480X0.00140*%
%ADD392R,0.05040X0.00140*%
%ADD393R,0.04620X0.00140*%
%ADD394R,0.04760X0.00140*%
%ADD395R,0.05320X0.00140*%
%ADD396R,0.04900X0.00140*%
%ADD397R,0.05040X0.00140*%
%ADD398R,0.05600X0.00140*%
%ADD399R,0.05180X0.00140*%
%ADD400R,0.05880X0.00140*%
%ADD401R,0.05460X0.00140*%
%ADD402R,0.02380X0.00140*%
%ADD403R,0.05320X0.00140*%
%ADD404R,0.02240X0.00140*%
%ADD405R,0.05600X0.00140*%
%ADD406R,0.06020X0.00140*%
%ADD407R,0.05740X0.00140*%
%ADD408R,0.02520X0.00140*%
%ADD409R,0.02100X0.00140*%
%ADD410R,0.01680X0.00140*%
%ADD411R,0.02100X0.00140*%
%ADD412R,0.01820X0.00140*%
%ADD413R,0.01120X0.00140*%
%ADD414R,0.02940X0.00140*%
%ADD415R,0.00700X0.00140*%
%ADD416R,0.04480X0.00140*%
%ADD417R,0.04620X0.00140*%
%ADD418R,0.00280X0.00140*%
%ADD419R,0.04340X0.00140*%
%ADD420R,0.02940X0.00140*%
%ADD421R,0.04340X0.00140*%
%ADD422R,0.02520X0.00140*%
%ADD423R,0.05460X0.00140*%
%ADD424R,0.03080X0.00140*%
%ADD425R,0.03920X0.00140*%
%ADD426R,0.01120X0.00140*%
%ADD427R,0.00560X0.00140*%
%ADD428R,0.02380X0.00140*%
%ADD429R,0.05740X0.00140*%
%ADD430R,0.05740X0.00140*%
%ADD431R,0.04900X0.00140*%
%ADD432R,0.05320X0.00140*%
%ADD433R,0.05180X0.00140*%
%ADD434R,0.05040X0.00140*%
%ADD435R,0.04760X0.00140*%
%ADD436R,0.03360X0.00140*%
%ADD437R,0.03640X0.00140*%
%ADD438R,0.04340X0.00140*%
%ADD439R,0.01540X0.00140*%
%ADD440C,0.00400*%
%ADD441C,0.02200*%
%ADD442C,0.00800*%
D10*
X0076678Y0109903D02*
X0076678Y0199903D01*
X0186528Y0199903D01*
X0186528Y0109903D01*
X0076678Y0109903D01*
D11*
X0082141Y0133853D02*
X0082558Y0134270D01*
X0082558Y0134687D01*
X0082141Y0135104D01*
X0080056Y0135104D01*
X0080056Y0134687D02*
X0080056Y0135521D01*
X0080473Y0137721D02*
X0082141Y0137721D01*
X0082558Y0138138D01*
X0082558Y0138972D01*
X0082141Y0139389D01*
X0082558Y0140299D02*
X0080056Y0140299D01*
X0080890Y0140716D02*
X0081307Y0140299D01*
X0080890Y0140716D02*
X0080890Y0141550D01*
X0081307Y0141967D01*
X0082558Y0141967D01*
X0082141Y0142877D02*
X0082558Y0143294D01*
X0082558Y0144128D01*
X0082141Y0144545D01*
X0081307Y0144545D01*
X0080890Y0144128D01*
X0080890Y0143294D01*
X0081307Y0142877D01*
X0082141Y0142877D01*
X0082558Y0145455D02*
X0080890Y0145455D01*
X0080890Y0146706D01*
X0081307Y0147123D01*
X0082558Y0147123D01*
X0082141Y0148033D02*
X0082558Y0148450D01*
X0082558Y0149702D01*
X0082976Y0149702D02*
X0080890Y0149702D01*
X0080890Y0148450D01*
X0081307Y0148033D01*
X0082141Y0148033D01*
X0083393Y0148867D02*
X0083393Y0149284D01*
X0082976Y0149702D01*
X0082241Y0154453D02*
X0080573Y0156121D01*
X0082241Y0156121D01*
X0082658Y0155704D01*
X0082658Y0154870D01*
X0082241Y0154453D01*
X0080573Y0154453D01*
X0080156Y0154870D01*
X0080156Y0155704D01*
X0080573Y0156121D01*
X0080156Y0157032D02*
X0081407Y0157032D01*
X0080990Y0157866D01*
X0080990Y0158283D01*
X0081407Y0158700D01*
X0082241Y0158700D01*
X0082658Y0158283D01*
X0082658Y0157449D01*
X0082241Y0157032D01*
X0080156Y0157032D02*
X0080156Y0158700D01*
X0080156Y0161278D02*
X0082658Y0159610D01*
X0082658Y0162188D02*
X0082658Y0163856D01*
X0082658Y0163022D02*
X0080156Y0163022D01*
X0080990Y0162188D01*
X0081407Y0164766D02*
X0081407Y0166017D01*
X0081824Y0166434D01*
X0082241Y0166434D01*
X0082658Y0166017D01*
X0082658Y0165183D01*
X0082241Y0164766D01*
X0081407Y0164766D01*
X0080573Y0165600D01*
X0080156Y0166434D01*
X0081407Y0167344D02*
X0081407Y0169012D01*
X0081824Y0169923D02*
X0081824Y0171174D01*
X0081407Y0171591D01*
X0080573Y0171591D01*
X0080156Y0171174D01*
X0080156Y0169923D01*
X0082658Y0169923D01*
X0081824Y0170757D02*
X0082658Y0171591D01*
X0082658Y0172501D02*
X0080990Y0172501D01*
X0080156Y0173335D01*
X0080990Y0174169D01*
X0082658Y0174169D01*
X0081407Y0174169D02*
X0081407Y0172501D01*
X0096128Y0185971D02*
X0096128Y0188473D01*
X0097380Y0188473D01*
X0097797Y0188056D01*
X0097797Y0187222D01*
X0097380Y0186805D01*
X0096128Y0186805D01*
X0098707Y0186388D02*
X0099124Y0185971D01*
X0099958Y0185971D01*
X0100375Y0186388D01*
X0100375Y0187222D01*
X0099958Y0187639D01*
X0099124Y0187639D01*
X0098707Y0187222D01*
X0098707Y0186388D01*
X0101285Y0186388D02*
X0101702Y0185971D01*
X0102119Y0186388D01*
X0102536Y0185971D01*
X0102953Y0186388D01*
X0102953Y0187639D01*
X0103863Y0187222D02*
X0104280Y0187639D01*
X0105114Y0187639D01*
X0105531Y0187222D01*
X0105531Y0186805D01*
X0103863Y0186805D01*
X0103863Y0186388D02*
X0103863Y0187222D01*
X0103863Y0186388D02*
X0104280Y0185971D01*
X0105114Y0185971D01*
X0106441Y0185971D02*
X0106441Y0187639D01*
X0106441Y0186805D02*
X0107275Y0187639D01*
X0107692Y0187639D01*
X0101285Y0187639D02*
X0101285Y0186388D01*
X0144228Y0186051D02*
X0144228Y0188553D01*
X0145480Y0188553D01*
X0145897Y0188136D01*
X0145897Y0187302D01*
X0145480Y0186885D01*
X0144228Y0186885D01*
X0145063Y0186885D02*
X0145897Y0186051D01*
X0146807Y0186468D02*
X0147224Y0186051D01*
X0148058Y0186051D01*
X0148475Y0186885D02*
X0146807Y0186885D01*
X0146807Y0186468D02*
X0146807Y0187302D01*
X0147224Y0187719D01*
X0148058Y0187719D01*
X0148475Y0187302D01*
X0148475Y0186885D01*
X0149385Y0186468D02*
X0149802Y0186885D01*
X0151053Y0186885D01*
X0151053Y0187302D02*
X0151053Y0186051D01*
X0149802Y0186051D01*
X0149385Y0186468D01*
X0149802Y0187719D02*
X0150636Y0187719D01*
X0151053Y0187302D01*
X0151963Y0187302D02*
X0152380Y0187719D01*
X0153631Y0187719D01*
X0153631Y0188553D02*
X0153631Y0186051D01*
X0152380Y0186051D01*
X0151963Y0186468D01*
X0151963Y0187302D01*
X0154541Y0187719D02*
X0154541Y0186468D01*
X0154958Y0186051D01*
X0156209Y0186051D01*
X0156209Y0185634D02*
X0155792Y0185217D01*
X0155375Y0185217D01*
X0156209Y0185634D02*
X0156209Y0187719D01*
X0157119Y0188136D02*
X0157536Y0188553D01*
X0158371Y0188553D01*
X0158788Y0188136D01*
X0158788Y0187719D01*
X0157954Y0186885D01*
X0157954Y0186468D02*
X0157954Y0186051D01*
X0080473Y0139389D02*
X0080056Y0138972D01*
X0080056Y0138138D01*
X0080473Y0137721D01*
X0082141Y0136849D02*
X0082558Y0136849D01*
X0082558Y0136432D01*
X0082141Y0136432D01*
X0082141Y0136849D01*
D12*
X0083116Y0123513D02*
X0083116Y0122446D01*
X0083116Y0122980D02*
X0081515Y0122980D01*
X0082049Y0122446D01*
X0081782Y0121856D02*
X0081515Y0121589D01*
X0081515Y0121055D01*
X0081782Y0120789D01*
X0082850Y0120789D01*
X0083116Y0121055D01*
X0083116Y0121589D01*
X0082850Y0121856D01*
X0093549Y0115235D02*
X0093549Y0113634D01*
X0094616Y0113634D01*
X0095206Y0113634D02*
X0096274Y0113634D01*
X0095740Y0113634D02*
X0095740Y0115235D01*
X0095206Y0114701D01*
X0127348Y0133838D02*
X0128148Y0133838D01*
X0128415Y0134105D01*
X0128415Y0135173D01*
X0128148Y0135439D01*
X0127348Y0135439D01*
X0127348Y0133838D01*
X0129005Y0133838D02*
X0130073Y0133838D01*
X0129539Y0133838D02*
X0129539Y0135439D01*
X0129005Y0134906D01*
X0150433Y0135050D02*
X0150433Y0133983D01*
X0150700Y0133716D01*
X0151234Y0133716D01*
X0151501Y0133983D01*
X0152091Y0134516D02*
X0153158Y0134516D01*
X0152892Y0133716D02*
X0152892Y0135317D01*
X0152091Y0134516D01*
X0151501Y0135050D02*
X0151234Y0135317D01*
X0150700Y0135317D01*
X0150433Y0135050D01*
X0134603Y0149291D02*
X0133536Y0149291D01*
X0134070Y0149291D02*
X0134070Y0150893D01*
X0133536Y0150359D01*
X0132946Y0150893D02*
X0132946Y0149558D01*
X0132679Y0149291D01*
X0132145Y0149291D01*
X0131878Y0149558D01*
X0131878Y0150893D01*
X0162760Y0176170D02*
X0163027Y0175903D01*
X0163561Y0175903D01*
X0163828Y0176170D01*
X0164418Y0175903D02*
X0165485Y0176971D01*
X0165485Y0177238D01*
X0165219Y0177505D01*
X0164685Y0177505D01*
X0164418Y0177238D01*
X0163828Y0177238D02*
X0163561Y0177505D01*
X0163027Y0177505D01*
X0162760Y0177238D01*
X0162760Y0176170D01*
X0164418Y0175903D02*
X0165485Y0175903D01*
X0158638Y0181219D02*
X0158638Y0182019D01*
X0158372Y0182286D01*
X0157304Y0182286D01*
X0157037Y0182019D01*
X0157037Y0181219D01*
X0158638Y0181219D01*
X0158372Y0182876D02*
X0158638Y0183143D01*
X0158638Y0183677D01*
X0158372Y0183943D01*
X0158105Y0183943D01*
X0157838Y0183677D01*
X0157838Y0183410D01*
X0157838Y0183677D02*
X0157571Y0183943D01*
X0157304Y0183943D01*
X0157037Y0183677D01*
X0157037Y0183143D01*
X0157304Y0182876D01*
X0131468Y0182956D02*
X0130401Y0184023D01*
X0130134Y0184023D01*
X0129867Y0183757D01*
X0129867Y0183223D01*
X0130134Y0182956D01*
X0130134Y0182366D02*
X0130668Y0182366D01*
X0130935Y0182099D01*
X0130935Y0181298D01*
X0131468Y0181298D02*
X0129867Y0181298D01*
X0129867Y0182099D01*
X0130134Y0182366D01*
X0130935Y0181832D02*
X0131468Y0182366D01*
X0131468Y0182956D02*
X0131468Y0184023D01*
X0112976Y0183681D02*
X0112976Y0183148D01*
X0112710Y0182881D01*
X0112710Y0182291D02*
X0112976Y0182024D01*
X0112976Y0181490D01*
X0112710Y0181223D01*
X0111642Y0181223D01*
X0111375Y0181490D01*
X0111375Y0182024D01*
X0111642Y0182291D01*
X0111642Y0182881D02*
X0111375Y0183148D01*
X0111375Y0183681D01*
X0111642Y0183948D01*
X0111909Y0183948D01*
X0112176Y0183681D01*
X0112443Y0183948D01*
X0112710Y0183948D01*
X0112976Y0183681D01*
X0112176Y0183681D02*
X0112176Y0183415D01*
X0099545Y0179668D02*
X0099279Y0179935D01*
X0098745Y0179935D01*
X0098478Y0179668D01*
X0097888Y0179668D02*
X0097621Y0179935D01*
X0096820Y0179935D01*
X0096820Y0178333D01*
X0097621Y0178333D01*
X0097888Y0178600D01*
X0097888Y0179668D01*
X0098478Y0178333D02*
X0099545Y0179401D01*
X0099545Y0179668D01*
X0099545Y0178333D02*
X0098478Y0178333D01*
X0082598Y0181451D02*
X0080997Y0181451D01*
X0080997Y0182251D01*
X0081264Y0182518D01*
X0081798Y0182518D01*
X0082065Y0182251D01*
X0082065Y0181451D01*
X0082065Y0181984D02*
X0082598Y0182518D01*
X0082598Y0183108D02*
X0082598Y0184175D01*
X0082598Y0183642D02*
X0080997Y0183642D01*
X0081531Y0183108D01*
D13*
X0158555Y0112089D03*
D14*
X0118487Y0112131D03*
X0118487Y0112215D03*
X0118487Y0112257D03*
X0118487Y0112299D03*
X0118487Y0112383D03*
X0118487Y0112425D03*
X0118487Y0112467D03*
X0118487Y0112551D03*
X0118487Y0112593D03*
X0118487Y0112635D03*
X0118487Y0112677D03*
X0118487Y0112761D03*
X0118487Y0112803D03*
X0118487Y0112845D03*
X0118487Y0112929D03*
X0118487Y0112971D03*
X0118487Y0113013D03*
X0118487Y0113097D03*
X0118487Y0113139D03*
X0118487Y0113181D03*
X0118487Y0113265D03*
X0118487Y0113307D03*
X0118487Y0113349D03*
X0118487Y0113433D03*
X0118487Y0113475D03*
X0118487Y0113517D03*
X0118487Y0113601D03*
X0118487Y0113643D03*
X0118487Y0113685D03*
X0118487Y0113727D03*
X0118487Y0113811D03*
X0118487Y0113853D03*
X0118487Y0123807D03*
X0118487Y0123849D03*
X0118487Y0123933D03*
X0118487Y0123975D03*
X0118487Y0124017D03*
X0118487Y0124101D03*
X0118487Y0124143D03*
X0118487Y0124185D03*
X0118487Y0124227D03*
X0118487Y0124311D03*
X0118487Y0124353D03*
X0118487Y0124395D03*
X0118487Y0124479D03*
X0118487Y0124521D03*
X0118487Y0124563D03*
X0118487Y0124647D03*
X0118487Y0124689D03*
X0118487Y0124731D03*
X0118487Y0124815D03*
X0118487Y0124857D03*
X0118487Y0124899D03*
X0118487Y0124983D03*
X0118487Y0125025D03*
X0118487Y0125067D03*
X0118487Y0125151D03*
X0118487Y0125193D03*
X0118487Y0125235D03*
X0118487Y0125277D03*
X0118487Y0125361D03*
X0118487Y0125403D03*
X0118487Y0125445D03*
X0118487Y0125529D03*
X0118487Y0125571D03*
X0118487Y0125613D03*
X0118487Y0125697D03*
X0118487Y0125739D03*
X0118487Y0125781D03*
X0118487Y0125865D03*
X0118487Y0125907D03*
X0118487Y0125949D03*
D15*
X0148433Y0112131D03*
X0151835Y0126075D03*
D16*
X0155783Y0123807D03*
X0155741Y0123681D03*
X0155741Y0123639D03*
X0155741Y0122085D03*
X0155741Y0122043D03*
X0155783Y0121917D03*
X0160109Y0121665D03*
X0160151Y0116961D03*
X0160151Y0116877D03*
X0160193Y0116793D03*
X0160193Y0116751D03*
X0156665Y0116835D03*
X0156581Y0114063D03*
X0156581Y0114021D03*
X0156581Y0113979D03*
X0156581Y0113895D03*
X0156581Y0113853D03*
X0156581Y0113811D03*
X0156623Y0113727D03*
X0158513Y0112131D03*
X0151961Y0113349D03*
X0151961Y0113433D03*
X0151961Y0113475D03*
X0151961Y0113517D03*
X0151961Y0113601D03*
X0151961Y0113643D03*
X0151961Y0113685D03*
X0151961Y0113727D03*
X0151961Y0113811D03*
X0151961Y0113853D03*
X0151961Y0113895D03*
X0151961Y0113979D03*
X0151961Y0114021D03*
X0151961Y0114063D03*
X0151961Y0114147D03*
X0151961Y0114189D03*
X0151961Y0114231D03*
X0151961Y0114315D03*
X0151961Y0114357D03*
X0151961Y0114399D03*
X0151961Y0114483D03*
X0151961Y0114525D03*
X0151961Y0114567D03*
X0151961Y0114651D03*
X0151961Y0114693D03*
X0151961Y0114735D03*
X0151961Y0114777D03*
X0151961Y0114861D03*
X0151961Y0114903D03*
X0151961Y0116079D03*
X0151961Y0116121D03*
X0151961Y0116163D03*
X0151961Y0116247D03*
X0151961Y0116289D03*
X0151961Y0116331D03*
X0151961Y0116415D03*
X0151961Y0116457D03*
X0151961Y0116499D03*
X0151961Y0116583D03*
X0151961Y0116625D03*
X0151961Y0116667D03*
X0151961Y0116751D03*
X0151961Y0116793D03*
X0151961Y0116835D03*
X0151961Y0116877D03*
X0151961Y0116961D03*
X0151961Y0117003D03*
X0151961Y0117045D03*
X0151961Y0117129D03*
X0151961Y0117171D03*
X0151961Y0117213D03*
X0151961Y0117297D03*
X0141965Y0115449D03*
X0141881Y0115197D03*
X0141797Y0114945D03*
X0141797Y0114903D03*
X0141755Y0114777D03*
X0141713Y0114693D03*
X0141713Y0114651D03*
X0141629Y0114399D03*
X0141629Y0114357D03*
X0141587Y0114315D03*
X0141545Y0114147D03*
X0140243Y0114147D03*
X0140201Y0114231D03*
X0140201Y0114315D03*
X0140159Y0114357D03*
X0140159Y0114399D03*
X0140075Y0114651D03*
X0140033Y0114777D03*
X0139991Y0114903D03*
X0139991Y0120825D03*
X0140033Y0120951D03*
X0140075Y0121077D03*
X0140411Y0122085D03*
X0140411Y0122127D03*
X0142973Y0122925D03*
X0143015Y0122799D03*
X0142931Y0123051D03*
X0143141Y0122463D03*
X0143141Y0122421D03*
X0143183Y0122295D03*
X0131843Y0122379D03*
X0131843Y0122421D03*
X0131801Y0122463D03*
X0131801Y0122547D03*
X0131759Y0122589D03*
X0131759Y0122631D03*
X0131675Y0122883D03*
X0131633Y0122925D03*
X0131633Y0122967D03*
X0131591Y0123051D03*
X0131591Y0123093D03*
X0131465Y0123429D03*
X0129155Y0122295D03*
X0129155Y0122253D03*
X0129113Y0122127D03*
X0128777Y0121161D03*
X0128651Y0120783D03*
D17*
X0118487Y0123891D03*
X0118487Y0124059D03*
X0118487Y0124269D03*
X0118487Y0124437D03*
X0118487Y0124605D03*
X0118487Y0124773D03*
X0118487Y0124941D03*
X0118487Y0125109D03*
X0118487Y0125319D03*
X0118487Y0125487D03*
X0118487Y0125655D03*
X0118487Y0125823D03*
X0118487Y0113769D03*
X0118487Y0113559D03*
X0118487Y0113391D03*
X0118487Y0113223D03*
X0118487Y0113055D03*
X0118487Y0112887D03*
X0118487Y0112719D03*
X0118487Y0112509D03*
X0118487Y0112341D03*
X0118487Y0112173D03*
D18*
X0131906Y0113769D03*
X0131990Y0113937D03*
X0132032Y0116373D03*
X0131948Y0116541D03*
X0140894Y0112509D03*
X0146480Y0116541D03*
X0146648Y0116919D03*
X0150260Y0116919D03*
X0148454Y0112173D03*
X0149966Y0121287D03*
X0149924Y0124437D03*
X0153662Y0121287D03*
X0159626Y0124773D03*
X0141776Y0125823D03*
X0134342Y0125823D03*
X0130436Y0125823D03*
D19*
X0130436Y0125487D03*
X0137954Y0120573D03*
X0141776Y0125487D03*
X0150302Y0120909D03*
X0159878Y0121119D03*
X0158492Y0112173D03*
X0147152Y0113223D03*
X0140894Y0112887D03*
D20*
X0140894Y0113013D03*
X0140894Y0113097D03*
X0147110Y0117465D03*
X0149798Y0117465D03*
X0149882Y0113139D03*
X0148496Y0112215D03*
X0156980Y0116121D03*
X0159668Y0117549D03*
X0159836Y0121035D03*
X0153242Y0120867D03*
X0150344Y0120867D03*
X0141776Y0125361D03*
X0141776Y0125403D03*
X0137912Y0120699D03*
X0137912Y0120657D03*
X0134510Y0125277D03*
X0130436Y0125361D03*
X0131486Y0117213D03*
D21*
X0140894Y0113433D03*
X0148496Y0112257D03*
X0158492Y0112215D03*
X0158534Y0118389D03*
X0153074Y0120783D03*
X0147278Y0117549D03*
X0137786Y0121035D03*
X0137786Y0121077D03*
X0134636Y0124857D03*
X0134636Y0124899D03*
X0141776Y0124983D03*
X0141776Y0125025D03*
X0157988Y0125907D03*
D22*
X0128966Y0118431D03*
X0124052Y0119145D03*
X0128966Y0112257D03*
D23*
X0135644Y0112257D03*
X0135644Y0112299D03*
X0135644Y0112383D03*
X0135644Y0112425D03*
X0135644Y0112467D03*
X0135644Y0112551D03*
X0135644Y0112593D03*
X0135644Y0112635D03*
X0135644Y0112677D03*
X0135644Y0112761D03*
X0135644Y0112803D03*
X0135644Y0112845D03*
X0135644Y0112929D03*
X0135644Y0112971D03*
X0135644Y0113013D03*
X0135644Y0113097D03*
X0135644Y0113139D03*
X0135644Y0113181D03*
X0135644Y0113265D03*
X0123044Y0120279D03*
X0130520Y0121245D03*
D24*
X0130541Y0121413D03*
X0135581Y0118431D03*
X0141839Y0121413D03*
X0123107Y0120195D03*
X0123107Y0117633D03*
X0129911Y0113097D03*
X0153641Y0113097D03*
X0153641Y0113139D03*
X0153641Y0113181D03*
X0153641Y0113265D03*
X0153641Y0113013D03*
X0153641Y0112971D03*
X0153641Y0112929D03*
X0153641Y0112845D03*
X0153641Y0112803D03*
X0153641Y0112761D03*
X0153641Y0112677D03*
X0153641Y0112635D03*
X0153641Y0112593D03*
X0153641Y0112551D03*
X0153641Y0112467D03*
X0153641Y0112425D03*
X0153641Y0112383D03*
X0153641Y0112299D03*
X0153641Y0112257D03*
D25*
X0158492Y0112257D03*
X0137660Y0121413D03*
D26*
X0151835Y0125697D03*
X0129155Y0112299D03*
D27*
X0133922Y0116121D03*
X0133922Y0116163D03*
X0133922Y0116247D03*
X0133922Y0116289D03*
X0133922Y0116331D03*
X0133922Y0116415D03*
X0133922Y0116457D03*
X0133922Y0116499D03*
X0133922Y0116583D03*
X0133922Y0116625D03*
X0133922Y0116667D03*
X0133922Y0116751D03*
X0133922Y0116793D03*
X0133922Y0116835D03*
X0133922Y0116877D03*
X0133922Y0116961D03*
X0133922Y0117003D03*
X0133922Y0117045D03*
X0133922Y0117129D03*
X0133922Y0117171D03*
X0133922Y0117213D03*
X0133922Y0117297D03*
X0133922Y0117339D03*
X0133922Y0117381D03*
X0134258Y0119901D03*
X0134258Y0119943D03*
X0134258Y0119985D03*
X0134258Y0120027D03*
X0134258Y0120111D03*
X0134258Y0120153D03*
X0134258Y0120195D03*
X0134258Y0120279D03*
X0134258Y0120321D03*
X0134258Y0120363D03*
X0134258Y0120447D03*
X0134258Y0120489D03*
X0134258Y0120531D03*
X0134258Y0120615D03*
X0134258Y0120657D03*
X0134258Y0120699D03*
X0134258Y0120783D03*
X0134258Y0120825D03*
X0134258Y0120867D03*
X0134258Y0120951D03*
X0134258Y0120993D03*
X0134258Y0121035D03*
X0134258Y0121077D03*
X0134258Y0121161D03*
X0134258Y0121203D03*
X0134258Y0121245D03*
X0134258Y0121329D03*
X0134258Y0121371D03*
X0134258Y0121413D03*
X0134258Y0121497D03*
X0134258Y0121539D03*
X0134258Y0121581D03*
X0134258Y0121665D03*
X0134258Y0121707D03*
X0134258Y0121749D03*
X0134258Y0121833D03*
X0134258Y0121875D03*
X0134258Y0121917D03*
X0134258Y0122001D03*
X0134258Y0122043D03*
X0134258Y0122085D03*
X0134258Y0122127D03*
X0134258Y0122211D03*
X0134258Y0122253D03*
X0134258Y0122295D03*
X0134258Y0122379D03*
X0134258Y0122421D03*
X0134258Y0122463D03*
X0134258Y0122547D03*
X0134258Y0122589D03*
X0134258Y0122631D03*
X0134258Y0122715D03*
X0134258Y0122757D03*
X0134258Y0122799D03*
X0134258Y0122883D03*
X0134258Y0122925D03*
X0134258Y0122967D03*
X0134258Y0123051D03*
X0134258Y0123093D03*
X0134258Y0123135D03*
X0134258Y0123177D03*
X0134258Y0123261D03*
X0134258Y0123303D03*
X0134258Y0123345D03*
X0134258Y0123429D03*
X0134258Y0123471D03*
X0134258Y0123513D03*
X0134258Y0123597D03*
X0134258Y0123639D03*
X0134258Y0123681D03*
X0134258Y0123765D03*
X0134258Y0123807D03*
X0134258Y0123849D03*
X0134258Y0123933D03*
X0131864Y0122295D03*
X0131864Y0122253D03*
X0132284Y0121161D03*
X0132326Y0121077D03*
X0132326Y0121035D03*
X0132326Y0120993D03*
X0132368Y0120951D03*
X0132410Y0120825D03*
X0132410Y0120783D03*
X0132452Y0120699D03*
X0132452Y0120657D03*
X0132536Y0120447D03*
X0129092Y0122085D03*
X0129134Y0122211D03*
X0128756Y0121077D03*
X0128714Y0120993D03*
X0128714Y0120951D03*
X0128672Y0120867D03*
X0128672Y0120825D03*
X0128630Y0120699D03*
X0128630Y0120657D03*
X0128588Y0120615D03*
X0128588Y0120531D03*
X0128546Y0120489D03*
X0128546Y0120447D03*
X0128504Y0120363D03*
X0128504Y0120321D03*
X0128504Y0120279D03*
X0128462Y0120195D03*
X0128462Y0120153D03*
X0128420Y0120027D03*
X0138164Y0119901D03*
X0139718Y0119943D03*
X0139718Y0119985D03*
X0139760Y0120111D03*
X0139802Y0120195D03*
X0139802Y0120279D03*
X0139844Y0120321D03*
X0139844Y0120363D03*
X0139886Y0120447D03*
X0139886Y0120489D03*
X0139886Y0120531D03*
X0139970Y0120783D03*
X0140012Y0120867D03*
X0140054Y0120993D03*
X0140054Y0121035D03*
X0140096Y0121161D03*
X0138164Y0122001D03*
X0138164Y0122043D03*
X0138164Y0122085D03*
X0138164Y0122127D03*
X0138164Y0122211D03*
X0138164Y0122253D03*
X0138164Y0122295D03*
X0138164Y0122379D03*
X0138164Y0122421D03*
X0138164Y0122463D03*
X0138164Y0122547D03*
X0138164Y0122589D03*
X0138164Y0122631D03*
X0138164Y0122715D03*
X0138164Y0122757D03*
X0138164Y0122799D03*
X0138164Y0122883D03*
X0138164Y0122925D03*
X0138164Y0122967D03*
X0138164Y0123051D03*
X0138164Y0123093D03*
X0138164Y0123135D03*
X0138164Y0123177D03*
X0138164Y0123261D03*
X0138164Y0123303D03*
X0138164Y0123345D03*
X0138164Y0123429D03*
X0138164Y0123471D03*
X0138164Y0123513D03*
X0138164Y0123597D03*
X0138164Y0123639D03*
X0138164Y0123681D03*
X0138164Y0123765D03*
X0138164Y0123807D03*
X0138164Y0123849D03*
X0138164Y0123933D03*
X0138164Y0123975D03*
X0138164Y0124017D03*
X0138164Y0124101D03*
X0138164Y0124143D03*
X0138164Y0124185D03*
X0138164Y0124227D03*
X0138164Y0124311D03*
X0138164Y0124353D03*
X0138164Y0124395D03*
X0138164Y0124479D03*
X0138164Y0124521D03*
X0138164Y0124563D03*
X0138164Y0124647D03*
X0138164Y0124689D03*
X0138164Y0124731D03*
X0138164Y0124815D03*
X0138164Y0124857D03*
X0138164Y0124899D03*
X0138164Y0124983D03*
X0138164Y0125025D03*
X0138164Y0125067D03*
X0138164Y0125151D03*
X0138164Y0125193D03*
X0138164Y0125235D03*
X0138164Y0125277D03*
X0138164Y0125361D03*
X0138164Y0125403D03*
X0138164Y0125445D03*
X0138164Y0125529D03*
X0138164Y0125571D03*
X0138164Y0125613D03*
X0138164Y0125697D03*
X0138164Y0125739D03*
X0138164Y0125781D03*
X0138164Y0125865D03*
X0138164Y0125907D03*
X0138164Y0125949D03*
X0143162Y0122379D03*
X0143204Y0122253D03*
X0143204Y0122211D03*
X0143624Y0121077D03*
X0143666Y0120993D03*
X0143666Y0120951D03*
X0143708Y0120867D03*
X0143792Y0120615D03*
X0143834Y0120531D03*
X0143918Y0120279D03*
X0145598Y0120951D03*
X0145598Y0120993D03*
X0145598Y0121035D03*
X0145598Y0121077D03*
X0145598Y0121161D03*
X0145598Y0121203D03*
X0145598Y0121245D03*
X0145598Y0121329D03*
X0145598Y0121371D03*
X0145598Y0121413D03*
X0145598Y0121497D03*
X0145598Y0121539D03*
X0145598Y0121581D03*
X0145598Y0121665D03*
X0145598Y0121707D03*
X0145598Y0121749D03*
X0145598Y0121833D03*
X0145598Y0121875D03*
X0145598Y0121917D03*
X0145598Y0122001D03*
X0145598Y0122043D03*
X0145598Y0122085D03*
X0145598Y0122127D03*
X0145598Y0122211D03*
X0145598Y0122253D03*
X0145598Y0122295D03*
X0145598Y0122379D03*
X0145598Y0122421D03*
X0145598Y0122463D03*
X0145598Y0122547D03*
X0145598Y0122589D03*
X0145598Y0122631D03*
X0145598Y0122715D03*
X0145598Y0122757D03*
X0145598Y0122799D03*
X0145598Y0122883D03*
X0145598Y0122925D03*
X0145598Y0122967D03*
X0145598Y0123051D03*
X0145598Y0123093D03*
X0145598Y0123135D03*
X0145598Y0123177D03*
X0145598Y0123261D03*
X0145598Y0123303D03*
X0145598Y0123345D03*
X0145598Y0123429D03*
X0145598Y0123471D03*
X0145598Y0123513D03*
X0145598Y0123597D03*
X0145598Y0123639D03*
X0145598Y0123681D03*
X0145598Y0123765D03*
X0145598Y0123807D03*
X0145598Y0123849D03*
X0145598Y0123933D03*
X0145598Y0123975D03*
X0145598Y0124017D03*
X0145598Y0124101D03*
X0145598Y0124143D03*
X0145598Y0124185D03*
X0145598Y0124227D03*
X0145598Y0124311D03*
X0145598Y0124353D03*
X0145598Y0124395D03*
X0145598Y0124479D03*
X0145598Y0124521D03*
X0145598Y0124563D03*
X0145598Y0124647D03*
X0145598Y0124689D03*
X0145598Y0124731D03*
X0145598Y0124815D03*
X0145598Y0124857D03*
X0145598Y0124899D03*
X0145598Y0124983D03*
X0145598Y0125025D03*
X0145598Y0125067D03*
X0145598Y0125151D03*
X0145598Y0125193D03*
X0145598Y0125235D03*
X0145598Y0125277D03*
X0145598Y0125361D03*
X0145598Y0125403D03*
X0145598Y0125445D03*
X0145598Y0125529D03*
X0145598Y0125571D03*
X0145598Y0125613D03*
X0145598Y0125697D03*
X0145598Y0125739D03*
X0145598Y0125781D03*
X0145598Y0125865D03*
X0145598Y0125907D03*
X0145598Y0125949D03*
X0149630Y0123765D03*
X0149588Y0123597D03*
X0149588Y0123513D03*
X0149546Y0123429D03*
X0149546Y0123345D03*
X0149546Y0123303D03*
X0149546Y0123261D03*
X0149546Y0123177D03*
X0149504Y0123135D03*
X0149504Y0123093D03*
X0149504Y0123051D03*
X0149504Y0122967D03*
X0149504Y0122925D03*
X0149504Y0122883D03*
X0149504Y0122799D03*
X0149504Y0122757D03*
X0149504Y0122715D03*
X0149504Y0122631D03*
X0149546Y0122547D03*
X0149546Y0122463D03*
X0149546Y0122421D03*
X0149546Y0122379D03*
X0149588Y0122211D03*
X0149588Y0122127D03*
X0149630Y0122001D03*
X0153998Y0122001D03*
X0153998Y0122043D03*
X0154040Y0122211D03*
X0154040Y0122253D03*
X0154082Y0122379D03*
X0154082Y0122421D03*
X0154082Y0122463D03*
X0154082Y0122547D03*
X0154124Y0122715D03*
X0154124Y0122757D03*
X0154124Y0122799D03*
X0154124Y0122883D03*
X0154124Y0122925D03*
X0154124Y0122967D03*
X0154124Y0123051D03*
X0154082Y0123261D03*
X0154082Y0123303D03*
X0154082Y0123345D03*
X0154082Y0123429D03*
X0154082Y0123471D03*
X0154040Y0123513D03*
X0154040Y0123597D03*
X0154040Y0123639D03*
X0153998Y0123765D03*
X0153998Y0123807D03*
X0155720Y0123597D03*
X0155762Y0123765D03*
X0155804Y0123849D03*
X0155804Y0123933D03*
X0155846Y0123975D03*
X0155846Y0124017D03*
X0155888Y0124101D03*
X0155720Y0122127D03*
X0155762Y0122001D03*
X0155804Y0121875D03*
X0155804Y0121833D03*
X0155846Y0121749D03*
X0160088Y0121581D03*
X0159794Y0124521D03*
X0142868Y0118389D03*
X0142406Y0116835D03*
X0142322Y0116583D03*
X0142280Y0116457D03*
X0142280Y0116415D03*
X0142238Y0116331D03*
X0142238Y0116289D03*
X0142196Y0116163D03*
X0142154Y0116079D03*
X0142154Y0115995D03*
X0142112Y0115953D03*
X0142112Y0115911D03*
X0142070Y0115827D03*
X0142070Y0115785D03*
X0142070Y0115743D03*
X0141986Y0115533D03*
X0141944Y0115407D03*
X0141944Y0115365D03*
X0141902Y0115281D03*
X0141902Y0115239D03*
X0141860Y0115113D03*
X0141776Y0114861D03*
X0141734Y0114735D03*
X0140096Y0114567D03*
X0140054Y0114693D03*
X0140054Y0114735D03*
X0140012Y0114861D03*
X0139970Y0114945D03*
X0139886Y0115197D03*
X0139886Y0115239D03*
X0139886Y0115281D03*
X0139844Y0115365D03*
X0139802Y0115449D03*
X0139760Y0115575D03*
X0139760Y0115617D03*
X0139718Y0115701D03*
X0139718Y0115743D03*
X0139634Y0115995D03*
X0139592Y0116121D03*
X0140894Y0112299D03*
X0150512Y0114063D03*
X0150512Y0114147D03*
X0150554Y0114189D03*
X0150554Y0114231D03*
X0151982Y0113307D03*
X0150512Y0116415D03*
X0156686Y0116751D03*
X0156686Y0116793D03*
X0156686Y0116877D03*
X0156686Y0116961D03*
X0156770Y0117171D03*
X0160088Y0117129D03*
X0160130Y0117045D03*
X0160130Y0117003D03*
X0160382Y0114021D03*
X0160382Y0113979D03*
X0160382Y0113895D03*
X0160382Y0113853D03*
X0160382Y0113811D03*
X0160340Y0113727D03*
X0160340Y0113685D03*
X0160340Y0113643D03*
X0156686Y0113601D03*
X0156644Y0113643D03*
X0156644Y0113685D03*
D28*
X0156812Y0113349D03*
X0156686Y0116499D03*
X0156854Y0117297D03*
X0160004Y0117297D03*
X0160046Y0117213D03*
X0160340Y0114231D03*
X0160256Y0113475D03*
X0150428Y0113811D03*
X0150428Y0113853D03*
X0150344Y0113685D03*
X0150428Y0116625D03*
X0150386Y0116667D03*
X0146396Y0116247D03*
X0146354Y0116079D03*
X0146354Y0115995D03*
X0146354Y0115953D03*
X0146354Y0115911D03*
X0146312Y0115827D03*
X0146312Y0115785D03*
X0146312Y0115743D03*
X0146312Y0115701D03*
X0146312Y0115617D03*
X0146312Y0115575D03*
X0146312Y0115533D03*
X0146312Y0115449D03*
X0146312Y0115407D03*
X0146312Y0115365D03*
X0146312Y0115281D03*
X0146312Y0115239D03*
X0146312Y0115197D03*
X0146312Y0115113D03*
X0146354Y0114861D03*
X0146396Y0114567D03*
X0146438Y0114399D03*
X0146480Y0114315D03*
X0146522Y0114189D03*
X0146522Y0114147D03*
X0146564Y0114063D03*
X0146564Y0114021D03*
X0146606Y0113979D03*
X0144506Y0113979D03*
X0144506Y0114021D03*
X0144506Y0114063D03*
X0144506Y0114147D03*
X0144506Y0114189D03*
X0144506Y0114231D03*
X0144506Y0114315D03*
X0144506Y0114357D03*
X0144506Y0114399D03*
X0144506Y0114483D03*
X0144506Y0114525D03*
X0144506Y0114567D03*
X0144506Y0114651D03*
X0144506Y0114693D03*
X0144506Y0114735D03*
X0144506Y0114777D03*
X0144506Y0114861D03*
X0144506Y0114903D03*
X0144506Y0114945D03*
X0144506Y0115029D03*
X0144506Y0115071D03*
X0144506Y0115113D03*
X0144506Y0115197D03*
X0144506Y0115239D03*
X0144506Y0115281D03*
X0144506Y0115365D03*
X0144506Y0115407D03*
X0144506Y0115449D03*
X0144506Y0115533D03*
X0144506Y0115575D03*
X0144506Y0115617D03*
X0144506Y0115701D03*
X0144506Y0115743D03*
X0144506Y0115785D03*
X0144506Y0115827D03*
X0144506Y0115911D03*
X0144506Y0115953D03*
X0144506Y0115995D03*
X0144506Y0116079D03*
X0144506Y0116121D03*
X0144506Y0116163D03*
X0144506Y0116247D03*
X0144506Y0116289D03*
X0144506Y0116331D03*
X0144506Y0116415D03*
X0144506Y0116457D03*
X0144506Y0116499D03*
X0144506Y0116583D03*
X0144506Y0116625D03*
X0144506Y0116667D03*
X0144506Y0116751D03*
X0144506Y0116793D03*
X0144506Y0116835D03*
X0144506Y0116877D03*
X0144506Y0116961D03*
X0144506Y0117003D03*
X0144506Y0117045D03*
X0144506Y0117129D03*
X0144506Y0117171D03*
X0144506Y0117213D03*
X0144506Y0117297D03*
X0144506Y0117339D03*
X0144506Y0117381D03*
X0144506Y0117465D03*
X0144506Y0117507D03*
X0144506Y0117549D03*
X0144506Y0117633D03*
X0144506Y0117675D03*
X0144506Y0117717D03*
X0144506Y0117801D03*
X0144506Y0117843D03*
X0144506Y0117885D03*
X0144506Y0117927D03*
X0144506Y0118011D03*
X0144506Y0118053D03*
X0144506Y0118095D03*
X0144506Y0118179D03*
X0144506Y0118221D03*
X0144506Y0118263D03*
X0144506Y0118347D03*
X0144506Y0118389D03*
X0142826Y0118221D03*
X0142826Y0118179D03*
X0142826Y0118095D03*
X0142784Y0118053D03*
X0142784Y0118011D03*
X0142742Y0117927D03*
X0142742Y0117885D03*
X0142742Y0117843D03*
X0142700Y0117801D03*
X0142700Y0117717D03*
X0142658Y0117633D03*
X0142616Y0117507D03*
X0142616Y0117465D03*
X0142574Y0117381D03*
X0142574Y0117339D03*
X0142532Y0117213D03*
X0142448Y0116961D03*
X0139466Y0116499D03*
X0139424Y0116625D03*
X0139382Y0116751D03*
X0139382Y0116793D03*
X0139340Y0116877D03*
X0139298Y0117003D03*
X0139298Y0117045D03*
X0139256Y0117129D03*
X0139256Y0117171D03*
X0139214Y0117297D03*
X0139172Y0117381D03*
X0139130Y0117507D03*
X0139130Y0117549D03*
X0139088Y0117633D03*
X0139088Y0117675D03*
X0139046Y0117801D03*
X0139004Y0117927D03*
X0138962Y0118053D03*
X0138920Y0118179D03*
X0138920Y0118221D03*
X0138920Y0118263D03*
X0138122Y0120027D03*
X0136820Y0122001D03*
X0136778Y0122085D03*
X0136736Y0122127D03*
X0136694Y0122211D03*
X0136652Y0122253D03*
X0136568Y0122379D03*
X0136526Y0122463D03*
X0136484Y0122547D03*
X0136442Y0122589D03*
X0136400Y0122631D03*
X0136358Y0122715D03*
X0136316Y0122757D03*
X0136316Y0122799D03*
X0136232Y0122925D03*
X0136190Y0122967D03*
X0136148Y0123051D03*
X0136106Y0123093D03*
X0136106Y0123135D03*
X0136064Y0123177D03*
X0136022Y0123261D03*
X0135980Y0123303D03*
X0135938Y0123345D03*
X0135896Y0123429D03*
X0135854Y0123471D03*
X0135854Y0123513D03*
X0135770Y0123639D03*
X0135728Y0123681D03*
X0135686Y0123765D03*
X0135644Y0123807D03*
X0135560Y0123933D03*
X0134300Y0125907D03*
X0134300Y0125949D03*
X0130436Y0125949D03*
X0131906Y0122085D03*
X0141776Y0125949D03*
X0149714Y0124017D03*
X0149756Y0124101D03*
X0149756Y0124143D03*
X0149798Y0124185D03*
X0149798Y0124227D03*
X0149840Y0124311D03*
X0149714Y0121749D03*
X0149756Y0121665D03*
X0149798Y0121581D03*
X0149798Y0121539D03*
X0153788Y0121497D03*
X0153830Y0121581D03*
X0153872Y0121665D03*
X0153914Y0121749D03*
X0155930Y0121539D03*
X0156014Y0121413D03*
X0156014Y0121371D03*
X0156056Y0121329D03*
X0156014Y0124353D03*
X0156140Y0124563D03*
X0153872Y0124143D03*
X0153830Y0124227D03*
X0153788Y0124311D03*
X0153746Y0124395D03*
X0159710Y0124647D03*
X0132116Y0116121D03*
X0132116Y0116079D03*
X0132158Y0115953D03*
X0132158Y0115911D03*
X0132158Y0115827D03*
X0132200Y0115743D03*
X0132200Y0115701D03*
X0132200Y0115617D03*
X0132200Y0115575D03*
X0132200Y0115533D03*
X0132200Y0115449D03*
X0132200Y0115407D03*
X0132200Y0115365D03*
X0132200Y0115071D03*
X0132200Y0115029D03*
X0132200Y0114945D03*
X0132200Y0114903D03*
X0132200Y0114861D03*
X0132200Y0114777D03*
X0132200Y0114735D03*
X0132200Y0114693D03*
X0132200Y0114651D03*
X0132158Y0114567D03*
X0132158Y0114525D03*
X0132158Y0114483D03*
X0132158Y0114399D03*
X0132116Y0114357D03*
X0132116Y0114315D03*
X0132074Y0114189D03*
X0132074Y0114147D03*
X0132074Y0116247D03*
X0128294Y0116247D03*
X0128294Y0116289D03*
X0128294Y0116331D03*
X0128294Y0116415D03*
X0128294Y0116457D03*
X0128294Y0116499D03*
X0128294Y0116583D03*
X0128294Y0116625D03*
X0128294Y0116667D03*
X0128294Y0116751D03*
X0128294Y0116793D03*
X0128294Y0116835D03*
X0128294Y0116877D03*
X0128294Y0116961D03*
X0128294Y0117003D03*
X0128294Y0117045D03*
X0128294Y0117129D03*
X0128294Y0117171D03*
X0128294Y0117213D03*
X0128294Y0117297D03*
X0128294Y0117339D03*
X0128294Y0117381D03*
X0128294Y0116163D03*
X0128294Y0116121D03*
X0128294Y0116079D03*
X0128294Y0115995D03*
X0128294Y0115953D03*
X0128294Y0115911D03*
X0128294Y0115827D03*
X0128294Y0115785D03*
X0128294Y0115743D03*
X0128294Y0115701D03*
X0128294Y0115617D03*
X0128294Y0115575D03*
X0128294Y0115533D03*
X0128294Y0115449D03*
X0128294Y0115407D03*
X0128294Y0115365D03*
X0128294Y0115281D03*
X0128294Y0115239D03*
X0128294Y0115197D03*
X0128294Y0115113D03*
X0128294Y0115071D03*
X0128294Y0115029D03*
X0128294Y0114945D03*
X0128294Y0114903D03*
X0128294Y0114861D03*
X0128294Y0114777D03*
X0128294Y0114735D03*
X0128294Y0114693D03*
X0128294Y0114651D03*
X0128294Y0114567D03*
X0128294Y0114525D03*
X0128294Y0114483D03*
X0128294Y0114399D03*
X0128294Y0114357D03*
X0128294Y0114315D03*
X0128294Y0114231D03*
X0128294Y0114189D03*
X0128294Y0114147D03*
X0128294Y0114063D03*
X0128294Y0114021D03*
X0128294Y0113979D03*
X0128294Y0113895D03*
X0128294Y0113853D03*
X0128294Y0113811D03*
X0128294Y0113727D03*
X0128294Y0113685D03*
X0128294Y0113643D03*
X0128294Y0113601D03*
X0128294Y0113517D03*
X0128294Y0113475D03*
X0128294Y0113433D03*
X0128294Y0113349D03*
X0128294Y0113307D03*
X0128294Y0113265D03*
X0140894Y0112467D03*
X0140894Y0112425D03*
X0144506Y0112425D03*
X0144506Y0112383D03*
X0144506Y0112299D03*
X0144506Y0112467D03*
X0144506Y0112551D03*
X0144506Y0112593D03*
X0144506Y0112635D03*
X0144506Y0112677D03*
X0144506Y0112761D03*
X0144506Y0112803D03*
X0144506Y0112845D03*
X0144506Y0112929D03*
X0144506Y0112971D03*
X0144506Y0113013D03*
X0144506Y0113097D03*
X0144506Y0113139D03*
X0144506Y0113181D03*
X0144506Y0113265D03*
X0144506Y0113307D03*
X0144506Y0113349D03*
X0144506Y0113433D03*
X0144506Y0113475D03*
X0144506Y0113517D03*
X0144506Y0113601D03*
X0144506Y0113643D03*
X0144506Y0113685D03*
X0144506Y0113727D03*
X0144506Y0113811D03*
X0144506Y0113853D03*
X0144506Y0113895D03*
D29*
X0148517Y0112299D03*
X0158513Y0118347D03*
X0151835Y0125907D03*
X0137681Y0121371D03*
X0130457Y0124689D03*
X0130457Y0124731D03*
D30*
X0134867Y0124185D03*
X0134867Y0124143D03*
X0137555Y0121749D03*
X0157841Y0120027D03*
X0158513Y0112299D03*
D31*
X0158492Y0112509D03*
X0129260Y0112341D03*
D32*
X0135644Y0112341D03*
X0135644Y0112509D03*
X0135644Y0112719D03*
X0135644Y0112887D03*
X0135644Y0113055D03*
X0135644Y0113223D03*
D33*
X0133922Y0116205D03*
X0133922Y0116373D03*
X0133922Y0116541D03*
X0133922Y0116709D03*
X0133922Y0116919D03*
X0133922Y0117087D03*
X0133922Y0117255D03*
X0134258Y0119859D03*
X0134258Y0120069D03*
X0134258Y0120237D03*
X0134258Y0120405D03*
X0134258Y0120573D03*
X0134258Y0120741D03*
X0134258Y0120909D03*
X0134258Y0121119D03*
X0134258Y0121287D03*
X0134258Y0121455D03*
X0134258Y0121623D03*
X0134258Y0121791D03*
X0134258Y0121959D03*
X0134258Y0122169D03*
X0134258Y0122337D03*
X0134258Y0122505D03*
X0134258Y0122673D03*
X0134258Y0122841D03*
X0134258Y0123009D03*
X0134258Y0123219D03*
X0134258Y0123387D03*
X0134258Y0123555D03*
X0134258Y0123723D03*
X0134258Y0123891D03*
X0132284Y0121119D03*
X0132368Y0120909D03*
X0132494Y0120573D03*
X0128756Y0121119D03*
X0128630Y0120741D03*
X0128588Y0120573D03*
X0128546Y0120405D03*
X0128420Y0120069D03*
X0138164Y0121959D03*
X0138164Y0122169D03*
X0138164Y0122337D03*
X0138164Y0122505D03*
X0138164Y0122673D03*
X0138164Y0122841D03*
X0138164Y0123009D03*
X0138164Y0123219D03*
X0138164Y0123387D03*
X0138164Y0123555D03*
X0138164Y0123723D03*
X0138164Y0123891D03*
X0138164Y0124059D03*
X0138164Y0124269D03*
X0138164Y0124437D03*
X0138164Y0124605D03*
X0138164Y0124773D03*
X0138164Y0124941D03*
X0138164Y0125109D03*
X0138164Y0125319D03*
X0138164Y0125487D03*
X0138164Y0125655D03*
X0138164Y0125823D03*
X0138164Y0125991D03*
X0140012Y0120909D03*
X0139970Y0120741D03*
X0139844Y0120405D03*
X0139802Y0120237D03*
X0139760Y0120069D03*
X0139676Y0119859D03*
X0139676Y0115869D03*
X0139802Y0115491D03*
X0139844Y0115323D03*
X0139970Y0114987D03*
X0140012Y0114819D03*
X0140138Y0114441D03*
X0141818Y0114987D03*
X0141860Y0115155D03*
X0141986Y0115491D03*
X0142112Y0115869D03*
X0142154Y0116037D03*
X0142196Y0116205D03*
X0142364Y0116709D03*
X0140894Y0112341D03*
X0150512Y0114105D03*
X0156686Y0113559D03*
X0156686Y0116919D03*
X0160088Y0117087D03*
X0160382Y0113937D03*
X0160298Y0113559D03*
X0155762Y0121959D03*
X0155720Y0122169D03*
X0155762Y0123723D03*
X0155804Y0123891D03*
X0154082Y0123387D03*
X0154040Y0123555D03*
X0153998Y0123723D03*
X0154124Y0123009D03*
X0154124Y0122841D03*
X0154082Y0122505D03*
X0154082Y0122337D03*
X0154040Y0122169D03*
X0149588Y0122169D03*
X0149546Y0122337D03*
X0149546Y0122505D03*
X0149504Y0122673D03*
X0149504Y0122841D03*
X0149504Y0123009D03*
X0149546Y0123219D03*
X0149546Y0123387D03*
X0149588Y0123555D03*
X0149630Y0123723D03*
X0149672Y0123891D03*
X0145598Y0123891D03*
X0145598Y0123723D03*
X0145598Y0123555D03*
X0145598Y0123387D03*
X0145598Y0123219D03*
X0145598Y0123009D03*
X0145598Y0122841D03*
X0145598Y0122673D03*
X0145598Y0122505D03*
X0145598Y0122337D03*
X0145598Y0122169D03*
X0145598Y0121959D03*
X0145598Y0121791D03*
X0145598Y0121623D03*
X0145598Y0121455D03*
X0145598Y0121287D03*
X0145598Y0121119D03*
X0145598Y0120909D03*
X0143876Y0120405D03*
X0143750Y0120741D03*
X0143624Y0121119D03*
X0145598Y0124059D03*
X0145598Y0124269D03*
X0145598Y0124437D03*
X0145598Y0124605D03*
X0145598Y0124773D03*
X0145598Y0124941D03*
X0145598Y0125109D03*
X0145598Y0125319D03*
X0145598Y0125487D03*
X0145598Y0125655D03*
X0145598Y0125823D03*
X0145598Y0125991D03*
X0159836Y0124437D03*
D34*
X0159752Y0124605D03*
X0160046Y0121455D03*
X0158534Y0118473D03*
X0156812Y0117255D03*
X0156686Y0116541D03*
X0156770Y0113391D03*
X0160214Y0113391D03*
X0160340Y0114273D03*
X0150386Y0113769D03*
X0150386Y0116709D03*
X0146396Y0116205D03*
X0146354Y0116037D03*
X0146312Y0115869D03*
X0146312Y0115659D03*
X0146312Y0115491D03*
X0146312Y0115323D03*
X0146312Y0115155D03*
X0146354Y0114819D03*
X0146396Y0114609D03*
X0146438Y0114441D03*
X0146480Y0114273D03*
X0146564Y0114105D03*
X0144506Y0114105D03*
X0144506Y0113937D03*
X0144506Y0113769D03*
X0144506Y0113559D03*
X0144506Y0113391D03*
X0144506Y0113223D03*
X0144506Y0113055D03*
X0144506Y0112887D03*
X0144506Y0112719D03*
X0144506Y0112509D03*
X0144506Y0112341D03*
X0144506Y0114273D03*
X0144506Y0114441D03*
X0144506Y0114609D03*
X0144506Y0114819D03*
X0144506Y0114987D03*
X0144506Y0115155D03*
X0144506Y0115323D03*
X0144506Y0115491D03*
X0144506Y0115659D03*
X0144506Y0115869D03*
X0144506Y0116037D03*
X0144506Y0116205D03*
X0144506Y0116373D03*
X0144506Y0116541D03*
X0144506Y0116709D03*
X0144506Y0116919D03*
X0144506Y0117087D03*
X0144506Y0117255D03*
X0144506Y0117423D03*
X0144506Y0117591D03*
X0144506Y0117759D03*
X0144506Y0117969D03*
X0144506Y0118137D03*
X0144506Y0118305D03*
X0142826Y0118137D03*
X0142784Y0117969D03*
X0142700Y0117759D03*
X0142658Y0117591D03*
X0142490Y0117087D03*
X0139508Y0116373D03*
X0139340Y0116919D03*
X0139214Y0117255D03*
X0139172Y0117423D03*
X0138920Y0118305D03*
X0136610Y0122337D03*
X0136484Y0122505D03*
X0136400Y0122673D03*
X0136274Y0122841D03*
X0136190Y0123009D03*
X0136022Y0123219D03*
X0135938Y0123387D03*
X0135812Y0123555D03*
X0135602Y0123891D03*
X0130436Y0125991D03*
X0149840Y0124269D03*
X0149756Y0121623D03*
X0153872Y0121623D03*
X0155972Y0121455D03*
X0156056Y0124437D03*
X0153830Y0124269D03*
X0132158Y0115869D03*
X0132200Y0115659D03*
X0132200Y0115491D03*
X0132200Y0114987D03*
X0132200Y0114819D03*
X0132158Y0114441D03*
X0132116Y0114273D03*
X0128294Y0114273D03*
X0128294Y0114105D03*
X0128294Y0113937D03*
X0128294Y0113769D03*
X0128294Y0113559D03*
X0128294Y0113391D03*
X0128294Y0113223D03*
X0128294Y0114441D03*
X0128294Y0114609D03*
X0128294Y0114819D03*
X0128294Y0114987D03*
X0128294Y0115155D03*
X0128294Y0115323D03*
X0128294Y0115491D03*
X0128294Y0115659D03*
X0128294Y0115869D03*
X0128294Y0116037D03*
X0128294Y0116205D03*
X0128294Y0116373D03*
X0128294Y0116541D03*
X0128294Y0116709D03*
X0128294Y0116919D03*
X0128294Y0117087D03*
X0128294Y0117255D03*
D35*
X0148454Y0118305D03*
X0148538Y0112341D03*
X0157988Y0125823D03*
D36*
X0129911Y0117423D03*
X0153641Y0113223D03*
X0153641Y0113055D03*
X0153641Y0112887D03*
X0153641Y0112719D03*
X0153641Y0112509D03*
X0153641Y0112341D03*
D37*
X0158492Y0112341D03*
D38*
X0158492Y0112551D03*
X0158996Y0115113D03*
X0157820Y0120363D03*
X0148454Y0118011D03*
X0129344Y0118263D03*
X0123674Y0119565D03*
X0129344Y0112383D03*
D39*
X0132221Y0115113D03*
X0132221Y0115197D03*
X0132221Y0115239D03*
X0132221Y0115281D03*
X0133943Y0114945D03*
X0133943Y0114903D03*
X0133943Y0114861D03*
X0133943Y0114777D03*
X0133943Y0114735D03*
X0133943Y0114693D03*
X0133943Y0114651D03*
X0133943Y0114567D03*
X0133943Y0114525D03*
X0133943Y0114483D03*
X0133943Y0114399D03*
X0133943Y0114357D03*
X0133943Y0114315D03*
X0133943Y0114231D03*
X0133943Y0114189D03*
X0133943Y0114147D03*
X0133943Y0114063D03*
X0133943Y0114021D03*
X0133943Y0113979D03*
X0133943Y0113895D03*
X0133943Y0113853D03*
X0133943Y0113811D03*
X0133943Y0113727D03*
X0133943Y0113685D03*
X0133943Y0113643D03*
X0133943Y0113601D03*
X0133943Y0113517D03*
X0133943Y0113475D03*
X0133943Y0113433D03*
X0133943Y0113349D03*
X0133943Y0113307D03*
X0139823Y0115407D03*
X0139781Y0115533D03*
X0139697Y0115785D03*
X0139697Y0115827D03*
X0139655Y0115911D03*
X0139655Y0115953D03*
X0139613Y0116079D03*
X0139571Y0116163D03*
X0139571Y0116247D03*
X0139529Y0116289D03*
X0139529Y0116331D03*
X0139487Y0116415D03*
X0139487Y0116457D03*
X0139445Y0116583D03*
X0139403Y0116667D03*
X0139361Y0116835D03*
X0139319Y0116961D03*
X0139235Y0117213D03*
X0138899Y0118347D03*
X0138899Y0118389D03*
X0139697Y0119901D03*
X0139739Y0120027D03*
X0139781Y0120153D03*
X0138143Y0119985D03*
X0138143Y0119943D03*
X0136799Y0122043D03*
X0136631Y0122295D03*
X0136547Y0122421D03*
X0136253Y0122883D03*
X0132389Y0120867D03*
X0132473Y0120615D03*
X0132515Y0120531D03*
X0132515Y0120489D03*
X0132557Y0120363D03*
X0132599Y0120279D03*
X0132641Y0120195D03*
X0132641Y0120153D03*
X0132641Y0120111D03*
X0132683Y0120027D03*
X0132725Y0119985D03*
X0132725Y0119943D03*
X0132725Y0119901D03*
X0131885Y0122127D03*
X0131885Y0122211D03*
X0128441Y0120111D03*
X0128399Y0119985D03*
X0142175Y0116121D03*
X0142217Y0116247D03*
X0142301Y0116499D03*
X0142343Y0116625D03*
X0142343Y0116667D03*
X0142385Y0116751D03*
X0142385Y0116793D03*
X0142427Y0116877D03*
X0142469Y0117003D03*
X0142469Y0117045D03*
X0142511Y0117129D03*
X0142511Y0117171D03*
X0142553Y0117297D03*
X0142637Y0117549D03*
X0142679Y0117675D03*
X0142847Y0118263D03*
X0142847Y0118347D03*
X0144065Y0119901D03*
X0144023Y0119943D03*
X0144023Y0119985D03*
X0144023Y0120027D03*
X0143981Y0120111D03*
X0143981Y0120153D03*
X0143939Y0120195D03*
X0143897Y0120321D03*
X0143897Y0120363D03*
X0143855Y0120447D03*
X0143855Y0120489D03*
X0143771Y0120657D03*
X0143771Y0120699D03*
X0143729Y0120783D03*
X0143729Y0120825D03*
X0143645Y0121035D03*
X0143603Y0121161D03*
X0143225Y0122085D03*
X0143225Y0122127D03*
X0149525Y0122589D03*
X0149567Y0122295D03*
X0149567Y0122253D03*
X0149609Y0122085D03*
X0149609Y0122043D03*
X0149651Y0121917D03*
X0149651Y0121875D03*
X0149693Y0121833D03*
X0149735Y0121707D03*
X0149567Y0123471D03*
X0149609Y0123639D03*
X0149609Y0123681D03*
X0149651Y0123807D03*
X0149651Y0123849D03*
X0149693Y0123933D03*
X0149693Y0123975D03*
X0153851Y0124185D03*
X0153893Y0124101D03*
X0153935Y0124017D03*
X0153935Y0123975D03*
X0153935Y0123933D03*
X0153977Y0123849D03*
X0154019Y0123681D03*
X0154061Y0122295D03*
X0154019Y0122127D03*
X0154019Y0122085D03*
X0153977Y0121917D03*
X0153935Y0121875D03*
X0153935Y0121833D03*
X0153893Y0121707D03*
X0155867Y0121707D03*
X0155867Y0121665D03*
X0155909Y0121581D03*
X0155951Y0121497D03*
X0155909Y0124143D03*
X0155909Y0124185D03*
X0155951Y0124227D03*
X0155993Y0124311D03*
X0156035Y0124395D03*
X0159773Y0124563D03*
X0159815Y0124479D03*
X0160067Y0121539D03*
X0160067Y0121497D03*
X0160067Y0117171D03*
X0160361Y0114189D03*
X0160361Y0114147D03*
X0160361Y0114063D03*
X0160319Y0113601D03*
X0160277Y0113517D03*
X0160235Y0113433D03*
X0156749Y0113433D03*
X0156749Y0113475D03*
X0156707Y0113517D03*
X0156665Y0116583D03*
X0156665Y0116625D03*
X0156665Y0116667D03*
X0156791Y0117213D03*
X0150491Y0116499D03*
X0150491Y0116457D03*
X0150449Y0116583D03*
X0150491Y0114021D03*
X0150491Y0113979D03*
X0150449Y0113895D03*
X0146501Y0114231D03*
X0146459Y0114357D03*
X0146417Y0114483D03*
X0146417Y0114525D03*
X0146375Y0114651D03*
X0146375Y0114693D03*
X0146375Y0114735D03*
X0146375Y0114777D03*
X0146333Y0114903D03*
X0146333Y0114945D03*
X0146333Y0115029D03*
X0146333Y0115071D03*
X0140915Y0112383D03*
D40*
X0148538Y0112383D03*
X0148454Y0118263D03*
X0159416Y0122211D03*
X0159416Y0122253D03*
X0159416Y0122295D03*
X0159416Y0122379D03*
X0159416Y0122421D03*
X0159416Y0122463D03*
X0159416Y0122547D03*
X0159416Y0122589D03*
X0159416Y0122631D03*
X0159416Y0122715D03*
X0159416Y0122757D03*
X0159416Y0122799D03*
X0159416Y0122883D03*
X0159416Y0122925D03*
X0159416Y0122967D03*
X0159416Y0123051D03*
X0159416Y0123093D03*
X0157988Y0125781D03*
X0134930Y0123975D03*
X0124094Y0119103D03*
D41*
X0123968Y0119229D03*
X0113006Y0119229D03*
X0113006Y0119271D03*
X0113006Y0119313D03*
X0113006Y0119397D03*
X0113006Y0119439D03*
X0113006Y0119481D03*
X0113006Y0119565D03*
X0113006Y0119607D03*
X0113006Y0119649D03*
X0113006Y0119733D03*
X0113006Y0119775D03*
X0113006Y0119817D03*
X0113006Y0119901D03*
X0113006Y0119943D03*
X0113006Y0119985D03*
X0113006Y0120027D03*
X0113006Y0120111D03*
X0113006Y0120153D03*
X0113006Y0120195D03*
X0113006Y0120279D03*
X0113006Y0120321D03*
X0113006Y0120363D03*
X0113006Y0120447D03*
X0113006Y0120489D03*
X0113006Y0120531D03*
X0113006Y0120615D03*
X0113006Y0120657D03*
X0113006Y0120699D03*
X0113006Y0120783D03*
X0113006Y0120825D03*
X0113006Y0120867D03*
X0113006Y0120951D03*
X0113006Y0120993D03*
X0113006Y0121035D03*
X0113006Y0121077D03*
X0113006Y0121161D03*
X0113006Y0121203D03*
X0113006Y0121245D03*
X0113006Y0121329D03*
X0113006Y0121371D03*
X0113006Y0121413D03*
X0113006Y0121497D03*
X0113006Y0121539D03*
X0113006Y0121581D03*
X0113006Y0121665D03*
X0113006Y0121707D03*
X0113006Y0121749D03*
X0113006Y0121833D03*
X0113006Y0121875D03*
X0113006Y0121917D03*
X0113006Y0122001D03*
X0113006Y0122043D03*
X0113006Y0122085D03*
X0113006Y0122127D03*
X0113006Y0122211D03*
X0113006Y0122253D03*
X0113006Y0122295D03*
X0113006Y0122379D03*
X0113006Y0122421D03*
X0113006Y0122463D03*
X0113006Y0122547D03*
X0113006Y0122589D03*
X0113006Y0122631D03*
X0113006Y0122715D03*
X0113006Y0122757D03*
X0113006Y0122799D03*
X0113006Y0122883D03*
X0113006Y0122925D03*
X0113006Y0122967D03*
X0113006Y0123051D03*
X0113006Y0123093D03*
X0113006Y0123135D03*
X0113006Y0123177D03*
X0113006Y0123261D03*
X0113006Y0123303D03*
X0113006Y0123345D03*
X0113006Y0123429D03*
X0113006Y0123471D03*
X0113006Y0123513D03*
X0113006Y0123597D03*
X0113006Y0123639D03*
X0113006Y0123681D03*
X0113006Y0123765D03*
X0113006Y0119145D03*
X0113006Y0119103D03*
X0113006Y0119061D03*
X0113006Y0118977D03*
X0113006Y0118935D03*
X0113006Y0118893D03*
X0113006Y0118851D03*
X0113006Y0118767D03*
X0113006Y0118725D03*
X0113006Y0118683D03*
X0113006Y0118599D03*
X0113006Y0118557D03*
X0113006Y0118515D03*
X0113006Y0118431D03*
X0113006Y0118389D03*
X0113006Y0118347D03*
X0113006Y0118263D03*
X0113006Y0118221D03*
X0113006Y0118179D03*
X0113006Y0118095D03*
X0113006Y0118053D03*
X0113006Y0118011D03*
X0113006Y0117927D03*
X0113006Y0117885D03*
X0113006Y0117843D03*
X0113006Y0117801D03*
X0113006Y0117717D03*
X0113006Y0117675D03*
X0113006Y0117633D03*
X0113006Y0117549D03*
X0113006Y0117507D03*
X0113006Y0117465D03*
X0113006Y0117381D03*
X0113006Y0117339D03*
X0113006Y0117297D03*
X0113006Y0117213D03*
X0113006Y0117171D03*
X0113006Y0117129D03*
X0113006Y0117045D03*
X0113006Y0117003D03*
X0113006Y0116961D03*
X0113006Y0116877D03*
X0113006Y0116835D03*
X0113006Y0116793D03*
X0113006Y0116751D03*
X0113006Y0116667D03*
X0113006Y0116625D03*
X0113006Y0116583D03*
X0113006Y0116499D03*
X0113006Y0116457D03*
X0113006Y0116415D03*
X0113006Y0116331D03*
X0113006Y0116289D03*
X0113006Y0116247D03*
X0113006Y0116163D03*
X0113006Y0116121D03*
X0113006Y0116079D03*
X0113006Y0115995D03*
X0113006Y0115953D03*
X0113006Y0115911D03*
X0113006Y0115827D03*
X0113006Y0115785D03*
X0113006Y0115743D03*
X0113006Y0115701D03*
X0113006Y0115617D03*
X0113006Y0115575D03*
X0113006Y0115533D03*
X0113006Y0115449D03*
X0113006Y0115407D03*
X0113006Y0115365D03*
X0113006Y0115281D03*
X0113006Y0115239D03*
X0113006Y0115197D03*
X0113006Y0115113D03*
X0113006Y0115071D03*
X0113006Y0115029D03*
X0113006Y0114945D03*
X0113006Y0114903D03*
X0113006Y0114861D03*
X0113006Y0114777D03*
X0113006Y0114735D03*
X0113006Y0114693D03*
X0113006Y0114651D03*
X0113006Y0114567D03*
X0113006Y0114525D03*
X0113006Y0114483D03*
X0113006Y0114399D03*
X0113006Y0114357D03*
X0113006Y0114315D03*
X0113006Y0114231D03*
X0113006Y0114189D03*
X0113006Y0114147D03*
X0113006Y0114063D03*
X0113006Y0114021D03*
X0113006Y0113979D03*
X0113006Y0113895D03*
X0158492Y0112383D03*
X0158492Y0118221D03*
D42*
X0158177Y0115617D03*
X0158849Y0115197D03*
X0129407Y0112425D03*
X0129407Y0118221D03*
X0123611Y0118221D03*
D43*
X0148454Y0118221D03*
X0157820Y0120111D03*
X0148538Y0112425D03*
D44*
X0158492Y0112425D03*
X0157820Y0120195D03*
X0151814Y0120111D03*
X0123884Y0118557D03*
D45*
X0129470Y0112467D03*
X0158450Y0115449D03*
X0158576Y0115365D03*
X0157820Y0120489D03*
D46*
X0158492Y0118179D03*
X0148538Y0112467D03*
D47*
X0148538Y0112551D03*
X0158492Y0112467D03*
X0151814Y0120153D03*
X0148454Y0118095D03*
X0129218Y0118347D03*
D48*
X0129512Y0112509D03*
D49*
X0123863Y0119355D03*
X0148433Y0118137D03*
X0148559Y0112509D03*
X0157967Y0125655D03*
D50*
X0158450Y0117801D03*
X0129554Y0112551D03*
X0123464Y0118053D03*
D51*
X0131906Y0116667D03*
X0131948Y0116583D03*
X0131990Y0116499D03*
X0131990Y0116457D03*
X0131948Y0113853D03*
X0140894Y0112593D03*
X0140894Y0112551D03*
X0146732Y0113727D03*
X0146774Y0113643D03*
X0146816Y0113601D03*
X0146522Y0116667D03*
X0146564Y0116751D03*
X0146564Y0116793D03*
X0146606Y0116835D03*
X0150302Y0116877D03*
X0150302Y0113601D03*
X0150260Y0113517D03*
X0150218Y0113475D03*
X0156854Y0113307D03*
X0156896Y0113265D03*
X0156770Y0116331D03*
X0156938Y0117381D03*
X0159920Y0117381D03*
X0159962Y0117339D03*
X0160298Y0114357D03*
X0160172Y0113349D03*
X0160130Y0113307D03*
X0138080Y0120153D03*
X0149924Y0121329D03*
X0149966Y0121245D03*
X0150008Y0121203D03*
X0149966Y0124521D03*
X0150008Y0124563D03*
X0151856Y0126033D03*
X0153662Y0124521D03*
X0156224Y0124689D03*
X0156140Y0121203D03*
X0156182Y0121161D03*
X0153746Y0121413D03*
X0153704Y0121329D03*
X0160004Y0121371D03*
X0134342Y0125781D03*
X0130436Y0125865D03*
D52*
X0129596Y0118011D03*
X0123422Y0118011D03*
X0129596Y0112593D03*
X0151814Y0120447D03*
X0158492Y0112761D03*
D53*
X0148559Y0112593D03*
X0148433Y0118053D03*
X0123737Y0118389D03*
D54*
X0123632Y0118263D03*
X0123632Y0119607D03*
X0151814Y0120279D03*
X0151814Y0125529D03*
X0158492Y0112593D03*
D55*
X0148580Y0112929D03*
X0146984Y0119901D03*
X0146984Y0119943D03*
X0146984Y0119985D03*
X0146984Y0120027D03*
X0146984Y0120111D03*
X0146984Y0120153D03*
X0146984Y0120195D03*
X0146984Y0120279D03*
X0146984Y0120321D03*
X0146984Y0120363D03*
X0146984Y0120447D03*
X0146984Y0120489D03*
X0146984Y0120531D03*
X0146984Y0120615D03*
X0146984Y0120657D03*
X0146984Y0120699D03*
X0146984Y0120783D03*
X0146984Y0120825D03*
X0146984Y0120867D03*
X0158450Y0117717D03*
X0129638Y0112635D03*
X0123380Y0119901D03*
D56*
X0131780Y0116877D03*
X0131822Y0116835D03*
X0140894Y0112677D03*
X0140894Y0112635D03*
X0146690Y0117003D03*
X0150134Y0117129D03*
X0150134Y0113349D03*
X0156812Y0116289D03*
X0156266Y0121035D03*
X0159962Y0121245D03*
X0153494Y0124731D03*
X0150134Y0124731D03*
X0141776Y0125697D03*
X0141776Y0125739D03*
X0134384Y0125697D03*
D57*
X0151835Y0125571D03*
X0157967Y0125529D03*
X0148559Y0112635D03*
D58*
X0158492Y0112635D03*
X0158324Y0115533D03*
X0151814Y0120321D03*
X0157820Y0120447D03*
X0157988Y0125445D03*
D59*
X0157967Y0125235D03*
X0151835Y0125277D03*
X0148433Y0117717D03*
X0153389Y0115995D03*
X0153389Y0115953D03*
X0153389Y0115911D03*
X0153389Y0115827D03*
X0153389Y0115785D03*
X0153389Y0115743D03*
X0153389Y0115701D03*
X0153389Y0115617D03*
X0153389Y0115575D03*
X0153389Y0115533D03*
X0153389Y0115449D03*
X0153389Y0115407D03*
X0153389Y0115365D03*
X0153389Y0115281D03*
X0153389Y0115239D03*
X0153389Y0115197D03*
X0153389Y0115113D03*
X0153389Y0115071D03*
X0153389Y0115029D03*
X0153389Y0114945D03*
X0129659Y0112677D03*
X0129659Y0117927D03*
X0123359Y0117927D03*
D60*
X0148559Y0112677D03*
X0158471Y0118011D03*
D61*
X0151814Y0120363D03*
X0158492Y0112677D03*
D62*
X0158513Y0112887D03*
X0141839Y0121959D03*
X0129701Y0112719D03*
D63*
X0131780Y0113559D03*
X0140894Y0112719D03*
X0134384Y0125655D03*
X0156308Y0124773D03*
D64*
X0158387Y0115491D03*
X0148559Y0112719D03*
X0123569Y0119691D03*
D65*
X0151814Y0120405D03*
X0158492Y0112719D03*
D66*
X0158492Y0112929D03*
X0148454Y0117633D03*
X0135392Y0116079D03*
X0135392Y0115995D03*
X0135392Y0115953D03*
X0135392Y0115911D03*
X0135392Y0115827D03*
X0135392Y0115785D03*
X0135392Y0115743D03*
X0135392Y0115701D03*
X0135392Y0115617D03*
X0135392Y0115575D03*
X0135392Y0115533D03*
X0135392Y0115449D03*
X0135392Y0115407D03*
X0135392Y0115365D03*
X0135392Y0115281D03*
X0135392Y0115239D03*
X0135392Y0115197D03*
X0135392Y0115113D03*
X0135392Y0115071D03*
X0135392Y0115029D03*
X0129722Y0112761D03*
X0129722Y0117843D03*
X0130520Y0121917D03*
X0123296Y0119985D03*
D67*
X0131654Y0117045D03*
X0131654Y0113433D03*
X0140894Y0112845D03*
X0140894Y0112803D03*
X0140894Y0112761D03*
X0147068Y0113307D03*
X0150050Y0113265D03*
X0146900Y0117297D03*
X0151814Y0119817D03*
X0153452Y0121035D03*
X0156434Y0124899D03*
X0159920Y0121161D03*
X0150218Y0124815D03*
X0141776Y0125571D03*
X0141776Y0125613D03*
X0134426Y0125571D03*
X0134426Y0125529D03*
X0130436Y0125613D03*
X0160172Y0114525D03*
D68*
X0158513Y0115407D03*
X0158471Y0117885D03*
X0148433Y0117885D03*
X0148559Y0112761D03*
X0123527Y0119733D03*
X0151835Y0125445D03*
X0157967Y0125403D03*
D69*
X0151814Y0125151D03*
X0151814Y0120615D03*
X0141860Y0121833D03*
X0130520Y0121833D03*
X0123254Y0120027D03*
X0123254Y0117801D03*
X0129764Y0112803D03*
X0158492Y0112971D03*
D70*
X0148559Y0112803D03*
X0148433Y0117843D03*
X0158471Y0117843D03*
X0157967Y0125361D03*
X0151835Y0125403D03*
X0129533Y0118095D03*
X0123485Y0118095D03*
X0123485Y0119775D03*
D71*
X0151814Y0120489D03*
X0158492Y0112803D03*
D72*
X0141839Y0121749D03*
X0129785Y0117717D03*
X0129785Y0112845D03*
D73*
X0129575Y0118053D03*
X0123443Y0119817D03*
X0148433Y0117801D03*
X0148559Y0112845D03*
X0151835Y0125361D03*
D74*
X0151814Y0120531D03*
X0158450Y0117675D03*
X0158492Y0112845D03*
X0148580Y0112971D03*
X0129680Y0117885D03*
X0130520Y0122001D03*
X0130520Y0122043D03*
X0123338Y0119943D03*
D75*
X0123212Y0117759D03*
X0129806Y0112887D03*
D76*
X0123401Y0119859D03*
X0148433Y0117759D03*
X0148559Y0112887D03*
D77*
X0153557Y0118431D03*
X0141839Y0121665D03*
X0129827Y0117633D03*
X0123191Y0120111D03*
X0129827Y0112929D03*
D78*
X0131528Y0117171D03*
X0140894Y0112971D03*
X0140894Y0112929D03*
X0146984Y0117381D03*
X0148454Y0118431D03*
X0149924Y0117381D03*
X0149924Y0113181D03*
X0157106Y0117507D03*
X0160130Y0114567D03*
X0159920Y0113139D03*
X0156476Y0120867D03*
X0153368Y0120951D03*
X0153326Y0124899D03*
X0150302Y0124899D03*
X0141776Y0125445D03*
X0137954Y0120531D03*
X0134468Y0125403D03*
X0134468Y0125445D03*
X0159374Y0124983D03*
D79*
X0151814Y0125067D03*
X0141860Y0121581D03*
X0130520Y0121581D03*
X0123170Y0117717D03*
X0129848Y0112971D03*
X0153578Y0117339D03*
X0153578Y0117381D03*
X0153578Y0117465D03*
X0153578Y0117507D03*
X0153578Y0117549D03*
X0153578Y0117633D03*
X0153578Y0117675D03*
X0153578Y0117717D03*
X0153578Y0117801D03*
X0153578Y0117843D03*
X0153578Y0117885D03*
X0153578Y0117927D03*
X0153578Y0118011D03*
X0153578Y0118053D03*
X0153578Y0118095D03*
X0153578Y0118179D03*
X0153578Y0118221D03*
X0153578Y0118263D03*
X0153578Y0118347D03*
X0153578Y0118389D03*
D80*
X0141839Y0121539D03*
X0130541Y0121539D03*
X0129869Y0117549D03*
X0123149Y0120153D03*
X0129869Y0113013D03*
D81*
X0123317Y0117885D03*
X0141839Y0122001D03*
X0141839Y0122043D03*
X0148433Y0117675D03*
X0158429Y0117633D03*
X0157967Y0125193D03*
X0151835Y0125235D03*
X0148559Y0113013D03*
D82*
X0158492Y0113013D03*
X0151814Y0120657D03*
X0151814Y0120699D03*
X0141860Y0121707D03*
D83*
X0141860Y0121455D03*
X0130520Y0121455D03*
X0129890Y0113055D03*
D84*
X0140894Y0113055D03*
X0160088Y0114609D03*
X0141776Y0125319D03*
D85*
X0148559Y0113055D03*
D86*
X0157253Y0113055D03*
D87*
X0159710Y0113055D03*
X0140894Y0113391D03*
X0156728Y0120741D03*
D88*
X0153095Y0125025D03*
X0151835Y0125949D03*
X0150533Y0120783D03*
X0148433Y0118389D03*
X0137807Y0120993D03*
X0134615Y0124983D03*
X0130457Y0125025D03*
X0130457Y0125067D03*
X0141797Y0125067D03*
X0131297Y0117339D03*
X0147383Y0113097D03*
X0159941Y0114693D03*
D89*
X0157862Y0119901D03*
X0149672Y0117549D03*
X0149756Y0113097D03*
X0140894Y0113265D03*
X0140894Y0113307D03*
X0140894Y0113349D03*
X0141776Y0125151D03*
X0134594Y0125025D03*
X0150554Y0125025D03*
X0156770Y0125067D03*
D90*
X0156581Y0124983D03*
X0159311Y0125025D03*
X0159857Y0121077D03*
X0158513Y0118431D03*
X0156539Y0120825D03*
X0137933Y0120615D03*
X0134489Y0125361D03*
X0130457Y0125403D03*
X0130457Y0125445D03*
X0131549Y0113349D03*
X0147215Y0113181D03*
X0157127Y0113097D03*
D91*
X0159815Y0113097D03*
X0149735Y0117507D03*
X0157211Y0117549D03*
X0156665Y0125025D03*
X0158009Y0125949D03*
X0150449Y0124983D03*
X0134531Y0125193D03*
X0134531Y0125235D03*
X0130457Y0125277D03*
X0131465Y0113307D03*
D92*
X0129932Y0113139D03*
X0135602Y0117465D03*
X0135602Y0117507D03*
X0135602Y0117549D03*
X0135602Y0117633D03*
X0135602Y0117675D03*
X0135602Y0117717D03*
X0135602Y0117801D03*
X0135602Y0117843D03*
X0135602Y0117885D03*
X0135602Y0117927D03*
X0135602Y0118011D03*
X0135602Y0118053D03*
X0135602Y0118095D03*
X0135602Y0118179D03*
X0135602Y0118221D03*
X0135602Y0118263D03*
X0135602Y0118347D03*
X0135602Y0118389D03*
X0130520Y0121329D03*
X0130520Y0121371D03*
X0141860Y0121371D03*
X0141860Y0121329D03*
D93*
X0141776Y0125193D03*
X0141776Y0125235D03*
X0141776Y0125277D03*
X0159794Y0120993D03*
X0140894Y0113181D03*
X0140894Y0113139D03*
D94*
X0147278Y0113139D03*
X0157022Y0116079D03*
X0160004Y0114651D03*
X0156602Y0120783D03*
X0153200Y0124983D03*
X0150428Y0120825D03*
X0137870Y0120825D03*
X0137870Y0120783D03*
X0134552Y0125151D03*
X0131360Y0117297D03*
D95*
X0131591Y0117129D03*
X0137975Y0120447D03*
X0137975Y0120489D03*
X0141755Y0125529D03*
X0150281Y0124857D03*
X0153389Y0124857D03*
X0150197Y0120993D03*
X0150239Y0120951D03*
X0149945Y0117339D03*
X0149987Y0117297D03*
X0146963Y0117339D03*
X0147089Y0113265D03*
X0157043Y0113139D03*
X0159983Y0113181D03*
X0156917Y0116163D03*
X0159773Y0117507D03*
X0130457Y0125529D03*
X0130457Y0125571D03*
D96*
X0129953Y0113181D03*
D97*
X0147005Y0113349D03*
X0146795Y0117171D03*
X0146837Y0117213D03*
X0156833Y0116247D03*
X0157043Y0117465D03*
X0157001Y0113181D03*
X0156329Y0120993D03*
X0153515Y0121077D03*
X0150155Y0121035D03*
X0150113Y0121077D03*
X0156413Y0124857D03*
X0159479Y0124899D03*
X0159941Y0121203D03*
X0134405Y0125613D03*
D98*
X0134678Y0124773D03*
X0131276Y0113223D03*
X0140894Y0113559D03*
D99*
X0140894Y0113223D03*
D100*
X0149987Y0113223D03*
X0156875Y0116205D03*
X0156413Y0120909D03*
X0156497Y0124941D03*
X0134447Y0125487D03*
X0131633Y0117087D03*
X0131591Y0113391D03*
D101*
X0146732Y0117087D03*
X0156938Y0113223D03*
X0160046Y0113223D03*
X0159878Y0117423D03*
X0153536Y0121119D03*
X0150092Y0121119D03*
D102*
X0159185Y0125067D03*
X0137849Y0120867D03*
X0130457Y0125151D03*
X0130457Y0125193D03*
X0130457Y0125235D03*
X0131381Y0113265D03*
D103*
X0138038Y0120279D03*
X0146774Y0117129D03*
X0150092Y0117171D03*
X0146900Y0113475D03*
X0146942Y0113433D03*
X0160088Y0113265D03*
X0160214Y0114483D03*
X0159836Y0117465D03*
X0153578Y0121161D03*
X0153536Y0124689D03*
X0156350Y0124815D03*
X0159542Y0124857D03*
X0150092Y0124689D03*
X0130436Y0125697D03*
X0130436Y0125739D03*
D104*
X0138017Y0120363D03*
X0138017Y0120321D03*
X0131717Y0116961D03*
X0131717Y0113517D03*
X0150071Y0113307D03*
X0150071Y0117213D03*
X0156371Y0120951D03*
D105*
X0155909Y0121623D03*
X0155825Y0121791D03*
X0153977Y0121959D03*
X0153935Y0121791D03*
X0153977Y0123891D03*
X0153893Y0124059D03*
X0155867Y0124059D03*
X0155951Y0124269D03*
X0149735Y0124059D03*
X0149651Y0121959D03*
X0149693Y0121791D03*
X0148433Y0118473D03*
X0150449Y0116541D03*
X0150449Y0113937D03*
X0146333Y0114987D03*
X0142259Y0116373D03*
X0142301Y0116541D03*
X0142427Y0116919D03*
X0142553Y0117255D03*
X0142595Y0117423D03*
X0142847Y0118305D03*
X0144065Y0119859D03*
X0143981Y0120069D03*
X0143939Y0120237D03*
X0143813Y0120573D03*
X0143687Y0120909D03*
X0143225Y0122169D03*
X0141755Y0125991D03*
X0136715Y0122169D03*
X0136841Y0121959D03*
X0132557Y0120405D03*
X0132599Y0120237D03*
X0132683Y0120069D03*
X0132767Y0119859D03*
X0132431Y0120741D03*
X0131885Y0122169D03*
X0128483Y0120237D03*
X0128357Y0119859D03*
X0132221Y0115323D03*
X0132221Y0115155D03*
X0132179Y0114609D03*
X0133943Y0114609D03*
X0133943Y0114441D03*
X0133943Y0114273D03*
X0133943Y0114105D03*
X0133943Y0113937D03*
X0133943Y0113769D03*
X0133943Y0113559D03*
X0133943Y0113391D03*
X0133943Y0114819D03*
X0139445Y0116541D03*
X0139403Y0116709D03*
X0139277Y0117087D03*
X0139571Y0116205D03*
X0139613Y0116037D03*
X0139739Y0115659D03*
X0156665Y0116709D03*
X0160025Y0117255D03*
X0160361Y0114105D03*
X0134279Y0125991D03*
D106*
X0141755Y0125655D03*
X0153473Y0124773D03*
X0158009Y0125991D03*
X0159437Y0124941D03*
X0150029Y0117255D03*
X0146963Y0113391D03*
X0131759Y0116919D03*
D107*
X0146837Y0113559D03*
X0150155Y0113391D03*
X0150155Y0117087D03*
D108*
X0151961Y0117087D03*
X0151961Y0116919D03*
X0151961Y0116709D03*
X0151961Y0116541D03*
X0151961Y0116373D03*
X0151961Y0116205D03*
X0151961Y0116037D03*
X0151961Y0114819D03*
X0151961Y0114609D03*
X0151961Y0114441D03*
X0151961Y0114273D03*
X0151961Y0114105D03*
X0151961Y0113937D03*
X0151961Y0113769D03*
X0151961Y0113559D03*
X0151961Y0113391D03*
X0151961Y0117255D03*
X0156581Y0113937D03*
X0156623Y0113769D03*
X0160361Y0113769D03*
X0160151Y0116919D03*
X0160109Y0121623D03*
X0143183Y0122337D03*
X0143141Y0122505D03*
X0143015Y0122841D03*
X0140411Y0122169D03*
X0140075Y0121119D03*
X0131843Y0122337D03*
X0131801Y0122505D03*
X0131675Y0122841D03*
X0131423Y0123555D03*
X0129155Y0122337D03*
X0129113Y0122169D03*
X0128693Y0120909D03*
X0141923Y0115323D03*
X0141755Y0114819D03*
X0141713Y0114609D03*
X0141629Y0114441D03*
X0141587Y0114273D03*
X0140243Y0114105D03*
X0140201Y0114273D03*
X0140075Y0114609D03*
D109*
X0146879Y0113517D03*
X0150197Y0113433D03*
X0150239Y0116961D03*
X0150197Y0117003D03*
X0150197Y0117045D03*
X0146711Y0117045D03*
X0146627Y0116877D03*
X0138059Y0120195D03*
X0131843Y0116793D03*
X0131843Y0116751D03*
X0131927Y0116625D03*
X0131885Y0113727D03*
X0131843Y0113685D03*
X0131843Y0113643D03*
X0150029Y0121161D03*
X0150071Y0124647D03*
X0153557Y0124647D03*
X0153641Y0124563D03*
X0153641Y0121245D03*
X0153599Y0121203D03*
X0156245Y0121077D03*
X0157883Y0119817D03*
X0159983Y0121329D03*
X0159563Y0124815D03*
X0134363Y0125739D03*
X0130457Y0125781D03*
X0160277Y0114399D03*
D110*
X0153410Y0120993D03*
X0153410Y0124815D03*
X0131696Y0117003D03*
X0131696Y0113475D03*
D111*
X0140873Y0113475D03*
X0159689Y0120867D03*
X0134657Y0124815D03*
X0130457Y0124983D03*
D112*
X0130478Y0124899D03*
X0134678Y0124731D03*
X0137744Y0121203D03*
X0137744Y0121161D03*
X0141776Y0124857D03*
X0141776Y0124899D03*
X0140894Y0113517D03*
D113*
X0146627Y0113937D03*
X0146711Y0113769D03*
X0146417Y0116373D03*
X0146543Y0116709D03*
X0150281Y0113559D03*
X0156749Y0116373D03*
X0156077Y0121287D03*
X0153767Y0121455D03*
X0153725Y0124437D03*
X0156161Y0124605D03*
X0149861Y0121455D03*
X0139067Y0117759D03*
X0139109Y0117591D03*
X0138983Y0117969D03*
X0138941Y0118137D03*
X0138101Y0120069D03*
X0132095Y0116205D03*
X0132137Y0116037D03*
X0132053Y0114105D03*
X0135707Y0123723D03*
D114*
X0141755Y0125781D03*
X0156287Y0124731D03*
X0146669Y0116961D03*
X0131801Y0113601D03*
D115*
X0140873Y0113601D03*
X0157211Y0115995D03*
X0159857Y0114735D03*
X0157841Y0119943D03*
X0159647Y0120825D03*
X0141797Y0124815D03*
X0137723Y0121245D03*
X0134699Y0124689D03*
X0130457Y0124815D03*
X0130457Y0124857D03*
D116*
X0140894Y0113685D03*
X0140894Y0113643D03*
D117*
X0139193Y0117339D03*
X0139151Y0117465D03*
X0139067Y0117717D03*
X0139025Y0117843D03*
X0139025Y0117885D03*
X0138983Y0118011D03*
X0138941Y0118095D03*
X0138101Y0120111D03*
X0132011Y0116415D03*
X0132053Y0116331D03*
X0132053Y0116289D03*
X0132095Y0116163D03*
X0132137Y0115995D03*
X0132179Y0115785D03*
X0132095Y0114231D03*
X0132053Y0114063D03*
X0132011Y0114021D03*
X0132011Y0113979D03*
X0131969Y0113895D03*
X0131927Y0113811D03*
X0146375Y0116121D03*
X0146375Y0116163D03*
X0146417Y0116289D03*
X0146417Y0116331D03*
X0146459Y0116415D03*
X0146459Y0116457D03*
X0146459Y0116499D03*
X0146501Y0116583D03*
X0146501Y0116625D03*
X0146627Y0113895D03*
X0146669Y0113853D03*
X0146669Y0113811D03*
X0146753Y0113685D03*
X0150323Y0113643D03*
X0150365Y0113727D03*
X0150365Y0116751D03*
X0150323Y0116793D03*
X0150323Y0116835D03*
X0156707Y0116457D03*
X0156749Y0116415D03*
X0156875Y0117339D03*
X0160319Y0114315D03*
X0160025Y0121413D03*
X0159689Y0124689D03*
X0159647Y0124731D03*
X0156203Y0124647D03*
X0156119Y0124521D03*
X0156077Y0124479D03*
X0153767Y0124353D03*
X0153683Y0124479D03*
X0153809Y0121539D03*
X0153725Y0121371D03*
X0156119Y0121245D03*
X0149903Y0121371D03*
X0149861Y0121413D03*
X0149819Y0121497D03*
X0149861Y0124353D03*
X0149903Y0124395D03*
X0149945Y0124479D03*
X0141755Y0125865D03*
X0141755Y0125907D03*
X0135791Y0123597D03*
X0135623Y0123849D03*
X0134321Y0125865D03*
X0130457Y0125907D03*
D118*
X0134741Y0124563D03*
X0141797Y0124731D03*
X0148433Y0118347D03*
X0140873Y0113727D03*
D119*
X0140894Y0113769D03*
D120*
X0140894Y0113811D03*
X0159584Y0120783D03*
X0157988Y0125865D03*
X0134762Y0124521D03*
X0134762Y0124479D03*
D121*
X0134783Y0124395D03*
X0137639Y0121497D03*
X0157841Y0119985D03*
X0157337Y0115953D03*
X0159731Y0114777D03*
X0140873Y0113853D03*
D122*
X0119915Y0113895D03*
D123*
X0140894Y0113895D03*
X0151814Y0119943D03*
X0137618Y0121539D03*
X0137618Y0121581D03*
X0134804Y0124353D03*
D124*
X0123968Y0118641D03*
X0113006Y0118641D03*
X0113006Y0118473D03*
X0113006Y0118305D03*
X0113006Y0118137D03*
X0113006Y0117969D03*
X0113006Y0117759D03*
X0113006Y0117591D03*
X0113006Y0117423D03*
X0113006Y0117255D03*
X0113006Y0117087D03*
X0113006Y0116919D03*
X0113006Y0116709D03*
X0113006Y0116541D03*
X0113006Y0116373D03*
X0113006Y0116205D03*
X0113006Y0116037D03*
X0113006Y0115869D03*
X0113006Y0115659D03*
X0113006Y0115491D03*
X0113006Y0115323D03*
X0113006Y0115155D03*
X0113006Y0114987D03*
X0113006Y0114819D03*
X0113006Y0114609D03*
X0113006Y0114441D03*
X0113006Y0114273D03*
X0113006Y0114105D03*
X0113006Y0113937D03*
X0113006Y0118809D03*
X0113006Y0119019D03*
X0113006Y0119187D03*
X0113006Y0119355D03*
X0113006Y0119523D03*
X0113006Y0119691D03*
X0113006Y0119859D03*
X0113006Y0120069D03*
X0113006Y0120237D03*
X0113006Y0120405D03*
X0113006Y0120573D03*
X0113006Y0120741D03*
X0113006Y0120909D03*
X0113006Y0121119D03*
X0113006Y0121287D03*
X0113006Y0121455D03*
X0113006Y0121623D03*
X0113006Y0121791D03*
X0113006Y0121959D03*
X0113006Y0122169D03*
X0113006Y0122337D03*
X0113006Y0122505D03*
X0113006Y0122673D03*
X0113006Y0122841D03*
X0113006Y0123009D03*
X0113006Y0123219D03*
X0113006Y0123387D03*
X0113006Y0123555D03*
X0113006Y0123723D03*
D125*
X0119957Y0123723D03*
X0119957Y0113937D03*
D126*
X0140894Y0113937D03*
D127*
X0119999Y0113979D03*
X0119999Y0123681D03*
D128*
X0128735Y0121035D03*
X0131717Y0122715D03*
X0131717Y0122757D03*
X0131549Y0123177D03*
X0131507Y0123303D03*
X0139949Y0120699D03*
X0143099Y0122547D03*
X0143099Y0122589D03*
X0143057Y0122715D03*
X0142889Y0123177D03*
X0151835Y0119775D03*
X0154103Y0122589D03*
X0154103Y0122631D03*
X0154103Y0123093D03*
X0154103Y0123135D03*
X0154103Y0123177D03*
X0155657Y0123177D03*
X0155657Y0123135D03*
X0155657Y0123093D03*
X0155657Y0123051D03*
X0155657Y0122967D03*
X0155657Y0122925D03*
X0155657Y0122883D03*
X0155657Y0122799D03*
X0155657Y0122757D03*
X0155657Y0122715D03*
X0155657Y0122631D03*
X0155657Y0122589D03*
X0155657Y0122547D03*
X0155657Y0122463D03*
X0155657Y0122421D03*
X0155699Y0122295D03*
X0155699Y0122253D03*
X0155699Y0122211D03*
X0155657Y0123261D03*
X0155657Y0123303D03*
X0155657Y0123345D03*
X0155699Y0123429D03*
X0155699Y0123471D03*
X0155699Y0123513D03*
X0159857Y0124395D03*
X0159899Y0124353D03*
X0159899Y0124311D03*
X0156707Y0117045D03*
X0156707Y0117003D03*
X0142007Y0115575D03*
X0141839Y0115071D03*
X0141839Y0115029D03*
X0141671Y0114567D03*
X0141671Y0114525D03*
X0141671Y0114483D03*
X0141503Y0114021D03*
X0140285Y0114021D03*
X0140285Y0113979D03*
X0140117Y0114483D03*
X0140117Y0114525D03*
X0139949Y0115029D03*
D129*
X0140264Y0114063D03*
X0141482Y0113979D03*
X0141524Y0114063D03*
X0140432Y0122211D03*
X0140432Y0122253D03*
X0140432Y0122295D03*
X0142910Y0123093D03*
X0142910Y0123135D03*
X0142868Y0123261D03*
X0142742Y0123513D03*
X0142742Y0123597D03*
X0142700Y0123639D03*
X0142700Y0123681D03*
X0142574Y0124017D03*
X0142532Y0124143D03*
X0143036Y0122757D03*
X0143078Y0122631D03*
X0131696Y0122799D03*
X0131570Y0123135D03*
X0131528Y0123261D03*
X0131486Y0123345D03*
X0131360Y0123681D03*
X0131360Y0123765D03*
X0131318Y0123807D03*
X0131318Y0123849D03*
X0131192Y0124143D03*
X0131192Y0124185D03*
X0131192Y0124227D03*
X0131150Y0124311D03*
X0131024Y0124647D03*
X0129470Y0123345D03*
X0129386Y0123093D03*
X0129386Y0123051D03*
X0129260Y0122715D03*
X0129218Y0122589D03*
X0129218Y0122547D03*
D130*
X0120020Y0114021D03*
D131*
X0120062Y0114063D03*
D132*
X0120104Y0114105D03*
D133*
X0141524Y0114105D03*
X0160214Y0116709D03*
X0142868Y0123219D03*
X0142742Y0123555D03*
X0142700Y0123723D03*
X0142574Y0124059D03*
X0131738Y0122673D03*
X0131486Y0123387D03*
X0131360Y0123723D03*
X0131318Y0123891D03*
X0131150Y0124269D03*
X0129428Y0123219D03*
X0129260Y0122673D03*
X0129218Y0122505D03*
X0159920Y0124269D03*
D134*
X0120125Y0114147D03*
D135*
X0120167Y0114189D03*
D136*
X0140222Y0114189D03*
X0141566Y0114189D03*
X0141566Y0114231D03*
X0160172Y0116835D03*
X0160130Y0121707D03*
X0159962Y0124185D03*
X0158030Y0126033D03*
X0142994Y0122883D03*
X0142952Y0122967D03*
X0142826Y0123303D03*
X0142826Y0123345D03*
X0142784Y0123429D03*
X0142784Y0123471D03*
X0142658Y0123765D03*
X0142658Y0123807D03*
X0142616Y0123933D03*
X0142448Y0124395D03*
X0131444Y0123513D03*
X0131444Y0123471D03*
X0131402Y0123597D03*
X0131402Y0123639D03*
X0131276Y0123933D03*
X0131276Y0123975D03*
X0131234Y0124101D03*
X0131108Y0124395D03*
X0131066Y0124521D03*
X0131066Y0124563D03*
X0129554Y0123597D03*
X0129512Y0123471D03*
X0129344Y0122967D03*
X0129344Y0122925D03*
X0129302Y0122799D03*
X0129176Y0122463D03*
X0129176Y0122421D03*
X0129176Y0122379D03*
D137*
X0120209Y0114231D03*
D138*
X0120251Y0114273D03*
D139*
X0120272Y0114315D03*
D140*
X0120314Y0114357D03*
D141*
X0120356Y0114399D03*
D142*
X0120377Y0114441D03*
D143*
X0131885Y0116709D03*
X0138059Y0120237D03*
X0150029Y0124605D03*
X0153599Y0124605D03*
X0156203Y0121119D03*
X0159983Y0121287D03*
X0156959Y0117423D03*
X0160235Y0114441D03*
D144*
X0120419Y0114483D03*
D145*
X0120461Y0114525D03*
X0120461Y0123177D03*
D146*
X0120503Y0114567D03*
D147*
X0120524Y0114609D03*
D148*
X0120566Y0114651D03*
X0120566Y0123051D03*
D149*
X0120608Y0114693D03*
D150*
X0120629Y0114735D03*
D151*
X0120671Y0114777D03*
X0120671Y0122925D03*
D152*
X0120713Y0114819D03*
D153*
X0134909Y0124059D03*
X0159605Y0114819D03*
D154*
X0120734Y0114861D03*
D155*
X0124031Y0118725D03*
X0151835Y0120027D03*
X0159479Y0114861D03*
X0157967Y0125739D03*
X0151835Y0125781D03*
D156*
X0120776Y0114903D03*
D157*
X0151835Y0125739D03*
X0157967Y0125697D03*
X0159395Y0114903D03*
D158*
X0120818Y0114945D03*
X0120818Y0122757D03*
D159*
X0123905Y0119313D03*
X0129113Y0118389D03*
X0157715Y0115827D03*
X0159311Y0114945D03*
D160*
X0120860Y0114987D03*
D161*
X0135392Y0114987D03*
X0135392Y0115155D03*
X0135392Y0115323D03*
X0135392Y0115491D03*
X0135392Y0115659D03*
X0135392Y0115869D03*
X0135392Y0116037D03*
X0130520Y0121959D03*
X0151814Y0120573D03*
X0158450Y0117591D03*
D162*
X0153389Y0115869D03*
X0153389Y0115659D03*
X0153389Y0115491D03*
X0153389Y0115323D03*
X0153389Y0115155D03*
X0153389Y0114987D03*
D163*
X0159227Y0114987D03*
X0123821Y0118473D03*
D164*
X0120881Y0115029D03*
D165*
X0123779Y0118431D03*
X0123779Y0119439D03*
X0157799Y0120279D03*
X0158471Y0118095D03*
X0157925Y0115743D03*
X0159143Y0115029D03*
D166*
X0120923Y0115071D03*
D167*
X0128378Y0119901D03*
X0128378Y0119943D03*
X0132578Y0120321D03*
X0138878Y0118431D03*
X0139928Y0120615D03*
X0139928Y0120657D03*
X0142028Y0115701D03*
X0142028Y0115617D03*
X0139928Y0115113D03*
X0139928Y0115071D03*
X0156728Y0117129D03*
X0155678Y0122379D03*
D168*
X0157820Y0120321D03*
X0158492Y0118053D03*
X0158030Y0115701D03*
X0159038Y0115071D03*
X0123716Y0118347D03*
D169*
X0120965Y0115113D03*
D170*
X0120986Y0115155D03*
D171*
X0131549Y0123219D03*
X0138185Y0119859D03*
X0139907Y0115155D03*
X0143057Y0122673D03*
X0154103Y0122673D03*
X0154103Y0123219D03*
X0155657Y0123219D03*
X0155699Y0123387D03*
X0155699Y0123555D03*
X0155657Y0123009D03*
X0155657Y0122841D03*
X0155657Y0122673D03*
X0155657Y0122505D03*
X0155699Y0122337D03*
D172*
X0157820Y0120405D03*
X0148454Y0117969D03*
X0158912Y0115155D03*
D173*
X0121028Y0115197D03*
D174*
X0121070Y0115239D03*
D175*
X0123569Y0118179D03*
X0148433Y0117927D03*
X0158723Y0115281D03*
X0158765Y0115239D03*
D176*
X0121091Y0115281D03*
X0121091Y0122463D03*
D177*
X0121133Y0115323D03*
D178*
X0151835Y0125487D03*
X0158639Y0115323D03*
D179*
X0121175Y0115365D03*
D180*
X0121217Y0115407D03*
D181*
X0121238Y0115449D03*
X0121238Y0122295D03*
D182*
X0121280Y0115491D03*
D183*
X0121322Y0115533D03*
X0121322Y0122211D03*
D184*
X0121343Y0115575D03*
D185*
X0123590Y0119649D03*
X0158240Y0115575D03*
D186*
X0121385Y0115617D03*
X0121385Y0122127D03*
D187*
X0121427Y0115659D03*
D188*
X0139928Y0120573D03*
X0142028Y0115659D03*
X0156728Y0117087D03*
D189*
X0158093Y0115659D03*
X0157967Y0125487D03*
D190*
X0121448Y0115701D03*
D191*
X0121490Y0115743D03*
D192*
X0121532Y0115785D03*
D193*
X0123821Y0119397D03*
X0157841Y0115785D03*
X0157967Y0125613D03*
D194*
X0121574Y0121917D03*
X0121574Y0115827D03*
D195*
X0121595Y0115869D03*
D196*
X0124010Y0119187D03*
X0157610Y0115869D03*
D197*
X0121637Y0115911D03*
D198*
X0137513Y0121875D03*
X0137513Y0121917D03*
X0151835Y0119985D03*
X0157463Y0115911D03*
D199*
X0121679Y0115953D03*
D200*
X0121700Y0115995D03*
D201*
X0121742Y0116037D03*
D202*
X0130457Y0125109D03*
X0134615Y0124941D03*
X0157127Y0116037D03*
X0159731Y0120909D03*
D203*
X0121784Y0116079D03*
D204*
X0121805Y0116121D03*
X0121805Y0121665D03*
D205*
X0121847Y0116163D03*
D206*
X0121889Y0116205D03*
D207*
X0121931Y0116247D03*
D208*
X0121952Y0116289D03*
X0121952Y0121497D03*
D209*
X0121994Y0116331D03*
D210*
X0122036Y0116373D03*
D211*
X0122057Y0116415D03*
X0122057Y0121371D03*
D212*
X0122099Y0121329D03*
X0122099Y0116457D03*
D213*
X0122141Y0116499D03*
D214*
X0122162Y0116541D03*
D215*
X0122204Y0116583D03*
X0122204Y0121203D03*
D216*
X0122246Y0121161D03*
X0122246Y0116625D03*
D217*
X0122288Y0116667D03*
D218*
X0122309Y0116709D03*
D219*
X0122351Y0116751D03*
D220*
X0122393Y0116793D03*
X0122393Y0120993D03*
D221*
X0122414Y0116835D03*
D222*
X0122456Y0116877D03*
D223*
X0122498Y0116919D03*
D224*
X0122519Y0116961D03*
X0122519Y0120867D03*
D225*
X0122561Y0117003D03*
D226*
X0122603Y0117045D03*
D227*
X0122645Y0117087D03*
D228*
X0122666Y0117129D03*
X0122666Y0120699D03*
D229*
X0122708Y0120657D03*
X0122708Y0117171D03*
D230*
X0122750Y0117213D03*
D231*
X0122771Y0117255D03*
X0122771Y0120573D03*
D232*
X0130457Y0125319D03*
X0137891Y0120741D03*
X0131423Y0117255D03*
D233*
X0146858Y0117255D03*
X0150176Y0124773D03*
D234*
X0122813Y0120531D03*
X0122813Y0117297D03*
D235*
X0122855Y0117339D03*
X0122855Y0120489D03*
D236*
X0122876Y0117381D03*
D237*
X0131150Y0117381D03*
X0137702Y0121329D03*
X0134720Y0124647D03*
X0151814Y0119901D03*
D238*
X0122918Y0120405D03*
X0122918Y0117423D03*
D239*
X0135602Y0117423D03*
X0135602Y0117591D03*
X0135602Y0117759D03*
X0135602Y0117969D03*
X0135602Y0118137D03*
X0135602Y0118305D03*
D240*
X0134489Y0125319D03*
X0150365Y0124941D03*
X0151835Y0125991D03*
X0153263Y0124941D03*
X0153305Y0120909D03*
X0157883Y0119859D03*
X0149861Y0117423D03*
X0147047Y0117423D03*
D241*
X0153578Y0117423D03*
X0153578Y0117591D03*
X0153578Y0117759D03*
X0153578Y0117969D03*
X0153578Y0118137D03*
X0153578Y0118305D03*
X0151814Y0120741D03*
X0130520Y0121623D03*
X0129848Y0117591D03*
D242*
X0122960Y0117465D03*
X0122960Y0120363D03*
X0158282Y0120615D03*
D243*
X0141860Y0121497D03*
X0130520Y0121497D03*
X0123128Y0117675D03*
X0129890Y0117507D03*
X0129890Y0117465D03*
D244*
X0123002Y0117507D03*
X0123002Y0120321D03*
X0158324Y0120531D03*
D245*
X0159773Y0120951D03*
X0153179Y0120825D03*
X0147173Y0117507D03*
X0134573Y0125067D03*
D246*
X0130541Y0121203D03*
X0123023Y0117549D03*
D247*
X0123065Y0117591D03*
X0123065Y0120237D03*
X0130541Y0121287D03*
D248*
X0130520Y0121791D03*
X0129764Y0117759D03*
X0148454Y0117591D03*
X0157946Y0125109D03*
D249*
X0130520Y0121749D03*
X0130520Y0121707D03*
X0130520Y0121665D03*
X0129806Y0117675D03*
D250*
X0158450Y0117759D03*
D251*
X0157967Y0125151D03*
X0151835Y0125193D03*
X0141839Y0121917D03*
X0141839Y0121875D03*
X0130541Y0121875D03*
X0129743Y0117801D03*
X0123275Y0117843D03*
D252*
X0129449Y0118179D03*
X0158471Y0117927D03*
D253*
X0146984Y0119859D03*
X0146984Y0120069D03*
X0146984Y0120237D03*
X0146984Y0120405D03*
X0146984Y0120573D03*
X0146984Y0120741D03*
X0129638Y0117969D03*
X0123380Y0117969D03*
D254*
X0158471Y0117969D03*
D255*
X0129491Y0118137D03*
X0123527Y0118137D03*
D256*
X0157820Y0120237D03*
X0158492Y0118137D03*
D257*
X0148454Y0118179D03*
X0123926Y0118599D03*
X0123926Y0119271D03*
D258*
X0124073Y0118767D03*
X0158513Y0118263D03*
D259*
X0151814Y0120237D03*
X0123674Y0118305D03*
D260*
X0129281Y0118305D03*
D261*
X0124157Y0119019D03*
X0137555Y0121791D03*
X0158513Y0118305D03*
D262*
X0123842Y0118515D03*
D263*
X0148433Y0118515D03*
D264*
X0158534Y0118515D03*
D265*
X0123989Y0118683D03*
D266*
X0124094Y0118809D03*
X0159416Y0122169D03*
X0159416Y0122337D03*
X0159416Y0122505D03*
X0159416Y0122673D03*
X0159416Y0122841D03*
X0159416Y0123009D03*
D267*
X0137534Y0121833D03*
X0134888Y0124101D03*
X0124136Y0118851D03*
D268*
X0124178Y0118893D03*
X0134846Y0124227D03*
X0137576Y0121707D03*
X0137576Y0121665D03*
D269*
X0134825Y0124311D03*
X0124199Y0118977D03*
X0124199Y0118935D03*
X0151835Y0125865D03*
D270*
X0134909Y0124017D03*
X0124115Y0119061D03*
D271*
X0123758Y0119481D03*
D272*
X0123716Y0119523D03*
D273*
X0151835Y0119733D03*
D274*
X0157925Y0119733D03*
D275*
X0157904Y0119775D03*
X0141230Y0124689D03*
X0141188Y0124563D03*
X0141146Y0124479D03*
X0141104Y0124353D03*
X0141104Y0124311D03*
X0141062Y0124227D03*
X0141062Y0124185D03*
X0141020Y0124101D03*
X0140978Y0123975D03*
X0140936Y0123849D03*
X0140852Y0123597D03*
X0140810Y0123471D03*
X0140768Y0123345D03*
X0140684Y0123093D03*
X0140642Y0122967D03*
X0140558Y0122715D03*
X0140516Y0122589D03*
X0140474Y0122463D03*
X0129890Y0124647D03*
X0129848Y0124521D03*
X0129806Y0124395D03*
D276*
X0137828Y0120909D03*
X0151814Y0119859D03*
D277*
X0160193Y0119985D03*
X0160193Y0120027D03*
X0160193Y0120111D03*
X0160193Y0120153D03*
X0160193Y0120195D03*
X0160193Y0120279D03*
X0160193Y0120321D03*
X0160193Y0120363D03*
X0160193Y0120447D03*
X0160193Y0120489D03*
D278*
X0123233Y0120069D03*
D279*
X0151835Y0120069D03*
D280*
X0157841Y0120069D03*
D281*
X0160193Y0120069D03*
X0160193Y0120237D03*
X0160193Y0120405D03*
D282*
X0157841Y0120153D03*
D283*
X0151814Y0120195D03*
D284*
X0137996Y0120405D03*
D285*
X0122897Y0120447D03*
D286*
X0158303Y0120573D03*
D287*
X0122729Y0120615D03*
D288*
X0158261Y0120657D03*
D289*
X0158240Y0120699D03*
D290*
X0122624Y0120741D03*
D291*
X0134825Y0124269D03*
X0137597Y0121623D03*
X0159521Y0120741D03*
D292*
X0122582Y0120783D03*
D293*
X0122540Y0120825D03*
D294*
X0122477Y0120909D03*
D295*
X0122435Y0120951D03*
D296*
X0137828Y0120951D03*
D297*
X0122372Y0121035D03*
D298*
X0122330Y0121077D03*
D299*
X0122288Y0121119D03*
D300*
X0130457Y0124941D03*
X0137765Y0121119D03*
X0141797Y0124941D03*
D301*
X0141860Y0121245D03*
X0141860Y0121203D03*
D302*
X0122183Y0121245D03*
D303*
X0122141Y0121287D03*
D304*
X0130478Y0124773D03*
X0134720Y0124605D03*
X0137702Y0121287D03*
D305*
X0141839Y0121287D03*
D306*
X0122036Y0121413D03*
D307*
X0121994Y0121455D03*
D308*
X0137660Y0121455D03*
D309*
X0121910Y0121539D03*
D310*
X0121868Y0121581D03*
D311*
X0121847Y0121623D03*
D312*
X0141839Y0121623D03*
D313*
X0121763Y0121707D03*
D314*
X0121721Y0121749D03*
D315*
X0129323Y0122883D03*
X0129533Y0123513D03*
X0129701Y0124017D03*
X0129701Y0124101D03*
X0129869Y0124563D03*
X0131087Y0124479D03*
X0131255Y0124017D03*
X0140537Y0122631D03*
X0140705Y0123135D03*
X0140705Y0123177D03*
X0140873Y0123639D03*
X0140873Y0123681D03*
X0142469Y0124311D03*
X0142469Y0124353D03*
X0142637Y0123849D03*
X0159983Y0124101D03*
X0159983Y0124143D03*
X0160151Y0122127D03*
X0160151Y0122085D03*
X0160151Y0122043D03*
X0160151Y0122001D03*
X0160151Y0121917D03*
X0160151Y0121875D03*
X0160151Y0121833D03*
X0160151Y0121749D03*
D316*
X0121679Y0121791D03*
D317*
X0141839Y0121791D03*
D318*
X0140537Y0122673D03*
X0141083Y0124269D03*
X0129869Y0124605D03*
X0129701Y0124059D03*
X0129533Y0123555D03*
X0160151Y0121959D03*
X0160151Y0121791D03*
D319*
X0121658Y0121833D03*
D320*
X0121616Y0121875D03*
D321*
X0121532Y0121959D03*
D322*
X0121511Y0122001D03*
D323*
X0121469Y0122043D03*
D324*
X0121427Y0122085D03*
D325*
X0121343Y0122169D03*
D326*
X0121280Y0122253D03*
D327*
X0121196Y0122337D03*
D328*
X0129365Y0123009D03*
X0129491Y0123387D03*
X0129575Y0123723D03*
X0129659Y0123891D03*
X0129827Y0124437D03*
X0131045Y0124605D03*
X0140453Y0122337D03*
X0140495Y0122505D03*
X0140663Y0123009D03*
X0140789Y0123387D03*
X0140831Y0123555D03*
X0140957Y0123891D03*
X0142427Y0124437D03*
X0142385Y0124605D03*
D329*
X0121154Y0122379D03*
D330*
X0129239Y0122631D03*
X0129281Y0122757D03*
X0129407Y0123135D03*
X0129407Y0123177D03*
X0129449Y0123261D03*
X0129449Y0123303D03*
X0129491Y0123429D03*
X0129575Y0123639D03*
X0129575Y0123681D03*
X0129617Y0123765D03*
X0129617Y0123807D03*
X0129617Y0123849D03*
X0129659Y0123933D03*
X0129659Y0123975D03*
X0129743Y0124143D03*
X0129743Y0124185D03*
X0129743Y0124227D03*
X0129785Y0124311D03*
X0129785Y0124353D03*
X0129827Y0124479D03*
X0131129Y0124353D03*
X0140453Y0122421D03*
X0140453Y0122379D03*
X0140495Y0122547D03*
X0140579Y0122757D03*
X0140579Y0122799D03*
X0140621Y0122883D03*
X0140621Y0122925D03*
X0140663Y0123051D03*
X0140747Y0123261D03*
X0140747Y0123303D03*
X0140789Y0123429D03*
X0140831Y0123513D03*
X0140915Y0123765D03*
X0140915Y0123807D03*
X0140957Y0123933D03*
X0140999Y0124017D03*
X0141041Y0124143D03*
X0141125Y0124395D03*
X0141167Y0124521D03*
X0141209Y0124647D03*
X0142343Y0124647D03*
X0142343Y0124689D03*
X0142385Y0124563D03*
X0142385Y0124521D03*
X0142427Y0124479D03*
X0142511Y0124227D03*
X0142511Y0124185D03*
X0142553Y0124101D03*
X0142595Y0123975D03*
X0159941Y0124227D03*
D331*
X0121133Y0122421D03*
D332*
X0121049Y0122505D03*
D333*
X0121007Y0122547D03*
D334*
X0120986Y0122589D03*
D335*
X0120944Y0122631D03*
D336*
X0120902Y0122673D03*
D337*
X0120860Y0122715D03*
D338*
X0120797Y0122799D03*
D339*
X0120755Y0122841D03*
D340*
X0129302Y0122841D03*
X0131234Y0124059D03*
X0131108Y0124437D03*
X0131612Y0123009D03*
X0142490Y0124269D03*
X0142616Y0123891D03*
X0142826Y0123387D03*
X0142952Y0123009D03*
D341*
X0140894Y0123723D03*
X0141020Y0124059D03*
X0141146Y0124437D03*
X0141188Y0124605D03*
X0140726Y0123219D03*
X0140600Y0122841D03*
X0129764Y0124269D03*
X0160004Y0124059D03*
D342*
X0120713Y0122883D03*
D343*
X0120650Y0122967D03*
D344*
X0120608Y0123009D03*
D345*
X0120524Y0123093D03*
D346*
X0120482Y0123135D03*
D347*
X0120419Y0123219D03*
D348*
X0120377Y0123261D03*
D349*
X0120335Y0123303D03*
D350*
X0120293Y0123345D03*
D351*
X0120272Y0123387D03*
D352*
X0120230Y0123429D03*
D353*
X0120188Y0123471D03*
D354*
X0120146Y0123513D03*
D355*
X0120125Y0123555D03*
D356*
X0120083Y0123597D03*
D357*
X0120041Y0123639D03*
D358*
X0119936Y0123765D03*
D359*
X0134783Y0124437D03*
D360*
X0141776Y0124773D03*
D361*
X0134573Y0125109D03*
D362*
X0141776Y0125109D03*
D363*
X0151814Y0125109D03*
D364*
X0157967Y0125277D03*
D365*
X0151835Y0125319D03*
D366*
X0157967Y0125319D03*
D367*
X0157967Y0125571D03*
X0151835Y0125613D03*
D368*
X0130457Y0125655D03*
D369*
X0151814Y0125655D03*
D370*
X0151835Y0125823D03*
D371*
X0158051Y0126075D03*
D372*
X0148293Y0137126D02*
X0117584Y0137126D01*
X0117584Y0177677D01*
X0148293Y0177677D01*
X0148293Y0137126D01*
X0124978Y0130363D02*
X0123278Y0130363D01*
X0123278Y0130263D02*
X0119978Y0132463D01*
X0119978Y0132363D02*
X0119978Y0130363D01*
X0117578Y0130363D01*
X0119978Y0130363D02*
X0119978Y0128363D01*
X0123278Y0130263D01*
X0123378Y0128363D02*
X0123378Y0132263D01*
X0119083Y0174921D02*
X0119085Y0174986D01*
X0119091Y0175050D01*
X0119101Y0175114D01*
X0119114Y0175177D01*
X0119132Y0175239D01*
X0119153Y0175300D01*
X0119178Y0175360D01*
X0119207Y0175418D01*
X0119239Y0175474D01*
X0119274Y0175528D01*
X0119313Y0175580D01*
X0119355Y0175629D01*
X0119399Y0175676D01*
X0119447Y0175720D01*
X0119497Y0175761D01*
X0119549Y0175799D01*
X0119604Y0175834D01*
X0119660Y0175865D01*
X0119719Y0175892D01*
X0119779Y0175916D01*
X0119840Y0175937D01*
X0119903Y0175953D01*
X0119966Y0175966D01*
X0120030Y0175975D01*
X0120095Y0175980D01*
X0120159Y0175981D01*
X0120224Y0175978D01*
X0120288Y0175971D01*
X0120352Y0175960D01*
X0120415Y0175946D01*
X0120477Y0175927D01*
X0120537Y0175905D01*
X0120597Y0175879D01*
X0120654Y0175850D01*
X0120710Y0175817D01*
X0120763Y0175780D01*
X0120815Y0175741D01*
X0120863Y0175699D01*
X0120909Y0175653D01*
X0120953Y0175605D01*
X0120993Y0175554D01*
X0121030Y0175501D01*
X0121064Y0175446D01*
X0121094Y0175389D01*
X0121121Y0175330D01*
X0121144Y0175270D01*
X0121163Y0175208D01*
X0121179Y0175146D01*
X0121191Y0175082D01*
X0121199Y0175018D01*
X0121203Y0174953D01*
X0121203Y0174889D01*
X0121199Y0174824D01*
X0121191Y0174760D01*
X0121179Y0174696D01*
X0121163Y0174634D01*
X0121144Y0174572D01*
X0121121Y0174512D01*
X0121094Y0174453D01*
X0121064Y0174396D01*
X0121030Y0174341D01*
X0120993Y0174288D01*
X0120953Y0174237D01*
X0120909Y0174189D01*
X0120863Y0174143D01*
X0120815Y0174101D01*
X0120763Y0174062D01*
X0120710Y0174025D01*
X0120654Y0173992D01*
X0120597Y0173963D01*
X0120537Y0173937D01*
X0120477Y0173915D01*
X0120415Y0173896D01*
X0120352Y0173882D01*
X0120288Y0173871D01*
X0120224Y0173864D01*
X0120159Y0173861D01*
X0120095Y0173862D01*
X0120030Y0173867D01*
X0119966Y0173876D01*
X0119903Y0173889D01*
X0119840Y0173905D01*
X0119779Y0173926D01*
X0119719Y0173950D01*
X0119660Y0173977D01*
X0119604Y0174008D01*
X0119549Y0174043D01*
X0119497Y0174081D01*
X0119447Y0174122D01*
X0119399Y0174166D01*
X0119355Y0174213D01*
X0119313Y0174262D01*
X0119274Y0174314D01*
X0119239Y0174368D01*
X0119207Y0174424D01*
X0119178Y0174482D01*
X0119153Y0174542D01*
X0119132Y0174603D01*
X0119114Y0174665D01*
X0119101Y0174728D01*
X0119091Y0174792D01*
X0119085Y0174856D01*
X0119083Y0174921D01*
D373*
X0122398Y0190833D03*
X0132338Y0190833D03*
X0134578Y0192933D03*
X0153758Y0190833D03*
D374*
X0155858Y0193073D03*
X0155858Y0193213D03*
X0155998Y0193493D03*
X0155998Y0193773D03*
X0155998Y0193913D03*
X0155998Y0194053D03*
X0155998Y0194193D03*
X0155998Y0194473D03*
X0155998Y0194613D03*
X0155998Y0194753D03*
X0155998Y0194893D03*
X0155858Y0195173D03*
X0151518Y0195173D03*
X0151378Y0194753D03*
X0151378Y0194613D03*
X0151378Y0194473D03*
X0151378Y0194193D03*
X0151378Y0194053D03*
X0151378Y0193913D03*
X0151378Y0193773D03*
X0151378Y0193493D03*
X0151378Y0193353D03*
X0151518Y0193213D03*
X0151518Y0193073D03*
X0148438Y0195173D03*
X0148438Y0195313D03*
X0148438Y0195453D03*
X0144658Y0195453D03*
X0144658Y0195313D03*
X0144658Y0195173D03*
X0144658Y0194893D03*
X0144658Y0194753D03*
X0144658Y0195593D03*
X0144658Y0193353D03*
X0144658Y0193213D03*
X0144658Y0193073D03*
X0144658Y0192793D03*
X0144658Y0192653D03*
X0144658Y0192513D03*
X0144658Y0192373D03*
X0144658Y0192093D03*
X0144658Y0191953D03*
X0144658Y0191813D03*
X0144658Y0191673D03*
X0144658Y0191393D03*
X0144658Y0191253D03*
X0144658Y0191113D03*
X0144658Y0190973D03*
X0139478Y0190973D03*
X0139478Y0191113D03*
X0139478Y0191253D03*
X0139478Y0191393D03*
X0139478Y0191673D03*
X0139478Y0191813D03*
X0139478Y0191953D03*
X0139478Y0192093D03*
X0139478Y0192373D03*
X0139478Y0192513D03*
X0139478Y0192653D03*
X0139478Y0192793D03*
X0139478Y0193073D03*
X0139478Y0193213D03*
X0139478Y0193353D03*
X0139478Y0193493D03*
X0138358Y0195313D03*
X0138218Y0195593D03*
X0137938Y0196013D03*
X0140598Y0195313D03*
X0134438Y0192513D03*
X0130098Y0193073D03*
X0130098Y0193213D03*
X0129958Y0193493D03*
X0129958Y0193773D03*
X0129958Y0193913D03*
X0129958Y0194053D03*
X0129958Y0194193D03*
X0129958Y0194473D03*
X0129958Y0194613D03*
X0129958Y0194753D03*
X0130098Y0195173D03*
X0132478Y0197413D03*
X0124218Y0195593D03*
X0124218Y0192793D03*
X0124218Y0192653D03*
X0120298Y0192793D03*
X0120158Y0193073D03*
X0120158Y0193213D03*
X0120158Y0193353D03*
X0120018Y0193493D03*
X0120018Y0193773D03*
X0120018Y0193913D03*
X0120018Y0194053D03*
X0120018Y0194193D03*
X0120018Y0194473D03*
X0120018Y0194613D03*
X0120158Y0194893D03*
X0120158Y0195173D03*
X0117078Y0195173D03*
X0117078Y0195313D03*
X0117078Y0195453D03*
X0113298Y0195453D03*
X0113298Y0195313D03*
X0113298Y0195173D03*
X0113298Y0194893D03*
X0113298Y0194753D03*
X0113298Y0195593D03*
X0113298Y0193353D03*
X0113298Y0193213D03*
X0113298Y0193073D03*
X0113298Y0192793D03*
X0113298Y0192653D03*
X0113298Y0192513D03*
X0113298Y0192373D03*
X0113298Y0192093D03*
X0113298Y0191953D03*
X0113298Y0191813D03*
X0113298Y0191673D03*
X0113298Y0191393D03*
X0113298Y0191253D03*
X0113298Y0191113D03*
X0113298Y0190973D03*
X0107278Y0190973D03*
X0107278Y0191113D03*
X0107278Y0191253D03*
X0107278Y0191393D03*
X0107278Y0191673D03*
X0107278Y0191813D03*
X0107278Y0191953D03*
X0107278Y0192093D03*
X0107278Y0192373D03*
X0107278Y0192513D03*
X0107278Y0192653D03*
X0107278Y0192793D03*
X0107278Y0193073D03*
X0107278Y0193213D03*
X0107278Y0193353D03*
X0107278Y0195173D03*
X0107278Y0195313D03*
X0107278Y0195453D03*
X0107278Y0195593D03*
D375*
X0116798Y0194753D03*
X0117498Y0190973D03*
X0137098Y0197273D03*
X0147598Y0193213D03*
X0147598Y0193073D03*
X0148298Y0191953D03*
X0151798Y0192513D03*
D376*
X0153688Y0197273D03*
X0122328Y0197273D03*
X0122328Y0190973D03*
D377*
X0132408Y0190973D03*
D378*
X0139478Y0193773D03*
X0141578Y0196853D03*
X0141858Y0197273D03*
X0148158Y0194753D03*
X0147878Y0192793D03*
X0147878Y0192653D03*
X0148018Y0192513D03*
X0148438Y0191813D03*
X0148438Y0191673D03*
X0148578Y0191393D03*
X0148718Y0191253D03*
X0148718Y0191113D03*
X0148858Y0190973D03*
X0155578Y0192513D03*
X0123938Y0192373D03*
X0123938Y0195873D03*
X0120438Y0192513D03*
X0117358Y0191253D03*
X0117358Y0191113D03*
X0117218Y0191393D03*
X0117078Y0191673D03*
X0117078Y0191813D03*
X0116938Y0191953D03*
X0116658Y0192513D03*
X0116518Y0192653D03*
X0116518Y0192793D03*
X0116238Y0193073D03*
X0116238Y0193213D03*
D379*
X0139478Y0194193D03*
X0153758Y0190973D03*
D380*
X0139478Y0194613D03*
X0122258Y0191113D03*
D381*
X0132338Y0191113D03*
X0139478Y0194893D03*
D382*
X0139548Y0194753D03*
X0153688Y0191113D03*
D383*
X0153688Y0196993D03*
X0122328Y0196993D03*
X0122328Y0191253D03*
D384*
X0132408Y0191253D03*
X0139548Y0195173D03*
D385*
X0153758Y0191253D03*
D386*
X0132478Y0196993D03*
X0122258Y0196853D03*
X0122258Y0191393D03*
D387*
X0132408Y0191393D03*
X0132408Y0196853D03*
X0145988Y0193773D03*
X0145988Y0193493D03*
X0153688Y0196713D03*
D388*
X0153688Y0196853D03*
X0153688Y0191393D03*
X0114488Y0197273D03*
D389*
X0113298Y0195733D03*
X0113298Y0195033D03*
X0113298Y0192933D03*
X0113298Y0192233D03*
X0113298Y0191533D03*
X0107278Y0191533D03*
X0107278Y0192233D03*
X0107278Y0192933D03*
X0107278Y0195033D03*
X0107278Y0195733D03*
X0117078Y0195033D03*
X0120018Y0194333D03*
X0120018Y0193633D03*
X0120158Y0195033D03*
X0124358Y0192933D03*
X0129958Y0193633D03*
X0129958Y0194333D03*
X0130098Y0195033D03*
X0139478Y0193633D03*
X0139478Y0192933D03*
X0139478Y0192233D03*
X0139478Y0191533D03*
X0144658Y0191533D03*
X0144658Y0192233D03*
X0144658Y0192933D03*
X0144658Y0195033D03*
X0144658Y0195733D03*
X0140878Y0195733D03*
X0148438Y0195033D03*
X0151378Y0194333D03*
X0151378Y0193633D03*
X0151518Y0195033D03*
X0155998Y0194333D03*
X0155998Y0193633D03*
X0155858Y0192933D03*
D390*
X0155578Y0195733D03*
X0148158Y0192233D03*
X0148578Y0191533D03*
X0147738Y0192933D03*
X0137238Y0197133D03*
X0120438Y0195733D03*
X0116938Y0195733D03*
X0116378Y0192933D03*
X0117218Y0191533D03*
D391*
X0122258Y0191533D03*
X0108538Y0193633D03*
X0108538Y0194333D03*
D392*
X0122258Y0196433D03*
X0132478Y0191533D03*
D393*
X0153688Y0191533D03*
D394*
X0122258Y0191673D03*
X0122258Y0196573D03*
D395*
X0114978Y0196853D03*
X0114978Y0194193D03*
X0132478Y0191673D03*
D396*
X0132408Y0196713D03*
X0146128Y0193913D03*
X0153688Y0191673D03*
X0153688Y0196573D03*
X0114768Y0193913D03*
X0108748Y0195873D03*
X0108748Y0196013D03*
X0108748Y0196153D03*
X0108748Y0196293D03*
X0108748Y0196573D03*
X0108748Y0196713D03*
X0108748Y0196853D03*
X0108748Y0196993D03*
X0108748Y0197273D03*
D397*
X0114838Y0196993D03*
X0122258Y0191813D03*
D398*
X0115118Y0194613D03*
X0115118Y0196293D03*
X0122258Y0196013D03*
X0132338Y0196153D03*
X0132338Y0196293D03*
X0132478Y0191813D03*
X0146478Y0194613D03*
X0146478Y0196293D03*
X0153758Y0196153D03*
D399*
X0146268Y0194053D03*
X0153688Y0191813D03*
X0132408Y0196573D03*
X0122328Y0191953D03*
X0114908Y0194053D03*
D400*
X0132338Y0196013D03*
X0132478Y0192093D03*
X0132478Y0191953D03*
D401*
X0146408Y0194473D03*
X0146408Y0196573D03*
X0146408Y0196713D03*
X0153688Y0196293D03*
X0153688Y0192093D03*
X0153688Y0191953D03*
X0115048Y0194473D03*
X0115048Y0196573D03*
X0115048Y0196713D03*
D402*
X0116028Y0193353D03*
X0116728Y0192373D03*
X0116868Y0192093D03*
X0120648Y0192373D03*
X0120648Y0195873D03*
X0130448Y0192513D03*
X0134228Y0192373D03*
X0134088Y0195873D03*
X0139548Y0193913D03*
X0147388Y0193353D03*
X0148088Y0192373D03*
X0148228Y0192093D03*
X0152008Y0192373D03*
X0152008Y0195873D03*
D403*
X0146338Y0196853D03*
X0146338Y0194193D03*
X0122258Y0196153D03*
X0122258Y0196293D03*
X0122258Y0192093D03*
D404*
X0116798Y0192233D03*
X0148298Y0195733D03*
X0151798Y0195733D03*
D405*
X0146478Y0196433D03*
X0122258Y0192233D03*
X0115118Y0196433D03*
D406*
X0132408Y0192233D03*
D407*
X0153688Y0192233D03*
D408*
X0155438Y0192373D03*
X0155438Y0195873D03*
X0130658Y0195873D03*
X0130658Y0192373D03*
D409*
X0130308Y0192653D03*
X0130168Y0192793D03*
X0130028Y0193353D03*
X0130028Y0194893D03*
X0130168Y0195313D03*
X0130168Y0195453D03*
X0130308Y0195593D03*
X0124148Y0192513D03*
X0120368Y0192653D03*
X0120088Y0194753D03*
X0120228Y0195313D03*
X0120228Y0195453D03*
X0120368Y0195593D03*
X0117008Y0195593D03*
X0117008Y0194893D03*
X0137308Y0196993D03*
X0137448Y0196853D03*
X0137448Y0196713D03*
X0137588Y0196573D03*
X0137728Y0196293D03*
X0137868Y0196153D03*
X0138008Y0195873D03*
X0138288Y0195453D03*
X0140668Y0195453D03*
X0140808Y0195593D03*
X0140948Y0195873D03*
X0141088Y0196013D03*
X0141088Y0196153D03*
X0141228Y0196293D03*
X0141368Y0196573D03*
X0141508Y0196713D03*
X0141648Y0196993D03*
X0148368Y0195593D03*
X0148368Y0194893D03*
X0151448Y0194893D03*
X0151588Y0195313D03*
X0151588Y0195453D03*
X0151728Y0195593D03*
X0151588Y0192793D03*
X0151728Y0192653D03*
X0155648Y0192653D03*
X0155788Y0192793D03*
X0155928Y0193353D03*
X0155788Y0195313D03*
X0155788Y0195453D03*
X0155648Y0195593D03*
D410*
X0134578Y0193073D03*
X0134578Y0192793D03*
X0134578Y0192653D03*
X0134158Y0195593D03*
D411*
X0134228Y0195733D03*
X0137728Y0196433D03*
X0138148Y0195733D03*
X0141368Y0196433D03*
X0141788Y0197133D03*
X0151588Y0192933D03*
X0155928Y0195033D03*
X0130168Y0192933D03*
X0124148Y0195733D03*
X0120228Y0192933D03*
D412*
X0124288Y0193073D03*
X0124288Y0195453D03*
D413*
X0124078Y0193213D03*
D414*
X0133948Y0193213D03*
X0133948Y0193353D03*
X0133948Y0193493D03*
X0133948Y0193773D03*
X0133948Y0193913D03*
X0133948Y0194053D03*
X0133948Y0194193D03*
X0133948Y0194473D03*
X0133948Y0194613D03*
D415*
X0123868Y0193353D03*
D416*
X0122258Y0196713D03*
X0108538Y0194893D03*
X0108538Y0194753D03*
X0108538Y0194613D03*
X0108538Y0194473D03*
X0108538Y0194193D03*
X0108538Y0194053D03*
X0108538Y0193913D03*
X0108538Y0193773D03*
X0108538Y0193493D03*
D417*
X0114628Y0193493D03*
X0114628Y0193773D03*
D418*
X0123658Y0193493D03*
X0123658Y0195173D03*
D419*
X0114488Y0193633D03*
D420*
X0133948Y0193633D03*
X0133948Y0194333D03*
X0139548Y0194333D03*
D421*
X0145848Y0193633D03*
D422*
X0139478Y0194053D03*
D423*
X0146408Y0194333D03*
X0115048Y0194333D03*
D424*
X0132478Y0197273D03*
X0139478Y0194473D03*
D425*
X0139478Y0195033D03*
D426*
X0123938Y0195313D03*
D427*
X0133738Y0195453D03*
D428*
X0130448Y0195733D03*
D429*
X0115188Y0195873D03*
X0115188Y0196013D03*
X0115188Y0196153D03*
X0153688Y0196013D03*
D430*
X0146548Y0196013D03*
X0146548Y0195873D03*
X0146548Y0196153D03*
D431*
X0108748Y0196433D03*
X0108748Y0197133D03*
D432*
X0132338Y0196433D03*
D433*
X0153688Y0196433D03*
D434*
X0146198Y0196993D03*
D435*
X0146058Y0197133D03*
X0114698Y0197133D03*
D436*
X0122258Y0197133D03*
X0153758Y0197133D03*
D437*
X0132478Y0197133D03*
D438*
X0145848Y0197273D03*
D439*
X0153688Y0197413D03*
X0122328Y0197413D03*
D440*
X0171378Y0164337D02*
X0171378Y0162468D01*
X0171846Y0162001D01*
X0172780Y0162001D01*
X0173247Y0162468D01*
X0174325Y0162468D02*
X0174792Y0162001D01*
X0175726Y0162001D01*
X0176193Y0162468D01*
X0176193Y0162935D01*
X0175726Y0163403D01*
X0174792Y0163403D01*
X0174325Y0163870D01*
X0174325Y0164337D01*
X0174792Y0164804D01*
X0175726Y0164804D01*
X0176193Y0164337D01*
X0177272Y0164337D02*
X0177739Y0164804D01*
X0178673Y0164804D01*
X0179140Y0164337D01*
X0177272Y0162468D01*
X0177739Y0162001D01*
X0178673Y0162001D01*
X0179140Y0162468D01*
X0179140Y0164337D01*
X0180218Y0164337D02*
X0182086Y0162468D01*
X0181152Y0162468D02*
X0181152Y0164337D01*
X0182086Y0164337D02*
X0180218Y0162468D01*
X0180218Y0163403D02*
X0182086Y0163403D01*
X0177272Y0162468D02*
X0177272Y0164337D01*
X0173247Y0164337D02*
X0172780Y0164804D01*
X0171846Y0164804D01*
X0171378Y0164337D01*
X0184100Y0158185D02*
X0184100Y0156316D01*
X0184100Y0157251D02*
X0181298Y0157251D01*
X0182232Y0156316D01*
X0181765Y0155238D02*
X0181298Y0154771D01*
X0181298Y0153837D01*
X0181765Y0153370D01*
X0182232Y0153370D01*
X0182699Y0153837D01*
X0182699Y0154771D01*
X0183166Y0155238D01*
X0183633Y0155238D01*
X0184100Y0154771D01*
X0184100Y0153837D01*
X0183633Y0153370D01*
X0183633Y0152292D02*
X0184100Y0151825D01*
X0184100Y0150890D01*
X0183633Y0150423D01*
X0181765Y0150423D01*
X0181298Y0150890D01*
X0181298Y0151825D01*
X0181765Y0152292D01*
X0178673Y0144704D02*
X0177739Y0144704D01*
X0177272Y0144237D01*
X0176193Y0144237D02*
X0175726Y0144704D01*
X0174792Y0144704D01*
X0174325Y0144237D01*
X0174325Y0143770D01*
X0174792Y0143303D01*
X0175726Y0143303D01*
X0176193Y0142835D01*
X0176193Y0142368D01*
X0175726Y0141901D01*
X0174792Y0141901D01*
X0174325Y0142368D01*
X0173247Y0142368D02*
X0172780Y0141901D01*
X0171846Y0141901D01*
X0171378Y0142368D01*
X0171378Y0144237D01*
X0171846Y0144704D01*
X0172780Y0144704D01*
X0173247Y0144237D01*
X0177272Y0141901D02*
X0179140Y0143770D01*
X0179140Y0144237D01*
X0178673Y0144704D01*
X0179140Y0141901D02*
X0177272Y0141901D01*
D441*
X0148215Y0130437D02*
X0148215Y0130197D01*
X0086037Y0121603D02*
X0085796Y0121603D01*
X0164660Y0172683D02*
X0164660Y0172923D01*
X0119278Y0182405D02*
X0119278Y0182645D01*
D442*
X0102488Y0182665D02*
X0101267Y0181745D01*
X0102488Y0180854D02*
X0102488Y0182665D01*
X0102488Y0184476D01*
X0101267Y0183525D02*
X0102427Y0182765D01*
X0150317Y0183393D02*
X0151477Y0182633D01*
X0151538Y0182533D02*
X0150317Y0181613D01*
X0151538Y0180722D02*
X0151538Y0182533D01*
X0151538Y0184344D01*
X0162308Y0168753D02*
X0167308Y0168753D01*
X0169808Y0166253D01*
X0169808Y0161253D01*
X0167308Y0158753D01*
X0169808Y0156253D01*
X0169808Y0151253D01*
X0167308Y0148753D01*
X0169808Y0146253D01*
X0169808Y0141253D01*
X0167308Y0138753D01*
X0162308Y0138753D01*
X0159808Y0141253D01*
X0159808Y0146253D01*
X0162308Y0148753D01*
X0159808Y0151253D01*
X0159808Y0156253D01*
X0162308Y0158753D01*
X0159808Y0161253D01*
X0159808Y0166253D01*
X0162308Y0168753D01*
X0172388Y0158693D02*
X0169888Y0156193D01*
X0169888Y0151193D01*
X0172388Y0148693D01*
X0177388Y0148693D01*
X0179888Y0151193D01*
X0179888Y0156193D01*
X0177388Y0158693D01*
X0172388Y0158693D01*
X0105818Y0126819D02*
X0093219Y0126819D01*
X0093219Y0116583D02*
X0105818Y0116583D01*
M02*
