G75*
%MOIN*%
%OFA0B0*%
%FSLAX25Y25*%
%IPPOS*%
%LPD*%
%AMOC8*
5,1,8,0,0,1.08239X$1,22.5*
%
%ADD10OC8,0.08200*%
%ADD11R,0.07457X0.03052*%
%ADD12R,0.06312X0.06312*%
%ADD13R,0.05131X0.04737*%
%ADD14R,0.04737X0.05131*%
%ADD15R,0.05524X0.08674*%
%ADD16R,0.04737X0.04737*%
%ADD17C,0.08200*%
%ADD18C,0.04737*%
%ADD19C,0.14300*%
D10*
X0090178Y0133901D03*
X0101178Y0133901D03*
X0101178Y0143901D03*
X0090178Y0143901D03*
X0090178Y0153901D03*
X0101178Y0153901D03*
X0101178Y0163901D03*
X0090178Y0163901D03*
X0090178Y0173901D03*
X0101178Y0173901D03*
D11*
X0114157Y0174901D03*
X0114157Y0169901D03*
X0114157Y0164901D03*
X0114157Y0159901D03*
X0114157Y0154901D03*
X0114157Y0149901D03*
X0114157Y0144901D03*
X0114157Y0139901D03*
X0151720Y0139901D03*
X0151720Y0144901D03*
X0151720Y0149901D03*
X0151720Y0154901D03*
X0151720Y0159901D03*
X0151720Y0164901D03*
X0151720Y0169901D03*
X0151917Y0174901D03*
D12*
X0128659Y0130346D03*
X0113698Y0130346D03*
D13*
X0144869Y0130317D03*
X0151562Y0130317D03*
X0161314Y0172803D03*
X0168007Y0172803D03*
X0122625Y0182525D03*
X0115932Y0182525D03*
D14*
X0085916Y0118257D03*
X0085916Y0124950D03*
X0085252Y0182665D03*
X0091945Y0182665D03*
X0134222Y0182533D03*
X0140915Y0182533D03*
D15*
X0105818Y0121701D03*
X0093219Y0121701D03*
D16*
X0098366Y0182665D03*
X0105271Y0182665D03*
X0147416Y0182533D03*
X0154321Y0182533D03*
D17*
X0164808Y0163753D03*
X0164808Y0153753D03*
X0174888Y0153693D03*
X0164808Y0143753D03*
D18*
X0165528Y0129873D03*
X0083028Y0192873D03*
D19*
X0176528Y0189903D03*
X0176528Y0119903D03*
M02*
